<svg xmlns="http://www.w3.org/2000/svg" width="980" height="640" viewBox="0 0 980 640">
  <rect x="0" y="0" width="980" height="640" fill="white"/>
  <text x="490" y="34" text-anchor="middle" font-size="24" font-family="Arial" fill="#1f2933">Интерполяционные многочлены и сплайны</text>
  <line x1="96.15" y1="68.00" x2="96.15" y2="564.00" stroke="#eceff3" stroke-width="1"/>
  <text x="96.15" y="586.00" text-anchor="middle" font-size="12" font-family="Arial" fill="#4b5563">2</text>
  <line x1="214.92" y1="68.00" x2="214.92" y2="564.00" stroke="#eceff3" stroke-width="1"/>
  <text x="214.92" y="586.00" text-anchor="middle" font-size="12" font-family="Arial" fill="#4b5563">3</text>
  <line x1="333.69" y1="68.00" x2="333.69" y2="564.00" stroke="#eceff3" stroke-width="1"/>
  <text x="333.69" y="586.00" text-anchor="middle" font-size="12" font-family="Arial" fill="#4b5563">4</text>
  <line x1="452.47" y1="68.00" x2="452.47" y2="564.00" stroke="#eceff3" stroke-width="1"/>
  <text x="452.47" y="586.00" text-anchor="middle" font-size="12" font-family="Arial" fill="#4b5563">5</text>
  <line x1="571.24" y1="68.00" x2="571.24" y2="564.00" stroke="#eceff3" stroke-width="1"/>
  <text x="571.24" y="586.00" text-anchor="middle" font-size="12" font-family="Arial" fill="#4b5563">6</text>
  <line x1="690.01" y1="68.00" x2="690.01" y2="564.00" stroke="#eceff3" stroke-width="1"/>
  <text x="690.01" y="586.00" text-anchor="middle" font-size="12" font-family="Arial" fill="#4b5563">7</text>
  <line x1="808.78" y1="68.00" x2="808.78" y2="564.00" stroke="#eceff3" stroke-width="1"/>
  <text x="808.78" y="586.00" text-anchor="middle" font-size="12" font-family="Arial" fill="#4b5563">8</text>
  <line x1="927.56" y1="68.00" x2="927.56" y2="564.00" stroke="#eceff3" stroke-width="1"/>
  <text x="927.56" y="586.00" text-anchor="middle" font-size="12" font-family="Arial" fill="#4b5563">9</text>
  <line x1="86.00" y1="528.57" x2="944.00" y2="528.57" stroke="#eceff3" stroke-width="1"/>
  <text x="74.00" y="532.57" text-anchor="end" font-size="12" font-family="Arial" fill="#4b5563">0</text>
  <line x1="86.00" y1="408.32" x2="944.00" y2="408.32" stroke="#eceff3" stroke-width="1"/>
  <text x="74.00" y="412.32" text-anchor="end" font-size="12" font-family="Arial" fill="#4b5563">1</text>
  <line x1="86.00" y1="288.08" x2="944.00" y2="288.08" stroke="#eceff3" stroke-width="1"/>
  <text x="74.00" y="292.08" text-anchor="end" font-size="12" font-family="Arial" fill="#4b5563">2</text>
  <line x1="86.00" y1="167.83" x2="944.00" y2="167.83" stroke="#eceff3" stroke-width="1"/>
  <text x="74.00" y="171.83" text-anchor="end" font-size="12" font-family="Arial" fill="#4b5563">3</text>
  <line x1="86.00" y1="528.57" x2="944.00" y2="528.57" stroke="#5c6670" stroke-width="1.4"/>
  <line x1="86.00" y1="68.00" x2="86.00" y2="564.00" stroke="#5c6670" stroke-width="1.4"/>
  <polyline points="110.28,455.82 111.91,454.13 113.53,452.48 115.15,450.87 116.77,449.31 118.39,447.78 120.02,446.30 121.64,444.85 123.26,443.45 124.88,442.09 126.50,440.76 128.13,439.47 129.75,438.23 131.37,437.02 132.99,435.85 134.61,434.71 136.24,433.61 137.86,432.55 139.48,431.52 141.10,430.53 142.73,429.58 144.35,428.66 145.97,427.77 147.59,426.92 149.21,426.10 150.84,425.32 152.46,424.57 154.08,423.85 155.70,423.16 157.32,422.50 158.95,421.88 160.57,421.29 162.19,420.72 163.81,420.19 165.43,419.69 167.06,419.21 168.68,418.77 170.30,418.35 171.92,417.96 173.55,417.60 175.17,417.27 176.79,416.97 178.41,416.69 180.03,416.44 181.66,416.21 183.28,416.01 184.90,415.84 186.52,415.69 188.14,415.56 189.77,415.46 191.39,415.39 193.01,415.34 194.63,415.31 196.25,415.30 197.88,415.32 199.50,415.36 201.12,415.42 202.74,415.50 204.37,415.60 205.99,415.73 207.61,415.87 209.23,416.04 210.85,416.22 212.48,416.43 214.10,416.65 215.72,416.89 217.34,417.16 218.96,417.44 220.59,417.73 222.21,418.05 223.83,418.38 225.45,418.73 227.08,419.10 228.70,419.48 230.32,419.88 231.94,420.29 233.56,420.73 235.19,421.17 236.81,421.63 238.43,422.11 240.05,422.59 241.67,423.10 243.30,423.61 244.92,424.14 246.54,424.69 248.16,425.24 249.78,425.81 251.41,426.39 253.03,426.98 254.65,427.58 256.27,428.20 257.90,428.82 259.52,429.46 261.14,430.11 262.76,430.76 264.38,431.43 266.01,432.11 267.63,432.79 269.25,433.49 270.87,434.19 272.49,434.90 274.12,435.62 275.74,436.35 277.36,437.09 278.98,437.83 280.60,438.58 282.23,439.33 283.85,440.10 285.47,440.87 287.09,441.64 288.72,442.42 290.34,443.21 291.96,444.00 293.58,444.80 295.20,445.60 296.83,446.41 298.45,447.22 300.07,448.04 301.69,448.85 303.31,449.68 304.94,450.50 306.56,451.33 308.18,452.16 309.80,453.00 311.42,453.83 313.05,454.67 314.67,455.51 316.29,456.35 317.91,457.20 319.54,458.04 321.16,458.89 322.78,459.73 324.40,460.58 326.02,461.43 327.65,462.27 329.27,463.12 330.89,463.97 332.51,464.81 334.13,465.66 335.76,466.50 337.38,467.35 339.00,468.19 340.62,469.03 342.25,469.86 343.87,470.70 345.49,471.53 347.11,472.36 348.73,473.19 350.36,474.02 351.98,474.84 353.60,475.66 355.22,476.48 356.84,477.29 358.47,478.10 360.09,478.90 361.71,479.70 363.33,480.49 364.95,481.29 366.58,482.07 368.20,482.85 369.82,483.63 371.44,484.40 373.07,485.16 374.69,485.92 376.31,486.68 377.93,487.42 379.55,488.16 381.18,488.90 382.80,489.63 384.42,490.35 386.04,491.06 387.66,491.77 389.29,492.47 390.91,493.16 392.53,493.85 394.15,494.53 395.77,495.20 397.40,495.86 399.02,496.51 400.64,497.16 402.26,497.79 403.89,498.42 405.51,499.04 407.13,499.65 408.75,500.25 410.37,500.84 412.00,501.43 413.62,502.00 415.24,502.56 416.86,503.12 418.48,503.66 420.11,504.20 421.73,504.72 423.35,505.23 424.97,505.74 426.59,506.23 428.22,506.71 429.84,507.18 431.46,507.64 433.08,508.09 434.71,508.53 436.33,508.95 437.95,509.37 439.57,509.77 441.19,510.16 442.82,510.54 444.44,510.91 446.06,511.27 447.68,511.61 449.30,511.94 450.93,512.26 452.55,512.57 454.17,512.87 455.79,513.15 457.42,513.42 459.04,513.67 460.66,513.92 462.28,514.15 463.90,514.37 465.53,514.57 467.15,514.76 468.77,514.94 470.39,515.10 472.01,515.25 473.64,515.39 475.26,515.51 476.88,515.62 478.50,515.72 480.12,515.80 481.75,515.87 483.37,515.92 484.99,515.96 486.61,515.99 488.24,516.00 489.86,516.00 491.48,515.98 493.10,515.95 494.72,515.90 496.35,515.84 497.97,515.76 499.59,515.67 501.21,515.57 502.83,515.45 504.46,515.31 506.08,515.16 507.70,515.00 509.32,514.81 510.94,514.62 512.57,514.41 514.19,514.18 515.81,513.94 517.43,513.68 519.06,513.41 520.68,513.13 522.30,512.82 523.92,512.51 525.54,512.17 527.17,511.82 528.79,511.46 530.41,511.08 532.03,510.68 533.65,510.27 535.28,509.84 536.90,509.40 538.52,508.94 540.14,508.47 541.76,507.98 543.39,507.47 545.01,506.95 546.63,506.41 548.25,505.86 549.88,505.29 551.50,504.71 553.12,504.11 554.74,503.49 556.36,502.86 557.99,502.21 559.61,501.55 561.23,500.87 562.85,500.17 564.47,499.46 566.10,498.73 567.72,497.99 569.34,497.23 570.96,496.45 572.58,495.66 574.21,494.86 575.83,494.03 577.45,493.20 579.07,492.34 580.70,491.47 582.32,490.59 583.94,489.69 585.56,488.77 587.18,487.84 588.81,486.89 590.43,485.92 592.05,484.94 593.67,483.95 595.29,482.94 596.92,481.91 598.54,480.87 600.16,479.81 601.78,478.74 603.41,477.66 605.03,476.55 606.65,475.43 608.27,474.30 609.89,473.15 611.52,471.99 613.14,470.81 614.76,469.62 616.38,468.41 618.00,467.18 619.63,465.94 621.25,464.69 622.87,463.42 624.49,462.14 626.11,460.84 627.74,459.53 629.36,458.20 630.98,456.86 632.60,455.51 634.23,454.14 635.85,452.75 637.47,451.35 639.09,449.94 640.71,448.51 642.34,447.07 643.96,445.62 645.58,444.15 647.20,442.67 648.82,441.17 650.45,439.67 652.07,438.14 653.69,436.61 655.31,435.06 656.93,433.50 658.56,431.92 660.18,430.33 661.80,428.73 663.42,427.12 665.05,425.49 666.67,423.85 668.29,422.20 669.91,420.53 671.53,418.85 673.16,417.17 674.78,415.46 676.40,413.75 678.02,412.02 679.64,410.29 681.27,408.54 682.89,406.78 684.51,405.01 686.13,403.22 687.75,401.43 689.38,399.62 691.00,397.81 692.62,395.98 694.24,394.14 695.87,392.29 697.49,390.43 699.11,388.56 700.73,386.68 702.35,384.79 703.98,382.89 705.60,380.98 707.22,379.06 708.84,377.14 710.46,375.20 712.09,373.25 713.71,371.29 715.33,369.33 716.95,367.35 718.58,365.37 720.20,363.38 721.82,361.38 723.44,359.37 725.06,357.35 726.69,355.33 728.31,353.30 729.93,351.26 731.55,349.21 733.17,347.16 734.80,345.09 736.42,343.03 738.04,340.95 739.66,338.87 741.28,336.78 742.91,334.69 744.53,332.58 746.15,330.48 747.77,328.36 749.40,326.25 751.02,324.12 752.64,321.99 754.26,319.86 755.88,317.72 757.51,315.58 759.13,313.43 760.75,311.28 762.37,309.12 763.99,306.96 765.62,304.80 767.24,302.63 768.86,300.46 770.48,298.29 772.10,296.11 773.73,293.93 775.35,291.75 776.97,289.56 778.59,287.38 780.22,285.19 781.84,283.00 783.46,280.80 785.08,278.61 786.70,276.42 788.33,274.22 789.95,272.03 791.57,269.83 793.19,267.63 794.81,265.44 796.44,263.24 798.06,261.04 799.68,258.85 801.30,256.65 802.92,254.46 804.55,252.27 806.17,250.08 807.79,247.89 809.41,245.70 811.04,243.52 812.66,241.33 814.28,239.15 815.90,236.98 817.52,234.81 819.15,232.64 820.77,230.47 822.39,228.31 824.01,226.15 825.63,224.00 827.26,221.85 828.88,219.70 830.50,217.57 832.12,215.43 833.75,213.30 835.37,211.18 836.99,209.07 838.61,206.96 840.23,204.86 841.86,202.76 843.48,200.67 845.10,198.59 846.72,196.52 848.34,194.46 849.97,192.40 851.59,190.35 853.21,188.32 854.83,186.29 856.45,184.27 858.08,182.26 859.70,180.26 861.32,178.27 862.94,176.29 864.57,174.32 866.19,172.36 867.81,170.42 869.43,168.48 871.05,166.56 872.68,164.65 874.30,162.75 875.92,160.87 877.54,159.00 879.16,157.14 880.79,155.30 882.41,153.47 884.03,151.65 885.65,149.85 887.27,148.07 888.90,146.30 890.52,144.54 892.14,142.80 893.76,141.08 895.39,139.38 897.01,137.69 898.63,136.02 900.25,134.36 901.87,132.73 903.50,131.11 905.12,129.51 906.74,127.93 908.36,126.37 909.98,124.82 911.61,123.30 913.23,121.80 914.85,120.32 916.47,118.86 918.09,117.42 919.72,116.00" fill="none" stroke="#0b7285" stroke-width="2.6"/>
  <polyline points="110.28,455.82 111.91,454.13 113.53,452.48 115.15,450.87 116.77,449.31 118.39,447.78 120.02,446.30 121.64,444.85 123.26,443.45 124.88,442.09 126.50,440.76 128.13,439.47 129.75,438.23 131.37,437.02 132.99,435.85 134.61,434.71 136.24,433.61 137.86,432.55 139.48,431.52 141.10,430.53 142.73,429.58 144.35,428.66 145.97,427.77 147.59,426.92 149.21,426.10 150.84,425.32 152.46,424.57 154.08,423.85 155.70,423.16 157.32,422.50 158.95,421.88 160.57,421.29 162.19,420.72 163.81,420.19 165.43,419.69 167.06,419.21 168.68,418.77 170.30,418.35 171.92,417.96 173.55,417.60 175.17,417.27 176.79,416.97 178.41,416.69 180.03,416.44 181.66,416.21 183.28,416.01 184.90,415.84 186.52,415.69 188.14,415.56 189.77,415.46 191.39,415.39 193.01,415.34 194.63,415.31 196.25,415.30 197.88,415.32 199.50,415.36 201.12,415.42 202.74,415.50 204.37,415.60 205.99,415.73 207.61,415.87 209.23,416.04 210.85,416.22 212.48,416.43 214.10,416.65 215.72,416.89 217.34,417.16 218.96,417.44 220.59,417.73 222.21,418.05 223.83,418.38 225.45,418.73 227.08,419.10 228.70,419.48 230.32,419.88 231.94,420.29 233.56,420.73 235.19,421.17 236.81,421.63 238.43,422.11 240.05,422.59 241.67,423.10 243.30,423.61 244.92,424.14 246.54,424.69 248.16,425.24 249.78,425.81 251.41,426.39 253.03,426.98 254.65,427.58 256.27,428.20 257.90,428.82 259.52,429.46 261.14,430.11 262.76,430.76 264.38,431.43 266.01,432.11 267.63,432.79 269.25,433.49 270.87,434.19 272.49,434.90 274.12,435.62 275.74,436.35 277.36,437.09 278.98,437.83 280.60,438.58 282.23,439.33 283.85,440.10 285.47,440.87 287.09,441.64 288.72,442.42 290.34,443.21 291.96,444.00 293.58,444.80 295.20,445.60 296.83,446.41 298.45,447.22 300.07,448.04 301.69,448.85 303.31,449.68 304.94,450.50 306.56,451.33 308.18,452.16 309.80,453.00 311.42,453.83 313.05,454.67 314.67,455.51 316.29,456.35 317.91,457.20 319.54,458.04 321.16,458.89 322.78,459.73 324.40,460.58 326.02,461.43 327.65,462.27 329.27,463.12 330.89,463.97 332.51,464.81 334.13,465.66 335.76,466.50 337.38,467.35 339.00,468.19 340.62,469.03 342.25,469.86 343.87,470.70 345.49,471.53 347.11,472.36 348.73,473.19 350.36,474.02 351.98,474.84 353.60,475.66 355.22,476.48 356.84,477.29 358.47,478.10 360.09,478.90 361.71,479.70 363.33,480.49 364.95,481.29 366.58,482.07 368.20,482.85 369.82,483.63 371.44,484.40 373.07,485.16 374.69,485.92 376.31,486.68 377.93,487.42 379.55,488.16 381.18,488.90 382.80,489.63 384.42,490.35 386.04,491.06 387.66,491.77 389.29,492.47 390.91,493.16 392.53,493.85 394.15,494.53 395.77,495.20 397.40,495.86 399.02,496.51 400.64,497.16 402.26,497.79 403.89,498.42 405.51,499.04 407.13,499.65 408.75,500.25 410.37,500.84 412.00,501.43 413.62,502.00 415.24,502.56 416.86,503.12 418.48,503.66 420.11,504.20 421.73,504.72 423.35,505.23 424.97,505.74 426.59,506.23 428.22,506.71 429.84,507.18 431.46,507.64 433.08,508.09 434.71,508.53 436.33,508.95 437.95,509.37 439.57,509.77 441.19,510.16 442.82,510.54 444.44,510.91 446.06,511.27 447.68,511.61 449.30,511.94 450.93,512.26 452.55,512.57 454.17,512.87 455.79,513.15 457.42,513.42 459.04,513.67 460.66,513.92 462.28,514.15 463.90,514.37 465.53,514.57 467.15,514.76 468.77,514.94 470.39,515.10 472.01,515.25 473.64,515.39 475.26,515.51 476.88,515.62 478.50,515.72 480.12,515.80 481.75,515.87 483.37,515.92 484.99,515.96 486.61,515.99 488.24,516.00 489.86,516.00 491.48,515.98 493.10,515.95 494.72,515.90 496.35,515.84 497.97,515.76 499.59,515.67 501.21,515.57 502.83,515.45 504.46,515.31 506.08,515.16 507.70,515.00 509.32,514.81 510.94,514.62 512.57,514.41 514.19,514.18 515.81,513.94 517.43,513.68 519.06,513.41 520.68,513.13 522.30,512.82 523.92,512.51 525.54,512.17 527.17,511.82 528.79,511.46 530.41,511.08 532.03,510.68 533.65,510.27 535.28,509.84 536.90,509.40 538.52,508.94 540.14,508.47 541.76,507.98 543.39,507.47 545.01,506.95 546.63,506.41 548.25,505.86 549.88,505.29 551.50,504.71 553.12,504.11 554.74,503.49 556.36,502.86 557.99,502.21 559.61,501.55 561.23,500.87 562.85,500.17 564.47,499.46 566.10,498.73 567.72,497.99 569.34,497.23 570.96,496.45 572.58,495.66 574.21,494.86 575.83,494.03 577.45,493.20 579.07,492.34 580.70,491.47 582.32,490.59 583.94,489.69 585.56,488.77 587.18,487.84 588.81,486.89 590.43,485.92 592.05,484.94 593.67,483.95 595.29,482.94 596.92,481.91 598.54,480.87 600.16,479.81 601.78,478.74 603.41,477.66 605.03,476.55 606.65,475.43 608.27,474.30 609.89,473.15 611.52,471.99 613.14,470.81 614.76,469.62 616.38,468.41 618.00,467.18 619.63,465.94 621.25,464.69 622.87,463.42 624.49,462.14 626.11,460.84 627.74,459.53 629.36,458.20 630.98,456.86 632.60,455.51 634.23,454.14 635.85,452.75 637.47,451.35 639.09,449.94 640.71,448.51 642.34,447.07 643.96,445.62 645.58,444.15 647.20,442.67 648.82,441.17 650.45,439.67 652.07,438.14 653.69,436.61 655.31,435.06 656.93,433.50 658.56,431.92 660.18,430.33 661.80,428.73 663.42,427.12 665.05,425.49 666.67,423.85 668.29,422.20 669.91,420.53 671.53,418.85 673.16,417.17 674.78,415.46 676.40,413.75 678.02,412.02 679.64,410.29 681.27,408.54 682.89,406.78 684.51,405.01 686.13,403.22 687.75,401.43 689.38,399.62 691.00,397.81 692.62,395.98 694.24,394.14 695.87,392.29 697.49,390.43 699.11,388.56 700.73,386.68 702.35,384.79 703.98,382.89 705.60,380.98 707.22,379.06 708.84,377.14 710.46,375.20 712.09,373.25 713.71,371.29 715.33,369.33 716.95,367.35 718.58,365.37 720.20,363.38 721.82,361.38 723.44,359.37 725.06,357.35 726.69,355.33 728.31,353.30 729.93,351.26 731.55,349.21 733.17,347.16 734.80,345.09 736.42,343.03 738.04,340.95 739.66,338.87 741.28,336.78 742.91,334.69 744.53,332.58 746.15,330.48 747.77,328.36 749.40,326.25 751.02,324.12 752.64,321.99 754.26,319.86 755.88,317.72 757.51,315.58 759.13,313.43 760.75,311.28 762.37,309.12 763.99,306.96 765.62,304.80 767.24,302.63 768.86,300.46 770.48,298.29 772.10,296.11 773.73,293.93 775.35,291.75 776.97,289.56 778.59,287.38 780.22,285.19 781.84,283.00 783.46,280.80 785.08,278.61 786.70,276.42 788.33,274.22 789.95,272.03 791.57,269.83 793.19,267.63 794.81,265.44 796.44,263.24 798.06,261.04 799.68,258.85 801.30,256.65 802.92,254.46 804.55,252.27 806.17,250.08 807.79,247.89 809.41,245.70 811.04,243.52 812.66,241.33 814.28,239.15 815.90,236.98 817.52,234.81 819.15,232.64 820.77,230.47 822.39,228.31 824.01,226.15 825.63,224.00 827.26,221.85 828.88,219.70 830.50,217.57 832.12,215.43 833.75,213.30 835.37,211.18 836.99,209.07 838.61,206.96 840.23,204.86 841.86,202.76 843.48,200.67 845.10,198.59 846.72,196.52 848.34,194.46 849.97,192.40 851.59,190.35 853.21,188.32 854.83,186.29 856.45,184.27 858.08,182.26 859.70,180.26 861.32,178.27 862.94,176.29 864.57,174.32 866.19,172.36 867.81,170.42 869.43,168.48 871.05,166.56 872.68,164.65 874.30,162.75 875.92,160.87 877.54,159.00 879.16,157.14 880.79,155.30 882.41,153.47 884.03,151.65 885.65,149.85 887.27,148.07 888.90,146.30 890.52,144.54 892.14,142.80 893.76,141.08 895.39,139.38 897.01,137.69 898.63,136.02 900.25,134.36 901.87,132.73 903.50,131.11 905.12,129.51 906.74,127.93 908.36,126.37 909.98,124.82 911.61,123.30 913.23,121.80 914.85,120.32 916.47,118.86 918.09,117.42 919.72,116.00" fill="none" stroke="#d9480f" stroke-width="2.6" stroke-dasharray="8,5"/>
  <polyline points="110.28,455.82 111.91,455.70 113.53,455.58 115.15,455.45 116.77,455.33 118.39,455.20 120.02,455.08 121.64,454.96 123.26,454.83 124.88,454.71 126.50,454.58 128.13,454.46 129.75,454.34 131.37,454.21 132.99,454.09 134.61,453.97 136.24,453.84 137.86,453.72 139.48,453.59 141.10,453.47 142.73,453.35 144.35,453.22 145.97,453.10 147.59,452.98 149.21,452.85 150.84,452.73 152.46,452.60 154.08,452.48 155.70,452.36 157.32,452.23 158.95,452.11 160.57,451.99 162.19,451.86 163.81,451.74 165.43,451.61 167.06,451.49 168.68,451.37 170.30,451.24 171.92,451.12 173.55,450.99 175.17,450.87 176.79,450.75 178.41,450.62 180.03,450.50 181.66,450.38 183.28,450.25 184.90,450.13 186.52,450.00 188.14,449.88 189.77,449.76 191.39,449.63 193.01,449.51 194.63,449.39 196.25,449.26 197.88,449.14 199.50,449.01 201.12,448.89 202.74,448.77 204.37,448.64 205.99,448.52 207.61,448.39 209.23,448.27 210.85,448.15 212.48,448.02 214.10,447.90 215.72,447.78 217.34,447.65 218.96,447.53 220.59,447.40 222.21,447.28 223.83,447.16 225.45,447.03 227.08,446.91 228.70,446.79 230.32,446.66 231.94,446.54 233.56,446.41 235.19,446.29 236.81,446.17 238.43,446.04 240.05,445.92 241.67,445.80 243.30,445.67 244.92,445.55 246.54,445.42 248.16,445.30 249.78,445.18 251.41,445.05 253.03,444.93 254.65,444.80 256.27,444.68 257.90,444.56 259.52,444.43 261.14,444.31 262.76,444.19 264.38,444.06 266.01,443.94 267.63,443.81 269.25,443.69 270.87,443.57 272.49,443.44 274.12,443.32 275.74,443.20 277.36,443.07 278.98,442.95 280.60,442.82 282.23,442.70 283.85,442.58 285.47,442.45 287.09,442.33 288.72,442.38 290.34,442.96 291.96,443.54 293.58,444.13 295.20,444.71 296.83,445.30 298.45,445.88 300.07,446.46 301.69,447.05 303.31,447.63 304.94,448.22 306.56,448.80 308.18,449.38 309.80,449.97 311.42,450.55 313.05,451.14 314.67,451.72 316.29,452.30 317.91,452.89 319.54,453.47 321.16,454.05 322.78,454.64 324.40,455.22 326.02,455.81 327.65,456.39 329.27,456.97 330.89,457.56 332.51,458.14 334.13,458.73 335.76,459.31 337.38,459.89 339.00,460.48 340.62,461.06 342.25,461.65 343.87,462.23 345.49,462.81 347.11,463.40 348.73,463.98 350.36,464.57 351.98,465.15 353.60,465.73 355.22,466.32 356.84,466.90 358.47,467.49 360.09,468.07 361.71,468.65 363.33,469.24 364.95,469.82 366.58,470.41 368.20,470.99 369.82,471.57 371.44,472.16 373.07,472.74 374.69,473.33 376.31,473.91 377.93,474.49 379.55,475.08 381.18,475.66 382.80,476.24 384.42,476.83 386.04,477.41 387.66,478.00 389.29,478.58 390.91,479.16 392.53,479.75 394.15,480.33 395.77,480.92 397.40,481.50 399.02,482.08 400.64,482.67 402.26,483.25 403.89,483.84 405.51,484.42 407.13,485.00 408.75,485.59 410.37,486.17 412.00,486.76 413.62,487.34 415.24,487.92 416.86,488.51 418.48,489.09 420.11,489.68 421.73,490.26 423.35,490.84 424.97,491.43 426.59,492.01 428.22,492.60 429.84,493.18 431.46,493.76 433.08,494.35 434.71,494.93 436.33,495.51 437.95,496.10 439.57,496.68 441.19,497.27 442.82,497.85 444.44,498.43 446.06,499.02 447.68,499.60 449.30,500.19 450.93,500.77 452.55,501.35 454.17,501.94 455.79,502.52 457.42,503.11 459.04,503.69 460.66,504.27 462.28,504.86 463.90,505.44 465.53,506.03 467.15,506.61 468.77,507.19 470.39,507.78 472.01,508.36 473.64,508.95 475.26,509.53 476.88,510.11 478.50,510.70 480.12,511.28 481.75,511.87 483.37,512.45 484.99,513.03 486.61,513.62 488.24,514.20 489.86,514.78 491.48,515.37 493.10,515.93 494.72,514.60 496.35,513.26 497.97,511.92 499.59,510.58 501.21,509.24 502.83,507.90 504.46,506.56 506.08,505.22 507.70,503.89 509.32,502.55 510.94,501.21 512.57,499.87 514.19,498.53 515.81,497.19 517.43,495.85 519.06,494.51 520.68,493.17 522.30,491.84 523.92,490.50 525.54,489.16 527.17,487.82 528.79,486.48 530.41,485.14 532.03,483.80 533.65,482.46 535.28,481.12 536.90,479.79 538.52,478.45 540.14,477.11 541.76,475.77 543.39,474.43 545.01,473.09 546.63,471.75 548.25,470.41 549.88,469.07 551.50,467.74 553.12,466.40 554.74,465.06 556.36,463.72 557.99,462.38 559.61,461.04 561.23,459.70 562.85,458.36 564.47,457.02 566.10,455.69 567.72,454.35 569.34,453.01 570.96,451.67 572.58,450.33 574.21,448.99 575.83,447.65 577.45,446.31 579.07,444.97 580.70,443.64 582.32,442.30 583.94,440.96 585.56,439.62 587.18,438.28 588.81,436.94 590.43,435.60 592.05,434.26 593.67,432.92 595.29,431.59 596.92,430.25 598.54,428.91 600.16,427.57 601.78,426.23 603.41,424.89 605.03,423.55 606.65,422.21 608.27,420.87 609.89,419.54 611.52,418.20 613.14,416.86 614.76,415.52 616.38,414.18 618.00,412.84 619.63,411.50 621.25,410.16 622.87,408.82 624.49,407.49 626.11,406.15 627.74,404.81 629.36,403.47 630.98,402.13 632.60,400.79 634.23,399.45 635.85,398.11 637.47,396.78 639.09,395.44 640.71,394.10 642.34,392.76 643.96,391.42 645.58,390.08 647.20,388.74 648.82,387.40 650.45,386.06 652.07,384.73 653.69,383.39 655.31,382.05 656.93,380.71 658.56,379.37 660.18,378.03 661.80,376.69 663.42,375.35 665.05,374.01 666.67,372.68 668.29,371.34 669.91,370.00 671.53,368.66 673.16,367.32 674.78,365.98 676.40,364.64 678.02,363.30 679.64,361.96 681.27,360.63 682.89,359.29 684.51,357.95 686.13,356.61 687.75,355.27 689.38,353.93 691.00,352.59 692.62,351.25 694.24,349.91 695.87,348.58 697.49,347.24 699.11,345.90 700.73,344.56 702.35,343.22 703.98,341.88 705.60,340.54 707.22,339.20 708.84,337.86 710.46,336.53 712.09,335.19 713.71,333.85 715.33,332.51 716.95,331.17 718.58,329.83 720.20,328.49 721.82,327.15 723.44,325.81 725.06,324.48 726.69,323.14 728.31,321.80 729.93,320.46 731.55,319.12 733.17,317.78 734.80,316.44 736.42,315.10 738.04,313.76 739.66,312.43 741.28,311.09 742.91,309.75 744.53,308.41 746.15,307.07 747.77,305.73 749.40,304.39 751.02,303.05 752.64,301.71 754.26,300.38 755.88,299.04 757.51,297.70 759.13,296.36 760.75,295.02 762.37,293.68 763.99,292.34 765.62,291.00 767.24,289.67 768.86,288.33 770.48,286.99 772.10,285.65 773.73,284.31 775.35,282.97 776.97,281.63 778.59,280.29 780.22,278.95 781.84,277.62 783.46,276.28 785.08,274.94 786.70,273.60 788.33,272.26 789.95,270.92 791.57,269.58 793.19,267.81 794.81,265.86 796.44,263.92 798.06,261.97 799.68,260.03 801.30,258.08 802.92,256.13 804.55,254.19 806.17,252.24 807.79,250.29 809.41,248.35 811.04,246.40 812.66,244.45 814.28,242.51 815.90,240.56 817.52,238.62 819.15,236.67 820.77,234.72 822.39,232.78 824.01,230.83 825.63,228.88 827.26,226.94 828.88,224.99 830.50,223.05 832.12,221.10 833.75,219.15 835.37,217.21 836.99,215.26 838.61,213.31 840.23,211.37 841.86,209.42 843.48,207.48 845.10,205.53 846.72,203.58 848.34,201.64 849.97,199.69 851.59,197.74 853.21,195.80 854.83,193.85 856.45,191.91 858.08,189.96 859.70,188.01 861.32,186.07 862.94,184.12 864.57,182.17 866.19,180.23 867.81,178.28 869.43,176.33 871.05,174.39 872.68,172.44 874.30,170.50 875.92,168.55 877.54,166.60 879.16,164.66 880.79,162.71 882.41,160.76 884.03,158.82 885.65,156.87 887.27,154.93 888.90,152.98 890.52,151.03 892.14,149.09 893.76,147.14 895.39,145.19 897.01,143.25 898.63,141.30 900.25,139.36 901.87,137.41 903.50,135.46 905.12,133.52 906.74,131.57 908.36,129.62 909.98,127.68 911.61,125.73 913.23,123.79 914.85,121.84 916.47,119.89 918.09,117.95 919.72,116.00" fill="none" stroke="#2f9e44" stroke-width="2.6"/>
  <polyline points="110.28,455.82 111.91,455.37 113.53,454.93 115.15,454.49 116.77,454.06 118.39,453.63 120.02,453.21 121.64,452.80 123.26,452.39 124.88,451.99 126.50,451.59 128.13,451.20 129.75,450.82 131.37,450.44 132.99,450.07 134.61,449.70 136.24,449.34 137.86,448.99 139.48,448.64 141.10,448.30 142.73,447.96 144.35,447.63 145.97,447.31 147.59,446.99 149.21,446.68 150.84,446.37 152.46,446.07 154.08,445.78 155.70,445.49 157.32,445.21 158.95,444.93 160.57,444.66 162.19,444.40 163.81,444.14 165.43,443.89 167.06,443.64 168.68,443.40 170.30,443.17 171.92,442.94 173.55,442.72 175.17,442.50 176.79,442.29 178.41,442.09 180.03,441.89 181.66,441.70 183.28,441.51 184.90,441.33 186.52,441.16 188.14,440.99 189.77,440.83 191.39,440.67 193.01,440.52 194.63,440.38 196.25,440.24 197.88,440.11 199.50,439.98 201.12,439.86 202.74,439.75 204.37,439.64 205.99,439.54 207.61,439.44 209.23,439.35 210.85,439.27 212.48,439.19 214.10,439.12 215.72,439.05 217.34,438.99 218.96,438.94 220.59,438.89 222.21,438.85 223.83,438.81 225.45,438.78 227.08,438.76 228.70,438.74 230.32,438.73 231.94,438.72 233.56,438.72 235.19,438.73 236.81,438.74 238.43,438.76 240.05,438.78 241.67,438.81 243.30,438.85 244.92,438.89 246.54,438.93 248.16,438.99 249.78,439.05 251.41,439.11 253.03,439.19 254.65,439.26 256.27,439.35 257.90,439.44 259.52,439.53 261.14,439.64 262.76,439.74 264.38,439.86 266.01,439.98 267.63,440.10 269.25,440.23 270.87,440.37 272.49,440.52 274.12,440.67 275.74,440.82 277.36,440.98 278.98,441.15 280.60,441.33 282.23,441.51 283.85,441.69 285.47,441.88 287.09,442.08 288.72,442.28 290.34,442.49 291.96,442.71 293.58,442.93 295.20,443.16 296.83,443.39 298.45,443.63 300.07,443.88 301.69,444.13 303.31,444.39 304.94,444.65 306.56,444.92 308.18,445.20 309.80,445.48 311.42,445.77 313.05,446.06 314.67,446.36 316.29,446.67 317.91,446.98 319.54,447.30 321.16,447.62 322.78,447.95 324.40,448.29 326.02,448.63 327.65,448.98 329.27,449.33 330.89,449.69 332.51,450.06 334.13,450.43 335.76,450.80 337.38,451.19 339.00,451.58 340.62,451.97 342.25,452.38 343.87,452.78 345.49,453.20 347.11,453.62 348.73,454.04 350.36,454.47 351.98,454.91 353.60,455.36 355.22,455.81 356.84,456.26 358.47,456.72 360.09,457.19 361.71,457.66 363.33,458.14 364.95,458.63 366.58,459.12 368.20,459.62 369.82,460.12 371.44,460.63 373.07,461.15 374.69,461.67 376.31,462.20 377.93,462.73 379.55,463.27 381.18,463.82 382.80,464.37 384.42,464.93 386.04,465.49 387.66,466.06 389.29,466.64 390.91,467.22 392.53,467.81 394.15,468.40 395.77,469.00 397.40,469.60 399.02,470.22 400.64,470.83 402.26,471.46 403.89,472.09 405.51,472.72 407.13,473.36 408.75,474.01 410.37,474.67 412.00,475.33 413.62,475.99 415.24,476.66 416.86,477.34 418.48,478.02 420.11,478.71 421.73,479.41 423.35,480.11 424.97,480.82 426.59,481.53 428.22,482.25 429.84,482.98 431.46,483.71 433.08,484.45 434.71,485.19 436.33,485.94 437.95,486.70 439.57,487.46 441.19,488.22 442.82,489.00 444.44,489.78 446.06,490.56 447.68,491.36 449.30,492.15 450.93,492.96 452.55,493.77 454.17,494.58 455.79,495.40 457.42,496.23 459.04,497.06 460.66,497.90 462.28,498.75 463.90,499.60 465.53,500.46 467.15,501.32 468.77,502.19 470.39,503.07 472.01,503.95 473.64,504.84 475.26,505.73 476.88,506.63 478.50,507.54 480.12,508.45 481.75,509.37 483.37,510.29 484.99,511.22 486.61,512.15 488.24,513.10 489.86,514.04 491.48,515.00 493.10,515.94 494.72,515.02 496.35,514.10 497.97,513.18 499.59,512.25 501.21,511.31 502.83,510.38 504.46,509.43 506.08,508.48 507.70,507.53 509.32,506.58 510.94,505.61 512.57,504.65 514.19,503.68 515.81,502.70 517.43,501.72 519.06,500.74 520.68,499.75 522.30,498.75 523.92,497.75 525.54,496.75 527.17,495.74 528.79,494.73 530.41,493.71 532.03,492.69 533.65,491.66 535.28,490.63 536.90,489.60 538.52,488.56 540.14,487.51 541.76,486.46 543.39,485.41 545.01,484.35 546.63,483.29 548.25,482.22 549.88,481.14 551.50,480.07 553.12,478.99 554.74,477.90 556.36,476.81 557.99,475.71 559.61,474.61 561.23,473.51 562.85,472.40 564.47,471.28 566.10,470.16 567.72,469.04 569.34,467.91 570.96,466.78 572.58,465.64 574.21,464.50 575.83,463.35 577.45,462.20 579.07,461.05 580.70,459.89 582.32,458.72 583.94,457.55 585.56,456.38 587.18,455.20 588.81,454.02 590.43,452.83 592.05,451.63 593.67,450.44 595.29,449.24 596.92,448.03 598.54,446.82 600.16,445.60 601.78,444.38 603.41,443.16 605.03,441.93 606.65,440.69 608.27,439.45 609.89,438.21 611.52,436.96 613.14,435.71 614.76,434.45 616.38,433.19 618.00,431.92 619.63,430.65 621.25,429.38 622.87,428.10 624.49,426.81 626.11,425.52 627.74,424.23 629.36,422.93 630.98,421.62 632.60,420.32 634.23,419.00 635.85,417.68 637.47,416.36 639.09,415.04 640.71,413.70 642.34,412.37 643.96,411.03 645.58,409.68 647.20,408.33 648.82,406.98 650.45,405.62 652.07,404.26 653.69,402.89 655.31,401.52 656.93,400.14 658.56,398.76 660.18,397.37 661.80,395.98 663.42,394.58 665.05,393.18 666.67,391.78 668.29,390.37 669.91,388.95 671.53,387.53 673.16,386.11 674.78,384.68 676.40,383.25 678.02,381.81 679.64,380.37 681.27,378.92 682.89,377.47 684.51,376.01 686.13,374.55 687.75,373.09 689.38,371.62 691.00,370.14 692.62,368.66 694.24,367.18 695.87,365.69 697.49,364.20 699.11,362.70 700.73,361.20 702.35,359.69 703.98,358.18 705.60,356.67 707.22,355.14 708.84,353.62 710.46,352.09 712.09,350.55 713.71,349.02 715.33,347.47 716.95,345.92 718.58,344.37 720.20,342.81 721.82,341.25 723.44,339.68 725.06,338.11 726.69,336.54 728.31,334.96 729.93,333.37 731.55,331.78 733.17,330.19 734.80,328.59 736.42,326.98 738.04,325.37 739.66,323.76 741.28,322.14 742.91,320.52 744.53,318.89 746.15,317.26 747.77,315.63 749.40,313.99 751.02,312.34 752.64,310.69 754.26,309.04 755.88,307.38 757.51,305.71 759.13,304.04 760.75,302.37 762.37,300.69 763.99,299.01 765.62,297.32 767.24,295.63 768.86,293.94 770.48,292.24 772.10,290.53 773.73,288.82 775.35,287.10 776.97,285.39 778.59,283.66 780.22,281.93 781.84,280.20 783.46,278.46 785.08,276.72 786.70,274.97 788.33,273.22 789.95,271.47 791.57,269.70 793.19,267.94 794.81,266.17 796.44,264.39 798.06,262.61 799.68,260.83 801.30,259.04 802.92,257.25 804.55,255.45 806.17,253.65 807.79,251.84 809.41,250.03 811.04,248.21 812.66,246.39 814.28,244.57 815.90,242.74 817.52,240.90 819.15,239.06 820.77,237.22 822.39,235.37 824.01,233.52 825.63,231.66 827.26,229.80 828.88,227.93 830.50,226.06 832.12,224.18 833.75,222.30 835.37,220.41 836.99,218.52 838.61,216.63 840.23,214.73 841.86,212.83 843.48,210.92 845.10,209.00 846.72,207.09 848.34,205.16 849.97,203.24 851.59,201.31 853.21,199.37 854.83,197.43 856.45,195.48 858.08,193.53 859.70,191.58 861.32,189.62 862.94,187.65 864.57,185.68 866.19,183.71 867.81,181.73 869.43,179.75 871.05,177.76 872.68,175.77 874.30,173.78 875.92,171.77 877.54,169.77 879.16,167.76 880.79,165.74 882.41,163.72 884.03,161.70 885.65,159.67 887.27,157.64 888.90,155.60 890.52,153.56 892.14,151.51 893.76,149.46 895.39,147.40 897.01,145.34 898.63,143.27 900.25,141.20 901.87,139.13 903.50,137.05 905.12,134.97 906.74,132.88 908.36,130.78 909.98,128.69 911.61,126.58 913.23,124.48 914.85,122.36 916.47,120.25 918.09,118.13 919.72,116.00" fill="none" stroke="#5f3dc4" stroke-width="2.6" stroke-dasharray="5,4"/>
  <circle cx="110.28" cy="455.82" r="4.4" fill="#111827"/>
  <text x="117.28" y="448.82" font-size="11" font-family="Arial" fill="#111827">P0</text>
  <circle cx="288.32" cy="442.23" r="4.4" fill="#111827"/>
  <text x="295.32" y="435.23" font-size="11" font-family="Arial" fill="#111827">P1</text>
  <circle cx="493.09" cy="515.95" r="4.4" fill="#111827"/>
  <text x="500.09" y="508.95" font-size="11" font-family="Arial" fill="#111827">P2</text>
  <circle cx="792.04" cy="269.20" r="4.4" fill="#111827"/>
  <text x="799.04" y="262.20" font-size="11" font-family="Arial" fill="#111827">P3</text>
  <circle cx="919.72" cy="116.00" r="4.4" fill="#111827"/>
  <text x="926.72" y="109.00" font-size="11" font-family="Arial" fill="#111827">P4</text>
  <line x1="96.00" y1="82.00" x2="124.00" y2="82.00" stroke="#0b7285" stroke-width="2.6"/>
  <text x="132.00" y="86.00" font-size="12" font-family="Arial" fill="#1f2933">Лагранж</text>
  <line x1="96.00" y1="104.00" x2="124.00" y2="104.00" stroke="#d9480f" stroke-width="2.6" stroke-dasharray="8,5"/>
  <text x="132.00" y="108.00" font-size="12" font-family="Arial" fill="#1f2933">Ньютон</text>
  <line x1="96.00" y1="126.00" x2="124.00" y2="126.00" stroke="#2f9e44" stroke-width="2.6"/>
  <text x="132.00" y="130.00" font-size="12" font-family="Arial" fill="#1f2933">Линейный сплайн</text>
  <line x1="96.00" y1="148.00" x2="124.00" y2="148.00" stroke="#5f3dc4" stroke-width="2.6" stroke-dasharray="5,4"/>
  <text x="132.00" y="152.00" font-size="12" font-family="Arial" fill="#1f2933">Квадратичный сплайн</text>
  <text x="954.00" y="533.57" font-size="16" font-family="Arial" fill="#1f2933">x</text>
  <text x="94.00" y="54.00" font-size="16" font-family="Arial" fill="#1f2933">y</text>
</svg>