<svg xmlns="http://www.w3.org/2000/svg" width="980" height="640" viewBox="0 0 980 640">
  <rect x="0" y="0" width="980" height="640" fill="white"/>
  <text x="490" y="34" text-anchor="middle" font-size="24" font-family="Arial" fill="#1f2933">Многочлен Лагранжа</text>
  <line x1="96.15" y1="68.00" x2="96.15" y2="564.00" stroke="#eceff3" stroke-width="1"/>
  <text x="96.15" y="586.00" text-anchor="middle" font-size="12" font-family="Arial" fill="#4b5563">2</text>
  <line x1="214.92" y1="68.00" x2="214.92" y2="564.00" stroke="#eceff3" stroke-width="1"/>
  <text x="214.92" y="586.00" text-anchor="middle" font-size="12" font-family="Arial" fill="#4b5563">3</text>
  <line x1="333.69" y1="68.00" x2="333.69" y2="564.00" stroke="#eceff3" stroke-width="1"/>
  <text x="333.69" y="586.00" text-anchor="middle" font-size="12" font-family="Arial" fill="#4b5563">4</text>
  <line x1="452.47" y1="68.00" x2="452.47" y2="564.00" stroke="#eceff3" stroke-width="1"/>
  <text x="452.47" y="586.00" text-anchor="middle" font-size="12" font-family="Arial" fill="#4b5563">5</text>
  <line x1="571.24" y1="68.00" x2="571.24" y2="564.00" stroke="#eceff3" stroke-width="1"/>
  <text x="571.24" y="586.00" text-anchor="middle" font-size="12" font-family="Arial" fill="#4b5563">6</text>
  <line x1="690.01" y1="68.00" x2="690.01" y2="564.00" stroke="#eceff3" stroke-width="1"/>
  <text x="690.01" y="586.00" text-anchor="middle" font-size="12" font-family="Arial" fill="#4b5563">7</text>
  <line x1="808.78" y1="68.00" x2="808.78" y2="564.00" stroke="#eceff3" stroke-width="1"/>
  <text x="808.78" y="586.00" text-anchor="middle" font-size="12" font-family="Arial" fill="#4b5563">8</text>
  <line x1="927.56" y1="68.00" x2="927.56" y2="564.00" stroke="#eceff3" stroke-width="1"/>
  <text x="927.56" y="586.00" text-anchor="middle" font-size="12" font-family="Arial" fill="#4b5563">9</text>
  <line x1="86.00" y1="528.57" x2="944.00" y2="528.57" stroke="#eceff3" stroke-width="1"/>
  <text x="74.00" y="532.57" text-anchor="end" font-size="12" font-family="Arial" fill="#4b5563">0</text>
  <line x1="86.00" y1="408.32" x2="944.00" y2="408.32" stroke="#eceff3" stroke-width="1"/>
  <text x="74.00" y="412.32" text-anchor="end" font-size="12" font-family="Arial" fill="#4b5563">1</text>
  <line x1="86.00" y1="288.08" x2="944.00" y2="288.08" stroke="#eceff3" stroke-width="1"/>
  <text x="74.00" y="292.08" text-anchor="end" font-size="12" font-family="Arial" fill="#4b5563">2</text>
  <line x1="86.00" y1="167.83" x2="944.00" y2="167.83" stroke="#eceff3" stroke-width="1"/>
  <text x="74.00" y="171.83" text-anchor="end" font-size="12" font-family="Arial" fill="#4b5563">3</text>
  <line x1="86.00" y1="528.57" x2="944.00" y2="528.57" stroke="#5c6670" stroke-width="1.4"/>
  <line x1="86.00" y1="68.00" x2="86.00" y2="564.00" stroke="#5c6670" stroke-width="1.4"/>
  <polyline points="110.28,455.82 111.91,454.13 113.53,452.48 115.15,450.87 116.77,449.31 118.39,447.78 120.02,446.30 121.64,444.85 123.26,443.45 124.88,442.09 126.50,440.76 128.13,439.47 129.75,438.23 131.37,437.02 132.99,435.85 134.61,434.71 136.24,433.61 137.86,432.55 139.48,431.52 141.10,430.53 142.73,429.58 144.35,428.66 145.97,427.77 147.59,426.92 149.21,426.10 150.84,425.32 152.46,424.57 154.08,423.85 155.70,423.16 157.32,422.50 158.95,421.88 160.57,421.29 162.19,420.72 163.81,420.19 165.43,419.69 167.06,419.21 168.68,418.77 170.30,418.35 171.92,417.96 173.55,417.60 175.17,417.27 176.79,416.97 178.41,416.69 180.03,416.44 181.66,416.21 183.28,416.01 184.90,415.84 186.52,415.69 188.14,415.56 189.77,415.46 191.39,415.39 193.01,415.34 194.63,415.31 196.25,415.30 197.88,415.32 199.50,415.36 201.12,415.42 202.74,415.50 204.37,415.60 205.99,415.73 207.61,415.87 209.23,416.04 210.85,416.22 212.48,416.43 214.10,416.65 215.72,416.89 217.34,417.16 218.96,417.44 220.59,417.73 222.21,418.05 223.83,418.38 225.45,418.73 227.08,419.10 228.70,419.48 230.32,419.88 231.94,420.29 233.56,420.73 235.19,421.17 236.81,421.63 238.43,422.11 240.05,422.59 241.67,423.10 243.30,423.61 244.92,424.14 246.54,424.69 248.16,425.24 249.78,425.81 251.41,426.39 253.03,426.98 254.65,427.58 256.27,428.20 257.90,428.82 259.52,429.46 261.14,430.11 262.76,430.76 264.38,431.43 266.01,432.11 267.63,432.79 269.25,433.49 270.87,434.19 272.49,434.90 274.12,435.62 275.74,436.35 277.36,437.09 278.98,437.83 280.60,438.58 282.23,439.33 283.85,440.10 285.47,440.87 287.09,441.64 288.72,442.42 290.34,443.21 291.96,444.00 293.58,444.80 295.20,445.60 296.83,446.41 298.45,447.22 300.07,448.04 301.69,448.85 303.31,449.68 304.94,450.50 306.56,451.33 308.18,452.16 309.80,453.00 311.42,453.83 313.05,454.67 314.67,455.51 316.29,456.35 317.91,457.20 319.54,458.04 321.16,458.89 322.78,459.73 324.40,460.58 326.02,461.43 327.65,462.27 329.27,463.12 330.89,463.97 332.51,464.81 334.13,465.66 335.76,466.50 337.38,467.35 339.00,468.19 340.62,469.03 342.25,469.86 343.87,470.70 345.49,471.53 347.11,472.36 348.73,473.19 350.36,474.02 351.98,474.84 353.60,475.66 355.22,476.48 356.84,477.29 358.47,478.10 360.09,478.90 361.71,479.70 363.33,480.49 364.95,481.29 366.58,482.07 368.20,482.85 369.82,483.63 371.44,484.40 373.07,485.16 374.69,485.92 376.31,486.68 377.93,487.42 379.55,488.16 381.18,488.90 382.80,489.63 384.42,490.35 386.04,491.06 387.66,491.77 389.29,492.47 390.91,493.16 392.53,493.85 394.15,494.53 395.77,495.20 397.40,495.86 399.02,496.51 400.64,497.16 402.26,497.79 403.89,498.42 405.51,499.04 407.13,499.65 408.75,500.25 410.37,500.84 412.00,501.43 413.62,502.00 415.24,502.56 416.86,503.12 418.48,503.66 420.11,504.20 421.73,504.72 423.35,505.23 424.97,505.74 426.59,506.23 428.22,506.71 429.84,507.18 431.46,507.64 433.08,508.09 434.71,508.53 436.33,508.95 437.95,509.37 439.57,509.77 441.19,510.16 442.82,510.54 444.44,510.91 446.06,511.27 447.68,511.61 449.30,511.94 450.93,512.26 452.55,512.57 454.17,512.87 455.79,513.15 457.42,513.42 459.04,513.67 460.66,513.92 462.28,514.15 463.90,514.37 465.53,514.57 467.15,514.76 468.77,514.94 470.39,515.10 472.01,515.25 473.64,515.39 475.26,515.51 476.88,515.62 478.50,515.72 480.12,515.80 481.75,515.87 483.37,515.92 484.99,515.96 486.61,515.99 488.24,516.00 489.86,516.00 491.48,515.98 493.10,515.95 494.72,515.90 496.35,515.84 497.97,515.76 499.59,515.67 501.21,515.57 502.83,515.45 504.46,515.31 506.08,515.16 507.70,515.00 509.32,514.81 510.94,514.62 512.57,514.41 514.19,514.18 515.81,513.94 517.43,513.68 519.06,513.41 520.68,513.13 522.30,512.82 523.92,512.51 525.54,512.17 527.17,511.82 528.79,511.46 530.41,511.08 532.03,510.68 533.65,510.27 535.28,509.84 536.90,509.40 538.52,508.94 540.14,508.47 541.76,507.98 543.39,507.47 545.01,506.95 546.63,506.41 548.25,505.86 549.88,505.29 551.50,504.71 553.12,504.11 554.74,503.49 556.36,502.86 557.99,502.21 559.61,501.55 561.23,500.87 562.85,500.17 564.47,499.46 566.10,498.73 567.72,497.99 569.34,497.23 570.96,496.45 572.58,495.66 574.21,494.86 575.83,494.03 577.45,493.20 579.07,492.34 580.70,491.47 582.32,490.59 583.94,489.69 585.56,488.77 587.18,487.84 588.81,486.89 590.43,485.92 592.05,484.94 593.67,483.95 595.29,482.94 596.92,481.91 598.54,480.87 600.16,479.81 601.78,478.74 603.41,477.66 605.03,476.55 606.65,475.43 608.27,474.30 609.89,473.15 611.52,471.99 613.14,470.81 614.76,469.62 616.38,468.41 618.00,467.18 619.63,465.94 621.25,464.69 622.87,463.42 624.49,462.14 626.11,460.84 627.74,459.53 629.36,458.20 630.98,456.86 632.60,455.51 634.23,454.14 635.85,452.75 637.47,451.35 639.09,449.94 640.71,448.51 642.34,447.07 643.96,445.62 645.58,444.15 647.20,442.67 648.82,441.17 650.45,439.67 652.07,438.14 653.69,436.61 655.31,435.06 656.93,433.50 658.56,431.92 660.18,430.33 661.80,428.73 663.42,427.12 665.05,425.49 666.67,423.85 668.29,422.20 669.91,420.53 671.53,418.85 673.16,417.17 674.78,415.46 676.40,413.75 678.02,412.02 679.64,410.29 681.27,408.54 682.89,406.78 684.51,405.01 686.13,403.22 687.75,401.43 689.38,399.62 691.00,397.81 692.62,395.98 694.24,394.14 695.87,392.29 697.49,390.43 699.11,388.56 700.73,386.68 702.35,384.79 703.98,382.89 705.60,380.98 707.22,379.06 708.84,377.14 710.46,375.20 712.09,373.25 713.71,371.29 715.33,369.33 716.95,367.35 718.58,365.37 720.20,363.38 721.82,361.38 723.44,359.37 725.06,357.35 726.69,355.33 728.31,353.30 729.93,351.26 731.55,349.21 733.17,347.16 734.80,345.09 736.42,343.03 738.04,340.95 739.66,338.87 741.28,336.78 742.91,334.69 744.53,332.58 746.15,330.48 747.77,328.36 749.40,326.25 751.02,324.12 752.64,321.99 754.26,319.86 755.88,317.72 757.51,315.58 759.13,313.43 760.75,311.28 762.37,309.12 763.99,306.96 765.62,304.80 767.24,302.63 768.86,300.46 770.48,298.29 772.10,296.11 773.73,293.93 775.35,291.75 776.97,289.56 778.59,287.38 780.22,285.19 781.84,283.00 783.46,280.80 785.08,278.61 786.70,276.42 788.33,274.22 789.95,272.03 791.57,269.83 793.19,267.63 794.81,265.44 796.44,263.24 798.06,261.04 799.68,258.85 801.30,256.65 802.92,254.46 804.55,252.27 806.17,250.08 807.79,247.89 809.41,245.70 811.04,243.52 812.66,241.33 814.28,239.15 815.90,236.98 817.52,234.81 819.15,232.64 820.77,230.47 822.39,228.31 824.01,226.15 825.63,224.00 827.26,221.85 828.88,219.70 830.50,217.57 832.12,215.43 833.75,213.30 835.37,211.18 836.99,209.07 838.61,206.96 840.23,204.86 841.86,202.76 843.48,200.67 845.10,198.59 846.72,196.52 848.34,194.46 849.97,192.40 851.59,190.35 853.21,188.32 854.83,186.29 856.45,184.27 858.08,182.26 859.70,180.26 861.32,178.27 862.94,176.29 864.57,174.32 866.19,172.36 867.81,170.42 869.43,168.48 871.05,166.56 872.68,164.65 874.30,162.75 875.92,160.87 877.54,159.00 879.16,157.14 880.79,155.30 882.41,153.47 884.03,151.65 885.65,149.85 887.27,148.07 888.90,146.30 890.52,144.54 892.14,142.80 893.76,141.08 895.39,139.38 897.01,137.69 898.63,136.02 900.25,134.36 901.87,132.73 903.50,131.11 905.12,129.51 906.74,127.93 908.36,126.37 909.98,124.82 911.61,123.30 913.23,121.80 914.85,120.32 916.47,118.86 918.09,117.42 919.72,116.00" fill="none" stroke="#0b7285" stroke-width="2.6"/>
  <circle cx="110.28" cy="455.82" r="4.4" fill="#111827"/>
  <text x="117.28" y="448.82" font-size="11" font-family="Arial" fill="#111827">P0</text>
  <circle cx="288.32" cy="442.23" r="4.4" fill="#111827"/>
  <text x="295.32" y="435.23" font-size="11" font-family="Arial" fill="#111827">P1</text>
  <circle cx="493.09" cy="515.95" r="4.4" fill="#111827"/>
  <text x="500.09" y="508.95" font-size="11" font-family="Arial" fill="#111827">P2</text>
  <circle cx="792.04" cy="269.20" r="4.4" fill="#111827"/>
  <text x="799.04" y="262.20" font-size="11" font-family="Arial" fill="#111827">P3</text>
  <circle cx="919.72" cy="116.00" r="4.4" fill="#111827"/>
  <text x="926.72" y="109.00" font-size="11" font-family="Arial" fill="#111827">P4</text>
  <line x1="96.00" y1="82.00" x2="124.00" y2="82.00" stroke="#0b7285" stroke-width="2.6"/>
  <text x="132.00" y="86.00" font-size="12" font-family="Arial" fill="#1f2933">Лагранж</text>
  <text x="954.00" y="533.57" font-size="16" font-family="Arial" fill="#1f2933">x</text>
  <text x="94.00" y="54.00" font-size="16" font-family="Arial" fill="#1f2933">y</text>
</svg>