<svg xmlns="http://www.w3.org/2000/svg" width="980" height="640" viewBox="0 0 980 640">
  <rect x="0" y="0" width="980" height="640" fill="white"/>
  <text x="490" y="34" text-anchor="middle" font-size="24" font-family="Arial" fill="#1f2933">Линейный интерполяционный сплайн</text>
  <line x1="96.15" y1="68.00" x2="96.15" y2="564.00" stroke="#eceff3" stroke-width="1"/>
  <text x="96.15" y="586.00" text-anchor="middle" font-size="12" font-family="Arial" fill="#4b5563">2</text>
  <line x1="214.92" y1="68.00" x2="214.92" y2="564.00" stroke="#eceff3" stroke-width="1"/>
  <text x="214.92" y="586.00" text-anchor="middle" font-size="12" font-family="Arial" fill="#4b5563">3</text>
  <line x1="333.69" y1="68.00" x2="333.69" y2="564.00" stroke="#eceff3" stroke-width="1"/>
  <text x="333.69" y="586.00" text-anchor="middle" font-size="12" font-family="Arial" fill="#4b5563">4</text>
  <line x1="452.47" y1="68.00" x2="452.47" y2="564.00" stroke="#eceff3" stroke-width="1"/>
  <text x="452.47" y="586.00" text-anchor="middle" font-size="12" font-family="Arial" fill="#4b5563">5</text>
  <line x1="571.24" y1="68.00" x2="571.24" y2="564.00" stroke="#eceff3" stroke-width="1"/>
  <text x="571.24" y="586.00" text-anchor="middle" font-size="12" font-family="Arial" fill="#4b5563">6</text>
  <line x1="690.01" y1="68.00" x2="690.01" y2="564.00" stroke="#eceff3" stroke-width="1"/>
  <text x="690.01" y="586.00" text-anchor="middle" font-size="12" font-family="Arial" fill="#4b5563">7</text>
  <line x1="808.78" y1="68.00" x2="808.78" y2="564.00" stroke="#eceff3" stroke-width="1"/>
  <text x="808.78" y="586.00" text-anchor="middle" font-size="12" font-family="Arial" fill="#4b5563">8</text>
  <line x1="927.56" y1="68.00" x2="927.56" y2="564.00" stroke="#eceff3" stroke-width="1"/>
  <text x="927.56" y="586.00" text-anchor="middle" font-size="12" font-family="Arial" fill="#4b5563">9</text>
  <line x1="86.00" y1="528.63" x2="944.00" y2="528.63" stroke="#eceff3" stroke-width="1"/>
  <text x="74.00" y="532.63" text-anchor="end" font-size="12" font-family="Arial" fill="#4b5563">0</text>
  <line x1="86.00" y1="408.36" x2="944.00" y2="408.36" stroke="#eceff3" stroke-width="1"/>
  <text x="74.00" y="412.36" text-anchor="end" font-size="12" font-family="Arial" fill="#4b5563">1</text>
  <line x1="86.00" y1="288.10" x2="944.00" y2="288.10" stroke="#eceff3" stroke-width="1"/>
  <text x="74.00" y="292.10" text-anchor="end" font-size="12" font-family="Arial" fill="#4b5563">2</text>
  <line x1="86.00" y1="167.83" x2="944.00" y2="167.83" stroke="#eceff3" stroke-width="1"/>
  <text x="74.00" y="171.83" text-anchor="end" font-size="12" font-family="Arial" fill="#4b5563">3</text>
  <line x1="86.00" y1="528.63" x2="944.00" y2="528.63" stroke="#5c6670" stroke-width="1.4"/>
  <line x1="86.00" y1="68.00" x2="86.00" y2="564.00" stroke="#5c6670" stroke-width="1.4"/>
  <polyline points="110.28,455.87 111.91,455.74 113.53,455.62 115.15,455.50 116.77,455.37 118.39,455.25 120.02,455.12 121.64,455.00 123.26,454.88 124.88,454.75 126.50,454.63 128.13,454.51 129.75,454.38 131.37,454.26 132.99,454.13 134.61,454.01 136.24,453.89 137.86,453.76 139.48,453.64 141.10,453.52 142.73,453.39 144.35,453.27 145.97,453.14 147.59,453.02 149.21,452.90 150.84,452.77 152.46,452.65 154.08,452.52 155.70,452.40 157.32,452.28 158.95,452.15 160.57,452.03 162.19,451.91 163.81,451.78 165.43,451.66 167.06,451.53 168.68,451.41 170.30,451.29 171.92,451.16 173.55,451.04 175.17,450.92 176.79,450.79 178.41,450.67 180.03,450.54 181.66,450.42 183.28,450.30 184.90,450.17 186.52,450.05 188.14,449.92 189.77,449.80 191.39,449.68 193.01,449.55 194.63,449.43 196.25,449.31 197.88,449.18 199.50,449.06 201.12,448.93 202.74,448.81 204.37,448.69 205.99,448.56 207.61,448.44 209.23,448.31 210.85,448.19 212.48,448.07 214.10,447.94 215.72,447.82 217.34,447.70 218.96,447.57 220.59,447.45 222.21,447.32 223.83,447.20 225.45,447.08 227.08,446.95 228.70,446.83 230.32,446.71 231.94,446.58 233.56,446.46 235.19,446.33 236.81,446.21 238.43,446.09 240.05,445.96 241.67,445.84 243.30,445.71 244.92,445.59 246.54,445.47 248.16,445.34 249.78,445.22 251.41,445.10 253.03,444.97 254.65,444.85 256.27,444.72 257.90,444.60 259.52,444.48 261.14,444.35 262.76,444.23 264.38,444.11 266.01,443.98 267.63,443.86 269.25,443.73 270.87,443.61 272.49,443.49 274.12,443.36 275.74,443.24 277.36,443.11 278.98,442.99 280.60,442.87 282.23,442.74 283.85,442.62 285.47,442.50 287.09,442.37 288.72,442.42 290.34,443.00 291.96,443.59 293.58,444.17 295.20,444.76 296.83,445.34 298.45,445.92 300.07,446.51 301.69,447.09 303.31,447.68 304.94,448.26 306.56,448.84 308.18,449.43 309.80,450.01 311.42,450.60 313.05,451.18 314.67,451.76 316.29,452.35 317.91,452.93 319.54,453.52 321.16,454.10 322.78,454.68 324.40,455.27 326.02,455.85 327.65,456.44 329.27,457.02 330.89,457.60 332.51,458.19 334.13,458.77 335.76,459.36 337.38,459.94 339.00,460.52 340.62,461.11 342.25,461.69 343.87,462.28 345.49,462.86 347.11,463.44 348.73,464.03 350.36,464.61 351.98,465.20 353.60,465.78 355.22,466.36 356.84,466.95 358.47,467.53 360.09,468.12 361.71,468.70 363.33,469.28 364.95,469.87 366.58,470.45 368.20,471.04 369.82,471.62 371.44,472.20 373.07,472.79 374.69,473.37 376.31,473.96 377.93,474.54 379.55,475.12 381.18,475.71 382.80,476.29 384.42,476.88 386.04,477.46 387.66,478.04 389.29,478.63 390.91,479.21 392.53,479.80 394.15,480.38 395.77,480.96 397.40,481.55 399.02,482.13 400.64,482.72 402.26,483.30 403.89,483.88 405.51,484.47 407.13,485.05 408.75,485.64 410.37,486.22 412.00,486.80 413.62,487.39 415.24,487.97 416.86,488.56 418.48,489.14 420.11,489.72 421.73,490.31 423.35,490.89 424.97,491.48 426.59,492.06 428.22,492.64 429.84,493.23 431.46,493.81 433.08,494.40 434.71,494.98 436.33,495.56 437.95,496.15 439.57,496.73 441.19,497.32 442.82,497.90 444.44,498.48 446.06,499.07 447.68,499.65 449.30,500.24 450.93,500.82 452.55,501.40 454.17,501.99 455.79,502.57 457.42,503.16 459.04,503.74 460.66,504.33 462.28,504.91 463.90,505.49 465.53,506.08 467.15,506.66 468.77,507.25 470.39,507.83 472.01,508.41 473.64,509.00 475.26,509.58 476.88,510.17 478.50,510.75 480.12,511.33 481.75,511.92 483.37,512.50 484.99,513.09 486.61,513.67 488.24,514.25 489.86,514.84 491.48,515.42 493.10,515.99 494.72,514.65 496.35,513.31 497.97,511.97 499.59,510.63 501.21,509.29 502.83,507.95 504.46,506.61 506.08,505.28 507.70,503.94 509.32,502.60 510.94,501.26 512.57,499.92 514.19,498.58 515.81,497.24 517.43,495.90 519.06,494.56 520.68,493.22 522.30,491.88 523.92,490.55 525.54,489.21 527.17,487.87 528.79,486.53 530.41,485.19 532.03,483.85 533.65,482.51 535.28,481.17 536.90,479.83 538.52,478.49 540.14,477.16 541.76,475.82 543.39,474.48 545.01,473.14 546.63,471.80 548.25,470.46 549.88,469.12 551.50,467.78 553.12,466.44 554.74,465.10 556.36,463.76 557.99,462.43 559.61,461.09 561.23,459.75 562.85,458.41 564.47,457.07 566.10,455.73 567.72,454.39 569.34,453.05 570.96,451.71 572.58,450.37 574.21,449.04 575.83,447.70 577.45,446.36 579.07,445.02 580.70,443.68 582.32,442.34 583.94,441.00 585.56,439.66 587.18,438.32 588.81,436.98 590.43,435.64 592.05,434.31 593.67,432.97 595.29,431.63 596.92,430.29 598.54,428.95 600.16,427.61 601.78,426.27 603.41,424.93 605.03,423.59 606.65,422.25 608.27,420.91 609.89,419.58 611.52,418.24 613.14,416.90 614.76,415.56 616.38,414.22 618.00,412.88 619.63,411.54 621.25,410.20 622.87,408.86 624.49,407.52 626.11,406.19 627.74,404.85 629.36,403.51 630.98,402.17 632.60,400.83 634.23,399.49 635.85,398.15 637.47,396.81 639.09,395.47 640.71,394.13 642.34,392.79 643.96,391.46 645.58,390.12 647.20,388.78 648.82,387.44 650.45,386.10 652.07,384.76 653.69,383.42 655.31,382.08 656.93,380.74 658.56,379.40 660.18,378.07 661.80,376.73 663.42,375.39 665.05,374.05 666.67,372.71 668.29,371.37 669.91,370.03 671.53,368.69 673.16,367.35 674.78,366.01 676.40,364.67 678.02,363.34 679.64,362.00 681.27,360.66 682.89,359.32 684.51,357.98 686.13,356.64 687.75,355.30 689.38,353.96 691.00,352.62 692.62,351.28 694.24,349.95 695.87,348.61 697.49,347.27 699.11,345.93 700.73,344.59 702.35,343.25 703.98,341.91 705.60,340.57 707.22,339.23 708.84,337.89 710.46,336.55 712.09,335.22 713.71,333.88 715.33,332.54 716.95,331.20 718.58,329.86 720.20,328.52 721.82,327.18 723.44,325.84 725.06,324.50 726.69,323.16 728.31,321.83 729.93,320.49 731.55,319.15 733.17,317.81 734.80,316.47 736.42,315.13 738.04,313.79 739.66,312.45 741.28,311.11 742.91,309.77 744.53,308.43 746.15,307.10 747.77,305.76 749.40,304.42 751.02,303.08 752.64,301.74 754.26,300.40 755.88,299.06 757.51,297.72 759.13,296.38 760.75,295.04 762.37,293.71 763.99,292.37 765.62,291.03 767.24,289.69 768.86,288.35 770.48,287.01 772.10,285.67 773.73,284.33 775.35,282.99 776.97,281.65 778.59,280.31 780.22,278.98 781.84,277.64 783.46,276.30 785.08,274.96 786.70,273.62 788.33,272.28 789.95,270.94 791.57,269.60 793.19,267.83 794.81,265.88 796.44,263.94 798.06,261.99 799.68,260.04 801.30,258.10 802.92,256.15 804.55,254.20 806.17,252.26 807.79,250.31 809.41,248.36 811.04,246.42 812.66,244.47 814.28,242.53 815.90,240.58 817.52,238.63 819.15,236.69 820.77,234.74 822.39,232.79 824.01,230.85 825.63,228.90 827.26,226.95 828.88,225.01 830.50,223.06 832.12,221.11 833.75,219.17 835.37,217.22 836.99,215.27 838.61,213.33 840.23,211.38 841.86,209.43 843.48,207.49 845.10,205.54 846.72,203.59 848.34,201.65 849.97,199.70 851.59,197.75 853.21,195.81 854.83,193.86 856.45,191.92 858.08,189.97 859.70,188.02 861.32,186.08 862.94,184.13 864.57,182.18 866.19,180.24 867.81,178.29 869.43,176.34 871.05,174.40 872.68,172.45 874.30,170.50 875.92,168.56 877.54,166.61 879.16,164.66 880.79,162.72 882.41,160.77 884.03,158.82 885.65,156.88 887.27,154.93 888.90,152.98 890.52,151.04 892.14,149.09 893.76,147.14 895.39,145.20 897.01,143.25 898.63,141.31 900.25,139.36 901.87,137.41 903.50,135.47 905.12,133.52 906.74,131.57 908.36,129.63 909.98,127.68 911.61,125.73 913.23,123.79 914.85,121.84 916.47,119.89 918.09,117.95 919.72,116.00" fill="none" stroke="#2f9e44" stroke-width="2.6"/>
  <circle cx="110.28" cy="455.87" r="4.4" fill="#111827"/>
  <text x="117.28" y="448.87" font-size="11" font-family="Arial" fill="#111827">P0</text>
  <circle cx="288.32" cy="442.28" r="4.4" fill="#111827"/>
  <text x="295.32" y="435.28" font-size="11" font-family="Arial" fill="#111827">P1</text>
  <circle cx="493.09" cy="516.00" r="4.4" fill="#111827"/>
  <text x="500.09" y="509.00" font-size="11" font-family="Arial" fill="#111827">P2</text>
  <circle cx="792.04" cy="269.22" r="4.4" fill="#111827"/>
  <text x="799.04" y="262.22" font-size="11" font-family="Arial" fill="#111827">P3</text>
  <circle cx="919.72" cy="116.00" r="4.4" fill="#111827"/>
  <text x="926.72" y="109.00" font-size="11" font-family="Arial" fill="#111827">P4</text>
  <line x1="96.00" y1="82.00" x2="124.00" y2="82.00" stroke="#2f9e44" stroke-width="2.6"/>
  <text x="132.00" y="86.00" font-size="12" font-family="Arial" fill="#1f2933">Линейный сплайн</text>
  <text x="954.00" y="533.63" font-size="16" font-family="Arial" fill="#1f2933">x</text>
  <text x="94.00" y="54.00" font-size="16" font-family="Arial" fill="#1f2933">y</text>
</svg>