<svg xmlns="http://www.w3.org/2000/svg" width="980" height="640" viewBox="0 0 980 640">
  <rect x="0" y="0" width="980" height="640" fill="white"/>
  <text x="490" y="34" text-anchor="middle" font-size="24" font-family="Arial" fill="#1f2933">Квадратичный интерполяционный сплайн</text>
  <line x1="96.15" y1="68.00" x2="96.15" y2="564.00" stroke="#eceff3" stroke-width="1"/>
  <text x="96.15" y="586.00" text-anchor="middle" font-size="12" font-family="Arial" fill="#4b5563">2</text>
  <line x1="214.92" y1="68.00" x2="214.92" y2="564.00" stroke="#eceff3" stroke-width="1"/>
  <text x="214.92" y="586.00" text-anchor="middle" font-size="12" font-family="Arial" fill="#4b5563">3</text>
  <line x1="333.69" y1="68.00" x2="333.69" y2="564.00" stroke="#eceff3" stroke-width="1"/>
  <text x="333.69" y="586.00" text-anchor="middle" font-size="12" font-family="Arial" fill="#4b5563">4</text>
  <line x1="452.47" y1="68.00" x2="452.47" y2="564.00" stroke="#eceff3" stroke-width="1"/>
  <text x="452.47" y="586.00" text-anchor="middle" font-size="12" font-family="Arial" fill="#4b5563">5</text>
  <line x1="571.24" y1="68.00" x2="571.24" y2="564.00" stroke="#eceff3" stroke-width="1"/>
  <text x="571.24" y="586.00" text-anchor="middle" font-size="12" font-family="Arial" fill="#4b5563">6</text>
  <line x1="690.01" y1="68.00" x2="690.01" y2="564.00" stroke="#eceff3" stroke-width="1"/>
  <text x="690.01" y="586.00" text-anchor="middle" font-size="12" font-family="Arial" fill="#4b5563">7</text>
  <line x1="808.78" y1="68.00" x2="808.78" y2="564.00" stroke="#eceff3" stroke-width="1"/>
  <text x="808.78" y="586.00" text-anchor="middle" font-size="12" font-family="Arial" fill="#4b5563">8</text>
  <line x1="927.56" y1="68.00" x2="927.56" y2="564.00" stroke="#eceff3" stroke-width="1"/>
  <text x="927.56" y="586.00" text-anchor="middle" font-size="12" font-family="Arial" fill="#4b5563">9</text>
  <line x1="86.00" y1="528.63" x2="944.00" y2="528.63" stroke="#eceff3" stroke-width="1"/>
  <text x="74.00" y="532.63" text-anchor="end" font-size="12" font-family="Arial" fill="#4b5563">0</text>
  <line x1="86.00" y1="408.36" x2="944.00" y2="408.36" stroke="#eceff3" stroke-width="1"/>
  <text x="74.00" y="412.36" text-anchor="end" font-size="12" font-family="Arial" fill="#4b5563">1</text>
  <line x1="86.00" y1="288.10" x2="944.00" y2="288.10" stroke="#eceff3" stroke-width="1"/>
  <text x="74.00" y="292.10" text-anchor="end" font-size="12" font-family="Arial" fill="#4b5563">2</text>
  <line x1="86.00" y1="167.83" x2="944.00" y2="167.83" stroke="#eceff3" stroke-width="1"/>
  <text x="74.00" y="171.83" text-anchor="end" font-size="12" font-family="Arial" fill="#4b5563">3</text>
  <line x1="86.00" y1="528.63" x2="944.00" y2="528.63" stroke="#5c6670" stroke-width="1.4"/>
  <line x1="86.00" y1="68.00" x2="86.00" y2="564.00" stroke="#5c6670" stroke-width="1.4"/>
  <polyline points="110.28,455.87 111.91,455.42 113.53,454.97 115.15,454.54 116.77,454.10 118.39,453.68 120.02,453.26 121.64,452.84 123.26,452.44 124.88,452.03 126.50,451.64 128.13,451.25 129.75,450.86 131.37,450.49 132.99,450.11 134.61,449.75 136.24,449.39 137.86,449.03 139.48,448.69 141.10,448.34 142.73,448.01 144.35,447.68 145.97,447.35 147.59,447.03 149.21,446.72 150.84,446.42 152.46,446.12 154.08,445.82 155.70,445.53 157.32,445.25 158.95,444.98 160.57,444.71 162.19,444.44 163.81,444.18 165.43,443.93 167.06,443.69 168.68,443.45 170.30,443.21 171.92,442.98 173.55,442.76 175.17,442.55 176.79,442.34 178.41,442.13 180.03,441.93 181.66,441.74 183.28,441.56 184.90,441.38 186.52,441.20 188.14,441.03 189.77,440.87 191.39,440.71 193.01,440.56 194.63,440.42 196.25,440.28 197.88,440.15 199.50,440.02 201.12,439.90 202.74,439.79 204.37,439.68 205.99,439.58 207.61,439.48 209.23,439.39 210.85,439.31 212.48,439.23 214.10,439.16 215.72,439.09 217.34,439.03 218.96,438.98 220.59,438.93 222.21,438.89 223.83,438.85 225.45,438.82 227.08,438.80 228.70,438.78 230.32,438.77 231.94,438.76 233.56,438.76 235.19,438.77 236.81,438.78 238.43,438.80 240.05,438.82 241.67,438.85 243.30,438.89 244.92,438.93 246.54,438.98 248.16,439.03 249.78,439.09 251.41,439.16 253.03,439.23 254.65,439.31 256.27,439.39 257.90,439.48 259.52,439.58 261.14,439.68 262.76,439.79 264.38,439.90 266.01,440.02 267.63,440.15 269.25,440.28 270.87,440.42 272.49,440.56 274.12,440.71 275.74,440.86 277.36,441.03 278.98,441.19 280.60,441.37 282.23,441.55 283.85,441.73 285.47,441.93 287.09,442.12 288.72,442.33 290.34,442.54 291.96,442.75 293.58,442.98 295.20,443.20 296.83,443.44 298.45,443.68 300.07,443.92 301.69,444.17 303.31,444.43 304.94,444.70 306.56,444.97 308.18,445.24 309.80,445.52 311.42,445.81 313.05,446.11 314.67,446.41 316.29,446.71 317.91,447.02 319.54,447.34 321.16,447.66 322.78,447.99 324.40,448.33 326.02,448.67 327.65,449.02 329.27,449.37 330.89,449.73 332.51,450.10 334.13,450.47 335.76,450.85 337.38,451.23 339.00,451.62 340.62,452.02 342.25,452.42 343.87,452.83 345.49,453.24 347.11,453.66 348.73,454.09 350.36,454.52 351.98,454.96 353.60,455.40 355.22,455.85 356.84,456.31 358.47,456.77 360.09,457.24 361.71,457.71 363.33,458.19 364.95,458.68 366.58,459.17 368.20,459.66 369.82,460.17 371.44,460.68 373.07,461.19 374.69,461.72 376.31,462.24 377.93,462.78 379.55,463.32 381.18,463.86 382.80,464.41 384.42,464.97 386.04,465.54 387.66,466.11 389.29,466.68 390.91,467.26 392.53,467.85 394.15,468.45 395.77,469.04 397.40,469.65 399.02,470.26 400.64,470.88 402.26,471.50 403.89,472.13 405.51,472.77 407.13,473.41 408.75,474.06 410.37,474.71 412.00,475.37 413.62,476.04 415.24,476.71 416.86,477.39 418.48,478.07 420.11,478.76 421.73,479.46 423.35,480.16 424.97,480.87 426.59,481.58 428.22,482.30 429.84,483.03 431.46,483.76 433.08,484.50 434.71,485.24 436.33,485.99 437.95,486.74 439.57,487.51 441.19,488.27 442.82,489.05 444.44,489.83 446.06,490.61 447.68,491.40 449.30,492.20 450.93,493.01 452.55,493.82 454.17,494.63 455.79,495.45 457.42,496.28 459.04,497.11 460.66,497.95 462.28,498.80 463.90,499.65 465.53,500.51 467.15,501.37 468.77,502.24 470.39,503.12 472.01,504.00 473.64,504.89 475.26,505.78 476.88,506.68 478.50,507.59 480.12,508.50 481.75,509.42 483.37,510.34 484.99,511.27 486.61,512.21 488.24,513.15 489.86,514.10 491.48,515.05 493.10,515.99 494.72,515.08 496.35,514.16 497.97,513.23 499.59,512.30 501.21,511.37 502.83,510.43 504.46,509.48 506.08,508.54 507.70,507.58 509.32,506.63 510.94,505.66 512.57,504.70 514.19,503.73 515.81,502.75 517.43,501.77 519.06,500.79 520.68,499.80 522.30,498.80 523.92,497.80 525.54,496.80 527.17,495.79 528.79,494.78 530.41,493.76 532.03,492.74 533.65,491.71 535.28,490.68 536.90,489.65 538.52,488.61 540.14,487.56 541.76,486.51 543.39,485.46 545.01,484.40 546.63,483.33 548.25,482.27 549.88,481.19 551.50,480.12 553.12,479.03 554.74,477.95 556.36,476.86 557.99,475.76 559.61,474.66 561.23,473.55 562.85,472.44 564.47,471.33 566.10,470.21 567.72,469.09 569.34,467.96 570.96,466.83 572.58,465.69 574.21,464.55 575.83,463.40 577.45,462.25 579.07,461.09 580.70,459.93 582.32,458.77 583.94,457.60 585.56,456.42 587.18,455.24 588.81,454.06 590.43,452.87 592.05,451.68 593.67,450.48 595.29,449.28 596.92,448.07 598.54,446.86 600.16,445.65 601.78,444.42 603.41,443.20 605.03,441.97 606.65,440.73 608.27,439.50 609.89,438.25 611.52,437.00 613.14,435.75 614.76,434.49 616.38,433.23 618.00,431.96 619.63,430.69 621.25,429.42 622.87,428.14 624.49,426.85 626.11,425.56 627.74,424.27 629.36,422.97 630.98,421.66 632.60,420.36 634.23,419.04 635.85,417.72 637.47,416.40 639.09,415.08 640.71,413.74 642.34,412.41 643.96,411.07 645.58,409.72 647.20,408.37 648.82,407.02 650.45,405.66 652.07,404.29 653.69,402.93 655.31,401.55 656.93,400.18 658.56,398.79 660.18,397.41 661.80,396.01 663.42,394.62 665.05,393.22 666.67,391.81 668.29,390.40 669.91,388.99 671.53,387.57 673.16,386.14 674.78,384.72 676.40,383.28 678.02,381.85 679.64,380.40 681.27,378.96 682.89,377.50 684.51,376.05 686.13,374.59 687.75,373.12 689.38,371.65 691.00,370.18 692.62,368.70 694.24,367.21 695.87,365.73 697.49,364.23 699.11,362.73 700.73,361.23 702.35,359.72 703.98,358.21 705.60,356.70 707.22,355.18 708.84,353.65 710.46,352.12 712.09,350.59 713.71,349.05 715.33,347.50 716.95,345.95 718.58,344.40 720.20,342.84 721.82,341.28 723.44,339.71 725.06,338.14 726.69,336.57 728.31,334.98 729.93,333.40 731.55,331.81 733.17,330.21 734.80,328.61 736.42,327.01 738.04,325.40 739.66,323.79 741.28,322.17 742.91,320.55 744.53,318.92 746.15,317.29 747.77,315.65 749.40,314.01 751.02,312.37 752.64,310.72 754.26,309.06 755.88,307.40 757.51,305.74 759.13,304.07 760.75,302.40 762.37,300.72 763.99,299.03 765.62,297.35 767.24,295.66 768.86,293.96 770.48,292.26 772.10,290.55 773.73,288.84 775.35,287.13 776.97,285.41 778.59,283.68 780.22,281.96 781.84,280.22 783.46,278.48 785.08,276.74 786.70,274.99 788.33,273.24 789.95,271.49 791.57,269.72 793.19,267.96 794.81,266.19 796.44,264.41 798.06,262.63 799.68,260.85 801.30,259.06 802.92,257.27 804.55,255.47 806.17,253.67 807.79,251.86 809.41,250.05 811.04,248.23 812.66,246.41 814.28,244.58 815.90,242.75 817.52,240.92 819.15,239.08 820.77,237.23 822.39,235.39 824.01,233.53 825.63,231.67 827.26,229.81 828.88,227.94 830.50,226.07 832.12,224.20 833.75,222.31 835.37,220.43 836.99,218.54 838.61,216.64 840.23,214.74 841.86,212.84 843.48,210.93 845.10,209.02 846.72,207.10 848.34,205.18 849.97,203.25 851.59,201.32 853.21,199.38 854.83,197.44 856.45,195.49 858.08,193.54 859.70,191.59 861.32,189.63 862.94,187.66 864.57,185.69 866.19,183.72 867.81,181.74 869.43,179.76 871.05,177.77 872.68,175.78 874.30,173.78 875.92,171.78 877.54,169.78 879.16,167.77 880.79,165.75 882.41,163.73 884.03,161.71 885.65,159.68 887.27,157.64 888.90,155.60 890.52,153.56 892.14,151.51 893.76,149.46 895.39,147.41 897.01,145.34 898.63,143.28 900.25,141.21 901.87,139.13 903.50,137.05 905.12,134.97 906.74,132.88 908.36,130.79 909.98,128.69 911.61,126.58 913.23,124.48 914.85,122.36 916.47,120.25 918.09,118.13 919.72,116.00" fill="none" stroke="#5f3dc4" stroke-width="2.6" stroke-dasharray="5,4"/>
  <circle cx="110.28" cy="455.87" r="4.4" fill="#111827"/>
  <text x="117.28" y="448.87" font-size="11" font-family="Arial" fill="#111827">P0</text>
  <circle cx="288.32" cy="442.28" r="4.4" fill="#111827"/>
  <text x="295.32" y="435.28" font-size="11" font-family="Arial" fill="#111827">P1</text>
  <circle cx="493.09" cy="516.00" r="4.4" fill="#111827"/>
  <text x="500.09" y="509.00" font-size="11" font-family="Arial" fill="#111827">P2</text>
  <circle cx="792.04" cy="269.22" r="4.4" fill="#111827"/>
  <text x="799.04" y="262.22" font-size="11" font-family="Arial" fill="#111827">P3</text>
  <circle cx="919.72" cy="116.00" r="4.4" fill="#111827"/>
  <text x="926.72" y="109.00" font-size="11" font-family="Arial" fill="#111827">P4</text>
  <line x1="96.00" y1="82.00" x2="124.00" y2="82.00" stroke="#5f3dc4" stroke-width="2.6" stroke-dasharray="5,4"/>
  <text x="132.00" y="86.00" font-size="12" font-family="Arial" fill="#1f2933">Квадратичный сплайн</text>
  <text x="954.00" y="533.63" font-size="16" font-family="Arial" fill="#1f2933">x</text>
  <text x="94.00" y="54.00" font-size="16" font-family="Arial" fill="#1f2933">y</text>
</svg>