<svg xmlns="http://www.w3.org/2000/svg" width="980" height="640" viewBox="0 0 980 640">
  <rect x="0" y="0" width="980" height="640" fill="white"/>
  <line x1="90.00" y1="70.00" x2="90.00" y2="560.00" stroke="#ededed" stroke-width="1"/>
  <text x="90.00" y="582.00" text-anchor="middle" font-size="12" font-family="Arial" fill="#444">-1.50</text>
  <line x1="196.25" y1="70.00" x2="196.25" y2="560.00" stroke="#ededed" stroke-width="1"/>
  <text x="196.25" y="582.00" text-anchor="middle" font-size="12" font-family="Arial" fill="#444">-1.25</text>
  <line x1="302.50" y1="70.00" x2="302.50" y2="560.00" stroke="#ededed" stroke-width="1"/>
  <text x="302.50" y="582.00" text-anchor="middle" font-size="12" font-family="Arial" fill="#444">-1.00</text>
  <line x1="408.75" y1="70.00" x2="408.75" y2="560.00" stroke="#ededed" stroke-width="1"/>
  <text x="408.75" y="582.00" text-anchor="middle" font-size="12" font-family="Arial" fill="#444">-0.75</text>
  <line x1="515.00" y1="70.00" x2="515.00" y2="560.00" stroke="#ededed" stroke-width="1"/>
  <text x="515.00" y="582.00" text-anchor="middle" font-size="12" font-family="Arial" fill="#444">-0.50</text>
  <line x1="621.25" y1="70.00" x2="621.25" y2="560.00" stroke="#ededed" stroke-width="1"/>
  <text x="621.25" y="582.00" text-anchor="middle" font-size="12" font-family="Arial" fill="#444">-0.25</text>
  <line x1="727.50" y1="70.00" x2="727.50" y2="560.00" stroke="#ededed" stroke-width="1"/>
  <text x="727.50" y="582.00" text-anchor="middle" font-size="12" font-family="Arial" fill="#444">0.00</text>
  <line x1="833.75" y1="70.00" x2="833.75" y2="560.00" stroke="#ededed" stroke-width="1"/>
  <text x="833.75" y="582.00" text-anchor="middle" font-size="12" font-family="Arial" fill="#444">0.25</text>
  <line x1="940.00" y1="70.00" x2="940.00" y2="560.00" stroke="#ededed" stroke-width="1"/>
  <text x="940.00" y="582.00" text-anchor="middle" font-size="12" font-family="Arial" fill="#444">0.50</text>
  <line x1="90.00" y1="546.76" x2="940.00" y2="546.76" stroke="#ededed" stroke-width="1"/>
  <text x="78.00" y="550.76" text-anchor="end" font-size="12" font-family="Arial" fill="#444">-2.00</text>
  <line x1="90.00" y1="513.65" x2="940.00" y2="513.65" stroke="#ededed" stroke-width="1"/>
  <text x="78.00" y="517.65" text-anchor="end" font-size="12" font-family="Arial" fill="#444">-1.50</text>
  <line x1="90.00" y1="480.54" x2="940.00" y2="480.54" stroke="#ededed" stroke-width="1"/>
  <text x="78.00" y="484.54" text-anchor="end" font-size="12" font-family="Arial" fill="#444">-1.00</text>
  <line x1="90.00" y1="447.43" x2="940.00" y2="447.43" stroke="#ededed" stroke-width="1"/>
  <text x="78.00" y="451.43" text-anchor="end" font-size="12" font-family="Arial" fill="#444">-0.50</text>
  <line x1="90.00" y1="414.32" x2="940.00" y2="414.32" stroke="#ededed" stroke-width="1"/>
  <text x="78.00" y="418.32" text-anchor="end" font-size="12" font-family="Arial" fill="#444">0.00</text>
  <line x1="90.00" y1="381.22" x2="940.00" y2="381.22" stroke="#ededed" stroke-width="1"/>
  <text x="78.00" y="385.22" text-anchor="end" font-size="12" font-family="Arial" fill="#444">0.50</text>
  <line x1="90.00" y1="348.11" x2="940.00" y2="348.11" stroke="#ededed" stroke-width="1"/>
  <text x="78.00" y="352.11" text-anchor="end" font-size="12" font-family="Arial" fill="#444">1.00</text>
  <line x1="90.00" y1="315.00" x2="940.00" y2="315.00" stroke="#ededed" stroke-width="1"/>
  <text x="78.00" y="319.00" text-anchor="end" font-size="12" font-family="Arial" fill="#444">1.50</text>
  <line x1="90.00" y1="281.89" x2="940.00" y2="281.89" stroke="#ededed" stroke-width="1"/>
  <text x="78.00" y="285.89" text-anchor="end" font-size="12" font-family="Arial" fill="#444">2.00</text>
  <line x1="90.00" y1="248.78" x2="940.00" y2="248.78" stroke="#ededed" stroke-width="1"/>
  <text x="78.00" y="252.78" text-anchor="end" font-size="12" font-family="Arial" fill="#444">2.50</text>
  <line x1="90.00" y1="215.68" x2="940.00" y2="215.68" stroke="#ededed" stroke-width="1"/>
  <text x="78.00" y="219.68" text-anchor="end" font-size="12" font-family="Arial" fill="#444">3.00</text>
  <line x1="90.00" y1="182.57" x2="940.00" y2="182.57" stroke="#ededed" stroke-width="1"/>
  <text x="78.00" y="186.57" text-anchor="end" font-size="12" font-family="Arial" fill="#444">3.50</text>
  <line x1="90.00" y1="149.46" x2="940.00" y2="149.46" stroke="#ededed" stroke-width="1"/>
  <text x="78.00" y="153.46" text-anchor="end" font-size="12" font-family="Arial" fill="#444">4.00</text>
  <line x1="90.00" y1="116.35" x2="940.00" y2="116.35" stroke="#ededed" stroke-width="1"/>
  <text x="78.00" y="120.35" text-anchor="end" font-size="12" font-family="Arial" fill="#444">4.50</text>
  <line x1="90.00" y1="83.24" x2="940.00" y2="83.24" stroke="#ededed" stroke-width="1"/>
  <text x="78.00" y="87.24" text-anchor="end" font-size="12" font-family="Arial" fill="#444">5.00</text>
  <line x1="90.00" y1="414.32" x2="940.00" y2="414.32" stroke="#666" stroke-width="1.4"/>
  <line x1="727.50" y1="70.00" x2="727.50" y2="560.00" stroke="#666" stroke-width="1.4"/>
  <polyline points="90.00,481.90 94.25,481.32 98.50,480.75 102.75,480.17 107.00,479.60 111.25,479.04 115.50,478.48 119.75,477.92 124.00,477.36 128.25,476.81 132.50,476.26 136.75,475.72 141.00,475.17 145.25,474.64 149.50,474.10 153.75,473.58 158.00,473.05 162.25,472.53 166.50,472.01 170.75,471.50 175.00,470.99 179.25,470.49 183.50,469.99 187.75,469.49 192.00,469.00 196.25,468.51 200.50,468.03 204.75,467.55 209.00,467.08 213.25,466.61 217.50,466.15 221.75,465.69 226.00,465.23 230.25,464.79 234.50,464.34 238.75,463.90 243.00,463.47 247.25,463.04 251.50,462.61 255.75,462.19 260.00,461.78 264.25,461.37 268.50,460.97 272.75,460.57 277.00,460.18 281.25,459.79 285.50,459.40 289.75,459.03 294.00,458.66 298.25,458.29 302.50,457.93 306.75,457.57 311.00,457.23 315.25,456.88 319.50,456.54 323.75,456.21 328.00,455.88 332.25,455.56 336.50,455.25 340.75,454.94 345.00,454.64 349.25,454.34 353.50,454.05 357.75,453.76 362.00,453.48 366.25,453.21 370.50,452.94 374.75,452.68 379.00,452.42 383.25,452.18 387.50,451.93 391.75,451.70 396.00,451.47 400.25,451.24 404.50,451.02 408.75,450.81 413.00,450.60 417.25,450.41 421.50,450.21 425.75,450.03 430.00,449.85 434.25,449.67 438.50,449.50 442.75,449.34 447.00,449.19 451.25,449.04 455.50,448.90 459.75,448.76 464.00,448.63 468.25,448.51 472.50,448.40 476.75,448.29 481.00,448.18 485.25,448.09 489.50,448.00 493.75,447.91 498.00,447.84 502.25,447.77 506.50,447.71 510.75,447.65 515.00,447.60 519.25,447.55 523.50,447.52 527.75,447.49 532.00,447.46 536.25,447.45 540.50,447.44 544.75,447.43 549.00,447.44 553.25,447.44 557.50,447.46 561.75,447.48 566.00,447.51 570.25,447.55 574.50,447.59 578.75,447.64 583.00,447.70 587.25,447.76 591.50,447.83 595.75,447.90 600.00,447.98 604.25,448.07 608.50,448.17 612.75,448.27 617.00,448.38 621.25,448.49 625.50,448.61 629.75,448.74 634.00,448.88 638.25,449.02 642.50,449.16 646.75,449.32 651.00,449.48 655.25,449.64 659.50,449.82 663.75,450.00 668.00,450.18 672.25,450.37 676.50,450.57 680.75,450.78 685.00,450.99 689.25,451.21 693.50,451.43 697.75,451.66 702.00,451.89 706.25,452.14 710.50,452.38 714.75,452.64 719.00,452.90 723.25,453.17 727.50,453.44 731.75,453.72 736.00,454.00 740.25,454.29 744.50,454.59 748.75,454.89 753.00,455.20 757.25,455.51 761.50,455.83 765.75,456.16 770.00,456.49 774.25,456.83 778.50,457.17 782.75,457.52 787.00,457.87 791.25,458.23 795.50,458.60 799.75,458.97 804.00,459.34 808.25,459.73 812.50,460.11 816.75,460.51 821.00,460.90 825.25,461.31 829.50,461.71 833.75,462.13 838.00,462.55 842.25,462.97 846.50,463.40 850.75,463.83 855.00,464.27 859.25,464.71 863.50,465.16 867.75,465.62 872.00,466.07 876.25,466.54 880.50,467.01 884.75,467.48 889.00,467.95 893.25,468.44 897.50,468.92 901.75,469.41 906.00,469.91 910.25,470.41 914.50,470.91 918.75,471.42 923.00,471.93 927.25,472.45 931.50,472.97 935.75,473.49 940.00,474.02" fill="none" stroke="#0b7285" stroke-width="2.6"/>
  <polyline points="90.00,281.89 94.25,291.26 98.50,295.16 102.75,298.15 107.00,300.68 111.25,302.92 115.50,304.95 119.75,306.81 124.00,308.56 128.25,310.20 132.50,311.76 136.75,313.24 141.00,314.66 145.25,316.03 149.50,317.35 153.75,318.63 158.00,319.87 162.25,321.07 166.50,322.24 170.75,323.39 175.00,324.50 179.25,325.59 183.50,326.66 187.75,327.71 192.00,328.74 196.25,329.75 200.50,330.74 204.75,331.72 209.00,332.68 213.25,333.63 217.50,334.56 221.75,335.48 226.00,336.39 230.25,337.29 234.50,338.17 238.75,339.05 243.00,339.92 247.25,340.77 251.50,341.62 255.75,342.46 260.00,343.29 264.25,344.12 268.50,344.93 272.75,345.74 277.00,346.55 281.25,347.34 285.50,348.13 289.75,348.92 294.00,349.69 298.25,350.47 302.50,351.23 306.75,352.00 311.00,352.75 315.25,353.51 319.50,354.25 323.75,355.00 328.00,355.74 332.25,356.47 336.50,357.20 340.75,357.93 345.00,358.65 349.25,359.38 353.50,360.09 357.75,360.81 362.00,361.52 366.25,362.23 370.50,362.93 374.75,363.64 379.00,364.34 383.25,365.03 387.50,365.73 391.75,366.42 396.00,367.11 400.25,367.80 404.50,368.49 408.75,369.17 413.00,369.86 417.25,370.54 421.50,371.22 425.75,371.89 430.00,372.57 434.25,373.25 438.50,373.92 442.75,374.59 447.00,375.26 451.25,375.93 455.50,376.60 459.75,377.27 464.00,377.94 468.25,378.61 472.50,379.27 476.75,379.94 481.00,380.60 485.25,381.27 489.50,381.93 493.75,382.59 498.00,383.25 502.25,383.92 506.50,384.58 510.75,385.24 515.00,385.90 519.25,386.57 523.50,387.23 527.75,387.89 532.00,388.55 536.25,389.22 540.50,389.88 544.75,390.54 549.00,391.21 553.25,391.87 557.50,392.54 561.75,393.20 566.00,393.87 570.25,394.54 574.50,395.20 578.75,395.87 583.00,396.54 587.25,397.22 591.50,397.89 595.75,398.56 600.00,399.24 604.25,399.91 608.50,400.59 612.75,401.27 617.00,401.95 621.25,402.64 625.50,403.32 629.75,404.01 634.00,404.70 638.25,405.39 642.50,406.08 646.75,406.77 651.00,407.47 655.25,408.17 659.50,408.88 663.75,409.58 668.00,410.29 672.25,411.00 676.50,411.71 680.75,412.43 685.00,413.15 689.25,413.88 693.50,414.61 697.75,415.34 702.00,416.07 706.25,416.81 710.50,417.56 714.75,418.30 719.00,419.06 723.25,419.81 727.50,420.57 731.75,421.34 736.00,422.11 740.25,422.89 744.50,423.68 748.75,424.47 753.00,425.26 757.25,426.06 761.50,426.87 765.75,427.69 770.00,428.51 774.25,429.35 778.50,430.19 782.75,431.03 787.00,431.89 791.25,432.76 795.50,433.63 799.75,434.52 804.00,435.42 808.25,436.33 812.50,437.25 816.75,438.18 821.00,439.13 825.25,440.09 829.50,441.07 833.75,442.06 838.00,443.07 842.25,444.10 846.50,445.15 850.75,446.21 855.00,447.31 859.25,448.42 863.50,449.57 867.75,450.74 872.00,451.94 876.25,453.18 880.50,454.46 884.75,455.78 889.00,457.14 893.25,458.57 897.50,460.05 901.75,461.61 906.00,463.25 910.25,464.99 914.50,466.86 918.75,468.89 923.00,471.12 927.25,473.66 931.50,476.65 935.75,480.54 940.00,489.92" fill="none" stroke="#c92a2a" stroke-width="2.6"/>
  <polyline points="90.00,281.89 94.25,272.52 98.50,268.63 102.75,265.63 107.00,263.10 111.25,260.86 115.50,258.84 119.75,256.97 124.00,255.23 128.25,253.58 132.50,252.03 136.75,250.54 141.00,249.12 145.25,247.75 149.50,246.43 153.75,245.15 158.00,243.92 162.25,242.71 166.50,241.54 170.75,240.40 175.00,239.28 179.25,238.19 183.50,237.12 187.75,236.07 192.00,235.05 196.25,234.04 200.50,233.04 204.75,232.07 209.00,231.10 213.25,230.16 217.50,229.22 221.75,228.30 226.00,227.39 230.25,226.50 234.50,225.61 238.75,224.73 243.00,223.87 247.25,223.01 251.50,222.16 255.75,221.32 260.00,220.49 264.25,219.67 268.50,218.85 272.75,218.04 277.00,217.24 281.25,216.44 285.50,215.65 289.75,214.87 294.00,214.09 298.25,213.32 302.50,212.55 306.75,211.79 311.00,211.03 315.25,210.28 319.50,209.53 323.75,208.79 328.00,208.05 332.25,207.31 336.50,206.58 340.75,205.85 345.00,205.13 349.25,204.41 353.50,203.69 357.75,202.98 362.00,202.27 366.25,201.56 370.50,200.85 374.75,200.15 379.00,199.45 383.25,198.75 387.50,198.06 391.75,197.36 396.00,196.67 400.25,195.98 404.50,195.30 408.75,194.61 413.00,193.93 417.25,193.25 421.50,192.57 425.75,191.89 430.00,191.21 434.25,190.54 438.50,189.86 442.75,189.19 447.00,188.52 451.25,187.85 455.50,187.18 459.75,186.51 464.00,185.84 468.25,185.18 472.50,184.51 476.75,183.85 481.00,183.18 485.25,182.52 489.50,181.86 493.75,181.19 498.00,180.53 502.25,179.87 506.50,179.20 510.75,178.54 515.00,177.88 519.25,177.22 523.50,176.56 527.75,175.89 532.00,175.23 536.25,174.57 540.50,173.90 544.75,173.24 549.00,172.58 553.25,171.91 557.50,171.25 561.75,170.58 566.00,169.91 570.25,169.25 574.50,168.58 578.75,167.91 583.00,167.24 587.25,166.57 591.50,165.90 595.75,165.22 600.00,164.55 604.25,163.87 608.50,163.19 612.75,162.51 617.00,161.83 621.25,161.15 625.50,160.46 629.75,159.78 634.00,159.09 638.25,158.40 642.50,157.70 646.75,157.01 651.00,156.31 655.25,155.61 659.50,154.91 663.75,154.20 668.00,153.49 672.25,152.78 676.50,152.07 680.75,151.35 685.00,150.63 689.25,149.91 693.50,149.18 697.75,148.45 702.00,147.71 706.25,146.97 710.50,146.23 714.75,145.48 719.00,144.73 723.25,143.97 727.50,143.21 731.75,142.44 736.00,141.67 740.25,140.89 744.50,140.11 748.75,139.32 753.00,138.52 757.25,137.72 761.50,136.91 765.75,136.09 770.00,135.27 774.25,134.44 778.50,133.60 782.75,132.75 787.00,131.89 791.25,131.03 795.50,130.15 799.75,129.26 804.00,128.37 808.25,127.46 812.50,126.54 816.75,125.60 821.00,124.65 825.25,123.69 829.50,122.72 833.75,121.72 838.00,120.71 842.25,119.69 846.50,118.64 850.75,117.57 855.00,116.48 859.25,115.36 863.50,114.22 867.75,113.05 872.00,111.84 876.25,110.61 880.50,109.33 884.75,108.01 889.00,106.64 893.25,105.22 897.50,103.73 901.75,102.18 906.00,100.53 910.25,98.79 914.50,96.92 918.75,94.90 923.00,92.66 927.25,90.13 931.50,87.13 935.75,83.24 940.00,73.87" fill="none" stroke="#c92a2a" stroke-width="1.8" stroke-dasharray="6,4" opacity="0.75"/>
  <circle cx="924.79" cy="472.15" r="5.2" fill="#2f9e44"/>
  <text x="934.79" y="462.15" font-size="12" font-family="Arial" fill="#2f9e44">root≈(0.4642, -0.8732)</text>
  <text x="490" y="34" text-anchor="middle" font-size="28" font-family="Arial">Система варианта 17</text>
  <text x="952.00" y="419.32" font-size="18" font-family="Arial">x</text>
  <text x="735.50" y="56.00" font-size="18" font-family="Arial">y</text>
  <line x1="98.00" y1="82.00" x2="122.00" y2="82.00" stroke="#0b7285" stroke-width="2.6"/>
  <text x="128.00" y="86.00" font-size="12" font-family="Arial">y = sin(x+2) - 1.5</text>
  <line x1="98.00" y1="102.00" x2="122.00" y2="102.00" stroke="#c92a2a" stroke-width="2.6"/>
  <text x="128.00" y="106.00" font-size="12" font-family="Arial">x = -0.5 - cos(y-2)</text>
</svg>