<svg xmlns="http://www.w3.org/2000/svg" width="980" height="520" viewBox="0 0 980 520">
<rect width="100%" height="100%" fill="#ffffff"/>
<text x="490.0" y="34" text-anchor="middle" font-size="24" font-family="Arial" fill="#1f2933">Сравнение результатов интегрирования</text>
<line x1="86" y1="459.79" x2="942" y2="459.79" stroke="#e6edf3"/>
<text x="72" y="463.79" text-anchor="end" font-size="12" font-family="Arial" fill="#415166">60</text>
<line x1="86" y1="387.96" x2="942" y2="387.96" stroke="#e6edf3"/>
<text x="72" y="391.96" text-anchor="end" font-size="12" font-family="Arial" fill="#415166">65</text>
<line x1="86" y1="316.12" x2="942" y2="316.12" stroke="#e6edf3"/>
<text x="72" y="320.12" text-anchor="end" font-size="12" font-family="Arial" fill="#415166">70</text>
<line x1="86" y1="244.28" x2="942" y2="244.28" stroke="#e6edf3"/>
<text x="72" y="248.28" text-anchor="end" font-size="12" font-family="Arial" fill="#415166">75</text>
<line x1="86" y1="172.45" x2="942" y2="172.45" stroke="#e6edf3"/>
<text x="72" y="176.45" text-anchor="end" font-size="12" font-family="Arial" fill="#415166">80</text>
<line x1="86" y1="100.61" x2="942" y2="100.61" stroke="#e6edf3"/>
<text x="72" y="104.61" text-anchor="end" font-size="12" font-family="Arial" fill="#415166">85</text>
<line x1="86" y1="28.77" x2="942" y2="28.77" stroke="#e6edf3"/>
<text x="72" y="32.77" text-anchor="end" font-size="12" font-family="Arial" fill="#415166">90</text>
<line x1="86" y1="422" x2="942" y2="422" stroke="#5c6b7a" stroke-width="1.4"/>
<line x1="86" y1="70" x2="86" y2="422" stroke="#5c6b7a" stroke-width="1.4"/>
<line x1="86" y1="249.07" x2="942" y2="249.07" stroke="#111827" stroke-width="1.6" stroke-dasharray="7 5"/>
<text x="936" y="241.07" text-anchor="end" font-size="12" font-family="Arial" fill="#111827">точное</text>
<rect x="125.60" y="378.90" width="92.00" height="43.10" fill="#db6b4d" rx="4"/>
<text x="171.60" y="446" text-anchor="middle" font-size="13" font-family="Arial" fill="#1f2933">Левые</text>
<text x="171.60" y="370.90" text-anchor="middle" font-size="12" font-family="Arial" fill="#1f2933">65,630</text>
<rect x="296.80" y="113.10" width="92.00" height="308.90" fill="#4d7cdb" rx="4"/>
<text x="342.80" y="446" text-anchor="middle" font-size="13" font-family="Arial" fill="#1f2933">Правые</text>
<text x="342.80" y="105.10" text-anchor="middle" font-size="12" font-family="Arial" fill="#1f2933">84,130</text>
<rect x="468.00" y="246.00" width="92.00" height="176.00" fill="#30a46c" rx="4"/>
<text x="514.00" y="446" text-anchor="middle" font-size="13" font-family="Arial" fill="#1f2933">Трапеции</text>
<text x="514.00" y="238.00" text-anchor="middle" font-size="12" font-family="Arial" fill="#1f2933">74,880</text>
<rect x="639.20" y="249.08" width="92.00" height="172.92" fill="#7b61ff" rx="4"/>
<text x="685.20" y="446" text-anchor="middle" font-size="13" font-family="Arial" fill="#1f2933">Симпсон</text>
<text x="685.20" y="241.08" text-anchor="middle" font-size="12" font-family="Arial" fill="#1f2933">74,666</text>
<rect x="810.40" y="249.07" width="92.00" height="172.93" fill="#111827" rx="4"/>
<text x="856.40" y="446" text-anchor="middle" font-size="13" font-family="Arial" fill="#1f2933">Н-Л</text>
<text x="856.40" y="241.07" text-anchor="middle" font-size="12" font-family="Arial" fill="#1f2933">74,667</text>
</svg>