<svg xmlns="http://www.w3.org/2000/svg" width="980" height="640" viewBox="0 0 980 640">
<rect width="100%" height="100%" fill="#ffffff"/>
<text x="490.0" y="34" text-anchor="middle" font-size="24" font-family="Arial" fill="#1f2933">График функции и узлы интегрирования</text>
<line x1="86.00" y1="70" x2="86.00" y2="566" stroke="#e6edf3"/>
<text x="86.00" y="588" text-anchor="middle" font-size="12" font-family="Arial" fill="#415166">1</text>
<line x1="229.00" y1="70" x2="229.00" y2="566" stroke="#e6edf3"/>
<text x="229.00" y="588" text-anchor="middle" font-size="12" font-family="Arial" fill="#415166">1,5</text>
<line x1="372.00" y1="70" x2="372.00" y2="566" stroke="#e6edf3"/>
<text x="372.00" y="588" text-anchor="middle" font-size="12" font-family="Arial" fill="#415166">2</text>
<line x1="515.00" y1="70" x2="515.00" y2="566" stroke="#e6edf3"/>
<text x="515.00" y="588" text-anchor="middle" font-size="12" font-family="Arial" fill="#415166">2,5</text>
<line x1="658.00" y1="70" x2="658.00" y2="566" stroke="#e6edf3"/>
<text x="658.00" y="588" text-anchor="middle" font-size="12" font-family="Arial" fill="#415166">3</text>
<line x1="801.00" y1="70" x2="801.00" y2="566" stroke="#e6edf3"/>
<text x="801.00" y="588" text-anchor="middle" font-size="12" font-family="Arial" fill="#415166">3,5</text>
<line x1="944.00" y1="70" x2="944.00" y2="566" stroke="#e6edf3"/>
<text x="944.00" y="588" text-anchor="middle" font-size="12" font-family="Arial" fill="#415166">4</text>
<line x1="86" y1="625.21" x2="944" y2="625.21" stroke="#e6edf3"/>
<text x="72" y="629.21" text-anchor="end" font-size="12" font-family="Arial" fill="#415166">0</text>
<line x1="86" y1="513.50" x2="944" y2="513.50" stroke="#e6edf3"/>
<text x="72" y="517.50" text-anchor="end" font-size="12" font-family="Arial" fill="#415166">10</text>
<line x1="86" y1="401.78" x2="944" y2="401.78" stroke="#e6edf3"/>
<text x="72" y="405.78" text-anchor="end" font-size="12" font-family="Arial" fill="#415166">20</text>
<line x1="86" y1="290.07" x2="944" y2="290.07" stroke="#e6edf3"/>
<text x="72" y="294.07" text-anchor="end" font-size="12" font-family="Arial" fill="#415166">30</text>
<line x1="86" y1="178.36" x2="944" y2="178.36" stroke="#e6edf3"/>
<text x="72" y="182.36" text-anchor="end" font-size="12" font-family="Arial" fill="#415166">40</text>
<line x1="86" y1="66.65" x2="944" y2="66.65" stroke="#e6edf3"/>
<text x="72" y="70.65" text-anchor="end" font-size="12" font-family="Arial" fill="#415166">50</text>
<line x1="86" y1="566" x2="944" y2="566" stroke="#5c6b7a" stroke-width="1.4"/>
<line x1="86" y1="70" x2="86" y2="566" stroke="#5c6b7a" stroke-width="1.4"/>
<text x="954" y="571" font-size="16" font-family="Arial" fill="#1f2933">x</text>
<text x="94" y="54" font-size="16" font-family="Arial" fill="#1f2933">y</text>
<line x1="98" y1="86" x2="126" y2="86" stroke="#087f95" stroke-width="2.6" stroke-linecap="round"/>
<text x="136" y="90" font-size="12" font-family="Arial" fill="#1f2933">f(x)=7√x+2x²</text>
<polyline points="86.00,524.67 87.91,524.11 89.82,523.54 91.73,522.98 93.64,522.42 95.55,521.85 97.47,521.29 99.38,520.72 101.29,520.15 103.20,519.58 105.11,519.01 107.02,518.44 108.93,517.87 110.84,517.29 112.75,516.72 114.66,516.14 116.57,515.56 118.49,514.98 120.40,514.40 122.31,513.82 124.22,513.24 126.13,512.65 128.04,512.07 129.95,511.48 131.86,510.89 133.77,510.30 135.68,509.71 137.59,509.12 139.51,508.52 141.42,507.93 143.33,507.33 145.24,506.74 147.15,506.14 149.06,505.54 150.97,504.93 152.88,504.33 154.79,503.73 156.70,503.12 158.61,502.51 160.53,501.91 162.44,501.30 164.35,500.69 166.26,500.07 168.17,499.46 170.08,498.84 171.99,498.23 173.90,497.61 175.81,496.99 177.72,496.37 179.63,495.75 181.55,495.12 183.46,494.50 185.37,493.87 187.28,493.24 189.19,492.61 191.10,491.98 193.01,491.35 194.92,490.72 196.83,490.08 198.74,489.44 200.65,488.81 202.57,488.17 204.48,487.52 206.39,486.88 208.30,486.24 210.21,485.59 212.12,484.95 214.03,484.30 215.94,483.65 217.85,483.00 219.76,482.34 221.67,481.69 223.59,481.03 225.50,480.37 227.41,479.71 229.32,479.05 231.23,478.39 233.14,477.73 235.05,477.06 236.96,476.40 238.87,475.73 240.78,475.06 242.69,474.39 244.61,473.71 246.52,473.04 248.43,472.36 250.34,471.69 252.25,471.01 254.16,470.33 256.07,469.64 257.98,468.96 259.89,468.27 261.80,467.59 263.71,466.90 265.63,466.21 267.54,465.52 269.45,464.82 271.36,464.13 273.27,463.43 275.18,462.74 277.09,462.04 279.00,461.34 280.91,460.63 282.82,459.93 284.73,459.22 286.65,458.51 288.56,457.81 290.47,457.09 292.38,456.38 294.29,455.67 296.20,454.95 298.11,454.24 300.02,453.52 301.93,452.80 303.84,452.07 305.76,451.35 307.67,450.63 309.58,449.90 311.49,449.17 313.40,448.44 315.31,447.71 317.22,446.98 319.13,446.24 321.04,445.50 322.95,444.77 324.86,444.03 326.78,443.28 328.69,442.54 330.60,441.80 332.51,441.05 334.42,440.30 336.33,439.55 338.24,438.80 340.15,438.05 342.06,437.29 343.97,436.54 345.88,435.78 347.80,435.02 349.71,434.26 351.62,433.49 353.53,432.73 355.44,431.96 357.35,431.19 359.26,430.42 361.17,429.65 363.08,428.88 364.99,428.10 366.90,427.33 368.82,426.55 370.73,425.77 372.64,424.99 374.55,424.20 376.46,423.42 378.37,422.63 380.28,421.85 382.19,421.06 384.10,420.26 386.01,419.47 387.92,418.67 389.84,417.88 391.75,417.08 393.66,416.28 395.57,415.48 397.48,414.67 399.39,413.87 401.30,413.06 403.21,412.25 405.12,411.44 407.03,410.63 408.94,409.82 410.86,409.00 412.77,408.18 414.68,407.36 416.59,406.54 418.50,405.72 420.41,404.90 422.32,404.07 424.23,403.24 426.14,402.41 428.05,401.58 429.96,400.75 431.88,399.92 433.79,399.08 435.70,398.24 437.61,397.40 439.52,396.56 441.43,395.72 443.34,394.87 445.25,394.03 447.16,393.18 449.07,392.33 450.98,391.48 452.90,390.62 454.81,389.77 456.72,388.91 458.63,388.05 460.54,387.19 462.45,386.33 464.36,385.46 466.27,384.60 468.18,383.73 470.09,382.86 472.00,381.99 473.92,381.12 475.83,380.24 477.74,379.37 479.65,378.49 481.56,377.61 483.47,376.73 485.38,375.84 487.29,374.96 489.20,374.07 491.11,373.18 493.02,372.29 494.94,371.40 496.85,370.51 498.76,369.61 500.67,368.71 502.58,367.81 504.49,366.91 506.40,366.01 508.31,365.11 510.22,364.20 512.13,363.29 514.04,362.38 515.96,361.47 517.87,360.56 519.78,359.64 521.69,358.72 523.60,357.81 525.51,356.88 527.42,355.96 529.33,355.04 531.24,354.11 533.15,353.18 535.06,352.26 536.98,351.32 538.89,350.39 540.80,349.46 542.71,348.52 544.62,347.58 546.53,346.64 548.44,345.70 550.35,344.76 552.26,343.81 554.17,342.86 556.08,341.91 558.00,340.96 559.91,340.01 561.82,339.06 563.73,338.10 565.64,337.14 567.55,336.18 569.46,335.22 571.37,334.26 573.28,333.29 575.19,332.32 577.10,331.36 579.02,330.39 580.93,329.41 582.84,328.44 584.75,327.46 586.66,326.48 588.57,325.51 590.48,324.52 592.39,323.54 594.30,322.56 596.21,321.57 598.12,320.58 600.04,319.59 601.95,318.60 603.86,317.60 605.77,316.61 607.68,315.61 609.59,314.61 611.50,313.61 613.41,312.61 615.32,311.60 617.23,310.59 619.14,309.59 621.06,308.57 622.97,307.56 624.88,306.55 626.79,305.53 628.70,304.51 630.61,303.50 632.52,302.47 634.43,301.45 636.34,300.43 638.25,299.40 640.16,298.37 642.08,297.34 643.99,296.31 645.90,295.27 647.81,294.24 649.72,293.20 651.63,292.16 653.54,291.12 655.45,290.08 657.36,289.03 659.27,287.98 661.18,286.94 663.10,285.89 665.01,284.83 666.92,283.78 668.83,282.72 670.74,281.67 672.65,280.61 674.56,279.54 676.47,278.48 678.38,277.42 680.29,276.35 682.20,275.28 684.12,274.21 686.03,273.14 687.94,272.06 689.85,270.99 691.76,269.91 693.67,268.83 695.58,267.75 697.49,266.66 699.40,265.58 701.31,264.49 703.22,263.40 705.14,262.31 707.05,261.22 708.96,260.12 710.87,259.03 712.78,257.93 714.69,256.83 716.60,255.73 718.51,254.62 720.42,253.52 722.33,252.41 724.24,251.30 726.16,250.19 728.07,249.08 729.98,247.96 731.89,246.85 733.80,245.73 735.71,244.61 737.62,243.49 739.53,242.36 741.44,241.24 743.35,240.11 745.27,238.98 747.18,237.85 749.09,236.71 751.00,235.58 752.91,234.44 754.82,233.30 756.73,232.16 758.64,231.02 760.55,229.88 762.46,228.73 764.37,227.58 766.29,226.43 768.20,225.28 770.11,224.13 772.02,222.97 773.93,221.81 775.84,220.65 777.75,219.49 779.66,218.33 781.57,217.17 783.48,216.00 785.39,214.83 787.31,213.66 789.22,212.49 791.13,211.31 793.04,210.14 794.95,208.96 796.86,207.78 798.77,206.60 800.68,205.42 802.59,204.23 804.50,203.04 806.41,201.85 808.33,200.66 810.24,199.47 812.15,198.28 814.06,197.08 815.97,195.88 817.88,194.68 819.79,193.48 821.70,192.28 823.61,191.07 825.52,189.86 827.43,188.65 829.35,187.44 831.26,186.23 833.17,185.01 835.08,183.80 836.99,182.58 838.90,181.36 840.81,180.13 842.72,178.91 844.63,177.68 846.54,176.46 848.45,175.23 850.37,173.99 852.28,172.76 854.19,171.52 856.10,170.29 858.01,169.05 859.92,167.81 861.83,166.56 863.74,165.32 865.65,164.07 867.56,162.82 869.47,161.57 871.39,160.32 873.30,159.06 875.21,157.81 877.12,156.55 879.03,155.29 880.94,154.03 882.85,152.77 884.76,151.50 886.67,150.23 888.58,148.96 890.49,147.69 892.41,146.42 894.32,145.14 896.23,143.87 898.14,142.59 900.05,141.31 901.96,140.02 903.87,138.74 905.78,137.45 907.69,136.17 909.60,134.88 911.51,133.58 913.43,132.29 915.34,130.99 917.25,129.70 919.16,128.40 921.07,127.10 922.98,125.79 924.89,124.49 926.80,123.18 928.71,121.87 930.62,120.56 932.53,119.25 934.45,117.93 936.36,116.62 938.27,115.30 940.18,113.98 942.09,112.66 944.00,111.33" fill="none" stroke="#087f95" stroke-width="2.6" stroke-linecap="round" stroke-linejoin="round"/>
<circle cx="86.00" cy="524.67" r="4.5" fill="#111827"/>
<text x="93.00" y="517.67" font-size="12" font-family="Arial" fill="#111827">x0</text>
<circle cx="229.00" cy="479.16" r="4.5" fill="#111827"/>
<text x="236.00" y="472.16" font-size="12" font-family="Arial" fill="#111827">x1</text>
<circle cx="372.00" cy="425.25" r="4.5" fill="#111827"/>
<text x="379.00" y="418.25" font-size="12" font-family="Arial" fill="#111827">x2</text>
<circle cx="515.00" cy="361.93" r="4.5" fill="#111827"/>
<text x="522.00" y="354.93" font-size="12" font-family="Arial" fill="#111827">x3</text>
<circle cx="658.00" cy="288.68" r="4.5" fill="#111827"/>
<text x="665.00" y="281.68" font-size="12" font-family="Arial" fill="#111827">x4</text>
<circle cx="801.00" cy="205.22" r="4.5" fill="#111827"/>
<text x="808.00" y="198.22" font-size="12" font-family="Arial" fill="#111827">x5</text>
<circle cx="944.00" cy="111.33" r="4.5" fill="#111827"/>
<text x="951.00" y="104.33" font-size="12" font-family="Arial" fill="#111827">x6</text>
</svg>