<svg xmlns="http://www.w3.org/2000/svg" width="980" height="600" viewBox="0 0 980 600">
<rect width="100%" height="100%" fill="#ffffff"/>
<text x="490.0" y="34" text-anchor="middle" font-size="24" font-family="Arial" fill="#1f2933">Метод трапеций</text>
<text x="490.0" y="58" text-anchor="middle" font-size="14" font-family="Arial" fill="#415166">I ≈ 74,880418677</text>
<line x1="86.00" y1="74" x2="86.00" y2="518" stroke="#e6edf3"/>
<text x="86.00" y="540" text-anchor="middle" font-size="12" font-family="Arial" fill="#415166">1</text>
<line x1="228.67" y1="74" x2="228.67" y2="518" stroke="#e6edf3"/>
<text x="228.67" y="540" text-anchor="middle" font-size="12" font-family="Arial" fill="#415166">1,5</text>
<line x1="371.33" y1="74" x2="371.33" y2="518" stroke="#e6edf3"/>
<text x="371.33" y="540" text-anchor="middle" font-size="12" font-family="Arial" fill="#415166">2</text>
<line x1="514.00" y1="74" x2="514.00" y2="518" stroke="#e6edf3"/>
<text x="514.00" y="540" text-anchor="middle" font-size="12" font-family="Arial" fill="#415166">2,5</text>
<line x1="656.67" y1="74" x2="656.67" y2="518" stroke="#e6edf3"/>
<text x="656.67" y="540" text-anchor="middle" font-size="12" font-family="Arial" fill="#415166">3</text>
<line x1="799.33" y1="74" x2="799.33" y2="518" stroke="#e6edf3"/>
<text x="799.33" y="540" text-anchor="middle" font-size="12" font-family="Arial" fill="#415166">3,5</text>
<line x1="942.00" y1="74" x2="942.00" y2="518" stroke="#e6edf3"/>
<text x="942.00" y="540" text-anchor="middle" font-size="12" font-family="Arial" fill="#415166">4</text>
<line x1="86" y1="518.00" x2="942" y2="518.00" stroke="#e6edf3"/>
<text x="72" y="522.00" text-anchor="end" font-size="12" font-family="Arial" fill="#415166">0</text>
<line x1="86" y1="431.82" x2="942" y2="431.82" stroke="#e6edf3"/>
<text x="72" y="435.82" text-anchor="end" font-size="12" font-family="Arial" fill="#415166">10</text>
<line x1="86" y1="345.64" x2="942" y2="345.64" stroke="#e6edf3"/>
<text x="72" y="349.64" text-anchor="end" font-size="12" font-family="Arial" fill="#415166">20</text>
<line x1="86" y1="259.46" x2="942" y2="259.46" stroke="#e6edf3"/>
<text x="72" y="263.46" text-anchor="end" font-size="12" font-family="Arial" fill="#415166">30</text>
<line x1="86" y1="173.28" x2="942" y2="173.28" stroke="#e6edf3"/>
<text x="72" y="177.28" text-anchor="end" font-size="12" font-family="Arial" fill="#415166">40</text>
<line x1="86" y1="87.10" x2="942" y2="87.10" stroke="#e6edf3"/>
<text x="72" y="91.10" text-anchor="end" font-size="12" font-family="Arial" fill="#415166">50</text>
<line x1="86" y1="0.92" x2="942" y2="0.92" stroke="#e6edf3"/>
<text x="72" y="4.92" text-anchor="end" font-size="12" font-family="Arial" fill="#415166">60</text>
<polygon points="86.00,518.00 86.00,440.44 228.67,405.33 228.67,518.00" fill="#dcfce7" stroke="#16a34a" stroke-width="1.4" fill-opacity="0.72"/>
<polygon points="228.67,518.00 228.67,405.33 371.33,363.74 371.33,518.00" fill="#dcfce7" stroke="#16a34a" stroke-width="1.4" fill-opacity="0.72"/>
<polygon points="371.33,518.00 371.33,363.74 514.00,314.89 514.00,518.00" fill="#dcfce7" stroke="#16a34a" stroke-width="1.4" fill-opacity="0.72"/>
<polygon points="514.00,518.00 514.00,314.89 656.67,258.39 656.67,518.00" fill="#dcfce7" stroke="#16a34a" stroke-width="1.4" fill-opacity="0.72"/>
<polygon points="656.67,518.00 656.67,258.39 799.33,194.00 799.33,518.00" fill="#dcfce7" stroke="#16a34a" stroke-width="1.4" fill-opacity="0.72"/>
<polygon points="799.33,518.00 799.33,194.00 942.00,121.57 942.00,518.00" fill="#dcfce7" stroke="#16a34a" stroke-width="1.4" fill-opacity="0.72"/>
<polyline points="86.00,440.44 87.72,440.05 89.43,439.66 91.15,439.27 92.86,438.88 94.58,438.49 96.29,438.09 98.01,437.70 99.72,437.31 101.44,436.91 103.15,436.52 104.87,436.12 106.59,435.72 108.30,435.33 110.02,434.93 111.73,434.53 113.45,434.13 115.16,433.73 116.88,433.33 118.59,432.92 120.31,432.52 122.02,432.12 123.74,431.71 125.45,431.31 127.17,430.90 128.89,430.49 130.60,430.08 132.32,429.68 134.03,429.27 135.75,428.86 137.46,428.44 139.18,428.03 140.89,427.62 142.61,427.21 144.32,426.79 146.04,426.38 147.76,425.96 149.47,425.54 151.19,425.13 152.90,424.71 154.62,424.29 156.33,423.87 158.05,423.45 159.76,423.02 161.48,422.60 163.19,422.18 164.91,421.75 166.63,421.33 168.34,420.90 170.06,420.47 171.77,420.05 173.49,419.62 175.20,419.19 176.92,418.76 178.63,418.32 180.35,417.89 182.06,417.46 183.78,417.02 185.49,416.59 187.21,416.15 188.93,415.72 190.64,415.28 192.36,414.84 194.07,414.40 195.79,413.96 197.50,413.52 199.22,413.07 200.93,412.63 202.65,412.19 204.36,411.74 206.08,411.30 207.80,410.85 209.51,410.40 211.23,409.95 212.94,409.50 214.66,409.05 216.37,408.60 218.09,408.15 219.80,407.69 221.52,407.24 223.23,406.78 224.95,406.33 226.67,405.87 228.38,405.41 230.10,404.95 231.81,404.49 233.53,404.03 235.24,403.57 236.96,403.11 238.67,402.64 240.39,402.18 242.10,401.71 243.82,401.24 245.54,400.78 247.25,400.31 248.97,399.84 250.68,399.37 252.40,398.89 254.11,398.42 255.83,397.95 257.54,397.47 259.26,397.00 260.97,396.52 262.69,396.04 264.40,395.57 266.12,395.09 267.84,394.61 269.55,394.12 271.27,393.64 272.98,393.16 274.70,392.67 276.41,392.19 278.13,391.70 279.84,391.21 281.56,390.73 283.27,390.24 284.99,389.75 286.71,389.25 288.42,388.76 290.14,388.27 291.85,387.77 293.57,387.28 295.28,386.78 297.00,386.28 298.71,385.79 300.43,385.29 302.14,384.79 303.86,384.28 305.58,383.78 307.29,383.28 309.01,382.77 310.72,382.27 312.44,381.76 314.15,381.25 315.87,380.74 317.58,380.23 319.30,379.72 321.01,379.21 322.73,378.70 324.44,378.19 326.16,377.67 327.88,377.16 329.59,376.64 331.31,376.12 333.02,375.60 334.74,375.08 336.45,374.56 338.17,374.04 339.88,373.52 341.60,372.99 343.31,372.47 345.03,371.94 346.75,371.41 348.46,370.88 350.18,370.36 351.89,369.83 353.61,369.29 355.32,368.76 357.04,368.23 358.75,367.69 360.47,367.16 362.18,366.62 363.90,366.08 365.62,365.55 367.33,365.01 369.05,364.46 370.76,363.92 372.48,363.38 374.19,362.84 375.91,362.29 377.62,361.74 379.34,361.20 381.05,360.65 382.77,360.10 384.48,359.55 386.20,359.00 387.92,358.45 389.63,357.89 391.35,357.34 393.06,356.78 394.78,356.23 396.49,355.67 398.21,355.11 399.92,354.55 401.64,353.99 403.35,353.43 405.07,352.86 406.79,352.30 408.50,351.73 410.22,351.17 411.93,350.60 413.65,350.03 415.36,349.46 417.08,348.89 418.79,348.32 420.51,347.75 422.22,347.17 423.94,346.60 425.66,346.02 427.37,345.45 429.09,344.87 430.80,344.29 432.52,343.71 434.23,343.13 435.95,342.55 437.66,341.96 439.38,341.38 441.09,340.79 442.81,340.20 444.53,339.62 446.24,339.03 447.96,338.44 449.67,337.85 451.39,337.25 453.10,336.66 454.82,336.07 456.53,335.47 458.25,334.87 459.96,334.28 461.68,333.68 463.39,333.08 465.11,332.48 466.83,331.88 468.54,331.27 470.26,330.67 471.97,330.06 473.69,329.46 475.40,328.85 477.12,328.24 478.83,327.63 480.55,327.02 482.26,326.41 483.98,325.80 485.70,325.18 487.41,324.57 489.13,323.95 490.84,323.33 492.56,322.71 494.27,322.10 495.99,321.47 497.70,320.85 499.42,320.23 501.13,319.61 502.85,318.98 504.57,318.35 506.28,317.73 508.00,317.10 509.71,316.47 511.43,315.84 513.14,315.21 514.86,314.57 516.57,313.94 518.29,313.31 520.00,312.67 521.72,312.03 523.43,311.39 525.15,310.75 526.87,310.11 528.58,309.47 530.30,308.83 532.01,308.19 533.73,307.54 535.44,306.89 537.16,306.25 538.87,305.60 540.59,304.95 542.30,304.30 544.02,303.65 545.74,302.99 547.45,302.34 549.17,301.68 550.88,301.03 552.60,300.37 554.31,299.71 556.03,299.05 557.74,298.39 559.46,297.73 561.17,297.07 562.89,296.40 564.61,295.74 566.32,295.07 568.04,294.41 569.75,293.74 571.47,293.07 573.18,292.40 574.90,291.72 576.61,291.05 578.33,290.38 580.04,289.70 581.76,289.03 583.47,288.35 585.19,287.67 586.91,286.99 588.62,286.31 590.34,285.63 592.05,284.94 593.77,284.26 595.48,283.57 597.20,282.89 598.91,282.20 600.63,281.51 602.34,280.82 604.06,280.13 605.78,279.44 607.49,278.74 609.21,278.05 610.92,277.35 612.64,276.66 614.35,275.96 616.07,275.26 617.78,274.56 619.50,273.86 621.21,273.16 622.93,272.45 624.65,271.75 626.36,271.04 628.08,270.34 629.79,269.63 631.51,268.92 633.22,268.21 634.94,267.50 636.65,266.79 638.37,266.07 640.08,265.36 641.80,264.64 643.52,263.92 645.23,263.21 646.95,262.49 648.66,261.77 650.38,261.04 652.09,260.32 653.81,259.60 655.52,258.87 657.24,258.15 658.95,257.42 660.67,256.69 662.38,255.96 664.10,255.23 665.82,254.50 667.53,253.76 669.25,253.03 670.96,252.29 672.68,251.56 674.39,250.82 676.11,250.08 677.82,249.34 679.54,248.60 681.25,247.86 682.97,247.11 684.69,246.37 686.40,245.62 688.12,244.88 689.83,244.13 691.55,243.38 693.26,242.63 694.98,241.88 696.69,241.13 698.41,240.37 700.12,239.62 701.84,238.86 703.56,238.10 705.27,237.35 706.99,236.59 708.70,235.83 710.42,235.06 712.13,234.30 713.85,233.54 715.56,232.77 717.28,232.01 718.99,231.24 720.71,230.47 722.42,229.70 724.14,228.93 725.86,228.16 727.57,227.38 729.29,226.61 731.00,225.83 732.72,225.06 734.43,224.28 736.15,223.50 737.86,222.72 739.58,221.94 741.29,221.16 743.01,220.37 744.73,219.59 746.44,218.80 748.16,218.01 749.87,217.23 751.59,216.44 753.30,215.65 755.02,214.85 756.73,214.06 758.45,213.27 760.16,212.47 761.88,211.68 763.60,210.88 765.31,210.08 767.03,209.28 768.74,208.48 770.46,207.68 772.17,206.87 773.89,206.07 775.60,205.26 777.32,204.46 779.03,203.65 780.75,202.84 782.46,202.03 784.18,201.22 785.90,200.40 787.61,199.59 789.33,198.78 791.04,197.96 792.76,197.14 794.47,196.32 796.19,195.50 797.90,194.68 799.62,193.86 801.33,193.04 803.05,192.21 804.77,191.39 806.48,190.56 808.20,189.73 809.91,188.91 811.63,188.08 813.34,187.24 815.06,186.41 816.77,185.58 818.49,184.74 820.20,183.91 821.92,183.07 823.64,182.23 825.35,181.39 827.07,180.55 828.78,179.71 830.50,178.87 832.21,178.02 833.93,177.18 835.64,176.33 837.36,175.49 839.07,174.64 840.79,173.79 842.51,172.94 844.22,172.08 845.94,171.23 847.65,170.38 849.37,169.52 851.08,168.66 852.80,167.80 854.51,166.95 856.23,166.09 857.94,165.22 859.66,164.36 861.37,163.50 863.09,162.63 864.81,161.77 866.52,160.90 868.24,160.03 869.95,159.16 871.67,158.29 873.38,157.42 875.10,156.54 876.81,155.67 878.53,154.79 880.24,153.92 881.96,153.04 883.68,152.16 885.39,151.28 887.11,150.40 888.82,149.52 890.54,148.63 892.25,147.75 893.97,146.86 895.68,145.97 897.40,145.08 899.11,144.20 900.83,143.30 902.55,142.41 904.26,141.52 905.98,140.62 907.69,139.73 909.41,138.83 911.12,137.93 912.84,137.04 914.55,136.14 916.27,135.23 917.98,134.33 919.70,133.43 921.41,132.52 923.13,131.62 924.85,130.71 926.56,129.80 928.28,128.89 929.99,127.98 931.71,127.07 933.42,126.15 935.14,125.24 936.85,124.33 938.57,123.41 940.28,122.49 942.00,121.57" fill="none" stroke="#0f766e" stroke-width="2.8" stroke-linecap="round" stroke-linejoin="round"/>
<line x1="86.00" y1="518.00" x2="86.00" y2="524.00" stroke="#5c6b7a" stroke-width="1.1"/>
<line x1="228.67" y1="518.00" x2="228.67" y2="524.00" stroke="#5c6b7a" stroke-width="1.1"/>
<line x1="371.33" y1="518.00" x2="371.33" y2="524.00" stroke="#5c6b7a" stroke-width="1.1"/>
<line x1="514.00" y1="518.00" x2="514.00" y2="524.00" stroke="#5c6b7a" stroke-width="1.1"/>
<line x1="656.67" y1="518.00" x2="656.67" y2="524.00" stroke="#5c6b7a" stroke-width="1.1"/>
<line x1="799.33" y1="518.00" x2="799.33" y2="524.00" stroke="#5c6b7a" stroke-width="1.1"/>
<line x1="942.00" y1="518.00" x2="942.00" y2="524.00" stroke="#5c6b7a" stroke-width="1.1"/>
<circle cx="86.00" cy="440.44" r="4.2" fill="#111827"/>
<text x="92.00" y="433.44" font-size="11" font-family="Arial" fill="#111827">x0</text>
<circle cx="228.67" cy="405.33" r="4.2" fill="#111827"/>
<text x="234.67" y="398.33" font-size="11" font-family="Arial" fill="#111827">x1</text>
<circle cx="371.33" cy="363.74" r="4.2" fill="#111827"/>
<text x="377.33" y="356.74" font-size="11" font-family="Arial" fill="#111827">x2</text>
<circle cx="514.00" cy="314.89" r="4.2" fill="#111827"/>
<text x="520.00" y="307.89" font-size="11" font-family="Arial" fill="#111827">x3</text>
<circle cx="656.67" cy="258.39" r="4.2" fill="#111827"/>
<text x="662.67" y="251.39" font-size="11" font-family="Arial" fill="#111827">x4</text>
<circle cx="799.33" cy="194.00" r="4.2" fill="#111827"/>
<text x="805.33" y="187.00" font-size="11" font-family="Arial" fill="#111827">x5</text>
<circle cx="942.00" cy="121.57" r="4.2" fill="#111827"/>
<text x="948.00" y="114.57" font-size="11" font-family="Arial" fill="#111827">x6</text>
<line x1="86" y1="518.00" x2="942" y2="518.00" stroke="#5c6b7a" stroke-width="1.4"/>
<line x1="86" y1="74" x2="86" y2="518" stroke="#5c6b7a" stroke-width="1.4"/>
<text x="952" y="523.00" font-size="16" font-family="Arial" fill="#1f2933">x</text>
<text x="94" y="58" font-size="16" font-family="Arial" fill="#1f2933">y</text>
<rect x="102" y="88" width="18" height="12" fill="#dcfce7" stroke="#16a34a" fill-opacity="0.72"/>
<text x="128" y="99" font-size="12" font-family="Arial" fill="#1f2933">площадь, которую суммирует метод</text>
<line x1="102" y1="117" x2="120" y2="117" stroke="#0f766e" stroke-width="2.8" stroke-linecap="round"/>
<text x="128" y="121" font-size="12" font-family="Arial" fill="#1f2933">исходная функция</text>
</svg>