<svg xmlns="http://www.w3.org/2000/svg" width="980" height="640" viewBox="0 0 980 640">
  <rect x="0" y="0" width="980" height="640" fill="white"/>
  <text x="490" y="34" text-anchor="middle" font-size="24" font-family="Arial" fill="#1f2933">Сравнение двух аппроксимаций</text>
  <line x1="207.55" y1="68.00" x2="207.55" y2="564.00" stroke="#eceff3" stroke-width="1"/>
  <text x="207.55" y="586.00" text-anchor="middle" font-size="12" font-family="Arial" fill="#4b5563">0,5</text>
  <line x1="354.45" y1="68.00" x2="354.45" y2="564.00" stroke="#eceff3" stroke-width="1"/>
  <text x="354.45" y="586.00" text-anchor="middle" font-size="12" font-family="Arial" fill="#4b5563">1,0</text>
  <line x1="501.34" y1="68.00" x2="501.34" y2="564.00" stroke="#eceff3" stroke-width="1"/>
  <text x="501.34" y="586.00" text-anchor="middle" font-size="12" font-family="Arial" fill="#4b5563">1,5</text>
  <line x1="648.23" y1="68.00" x2="648.23" y2="564.00" stroke="#eceff3" stroke-width="1"/>
  <text x="648.23" y="586.00" text-anchor="middle" font-size="12" font-family="Arial" fill="#4b5563">2,0</text>
  <line x1="795.12" y1="68.00" x2="795.12" y2="564.00" stroke="#eceff3" stroke-width="1"/>
  <text x="795.12" y="586.00" text-anchor="middle" font-size="12" font-family="Arial" fill="#4b5563">2,5</text>
  <line x1="942.02" y1="68.00" x2="942.02" y2="564.00" stroke="#eceff3" stroke-width="1"/>
  <text x="942.02" y="586.00" text-anchor="middle" font-size="12" font-family="Arial" fill="#4b5563">3,0</text>
  <line x1="86.00" y1="503.47" x2="944.00" y2="503.47" stroke="#eceff3" stroke-width="1"/>
  <text x="74.00" y="507.47" text-anchor="end" font-size="12" font-family="Arial" fill="#4b5563">−2,0</text>
  <line x1="86.00" y1="386.80" x2="944.00" y2="386.80" stroke="#eceff3" stroke-width="1"/>
  <text x="74.00" y="390.80" text-anchor="end" font-size="12" font-family="Arial" fill="#4b5563">0,0</text>
  <line x1="86.00" y1="270.12" x2="944.00" y2="270.12" stroke="#eceff3" stroke-width="1"/>
  <text x="74.00" y="274.12" text-anchor="end" font-size="12" font-family="Arial" fill="#4b5563">2,0</text>
  <line x1="86.00" y1="153.44" x2="944.00" y2="153.44" stroke="#eceff3" stroke-width="1"/>
  <text x="74.00" y="157.44" text-anchor="end" font-size="12" font-family="Arial" fill="#4b5563">4,0</text>
  <line x1="86.00" y1="386.80" x2="944.00" y2="386.80" stroke="#5c6670" stroke-width="1.4"/>
  <line x1="86.00" y1="68.00" x2="86.00" y2="564.00" stroke="#5c6670" stroke-width="1.4"/>
  <polyline points="125.00,516.00 126.56,515.00 128.13,514.00 129.69,513.01 131.25,512.01 132.82,511.02 134.38,510.02 135.94,509.03 137.51,508.04 139.07,507.05 140.63,506.06 142.19,505.07 143.76,504.08 145.32,503.09 146.88,502.10 148.45,501.12 150.01,500.13 151.57,499.15 153.14,498.16 154.70,497.18 156.26,496.20 157.83,495.21 159.39,494.23 160.95,493.25 162.52,492.27 164.08,491.29 165.64,490.32 167.20,489.34 168.77,488.36 170.33,487.39 171.89,486.41 173.46,485.44 175.02,484.47 176.58,483.50 178.15,482.53 179.71,481.56 181.27,480.59 182.84,479.62 184.40,478.65 185.96,477.68 187.53,476.72 189.09,475.75 190.65,474.79 192.21,473.82 193.78,472.86 195.34,471.90 196.90,470.94 198.47,469.97 200.03,469.02 201.59,468.06 203.16,467.10 204.72,466.14 206.28,465.18 207.85,464.23 209.41,463.27 210.97,462.32 212.54,461.37 214.10,460.41 215.66,459.46 217.22,458.51 218.79,457.56 220.35,456.61 221.91,455.66 223.48,454.72 225.04,453.77 226.60,452.82 228.17,451.88 229.73,450.94 231.29,449.99 232.86,449.05 234.42,448.11 235.98,447.17 237.55,446.23 239.11,445.29 240.67,444.35 242.23,443.41 243.80,442.47 245.36,441.54 246.92,440.60 248.49,439.67 250.05,438.73 251.61,437.80 253.18,436.87 254.74,435.94 256.30,435.01 257.87,434.08 259.43,433.15 260.99,432.22 262.56,431.29 264.12,430.37 265.68,429.44 267.24,428.52 268.81,427.59 270.37,426.67 271.93,425.75 273.50,424.83 275.06,423.91 276.62,422.99 278.19,422.07 279.75,421.15 281.31,420.23 282.88,419.31 284.44,418.40 286.00,417.48 287.57,416.57 289.13,415.66 290.69,414.74 292.25,413.83 293.82,412.92 295.38,412.01 296.94,411.10 298.51,410.19 300.07,409.29 301.63,408.38 303.20,407.47 304.76,406.57 306.32,405.66 307.89,404.76 309.45,403.86 311.01,402.96 312.58,402.05 314.14,401.15 315.70,400.25 317.26,399.36 318.83,398.46 320.39,397.56 321.95,396.66 323.52,395.77 325.08,394.87 326.64,393.98 328.21,393.09 329.77,392.20 331.33,391.30 332.90,390.41 334.46,389.52 336.02,388.64 337.59,387.75 339.15,386.86 340.71,385.97 342.27,385.09 343.84,384.20 345.40,383.32 346.96,382.44 348.53,381.55 350.09,380.67 351.65,379.79 353.22,378.91 354.78,378.03 356.34,377.15 357.91,376.28 359.47,375.40 361.03,374.52 362.60,373.65 364.16,372.77 365.72,371.90 367.28,371.03 368.85,370.16 370.41,369.29 371.97,368.42 373.54,367.55 375.10,366.68 376.66,365.81 378.23,364.94 379.79,364.08 381.35,363.21 382.92,362.35 384.48,361.48 386.04,360.62 387.61,359.76 389.17,358.90 390.73,358.04 392.29,357.18 393.86,356.32 395.42,355.46 396.98,354.60 398.55,353.75 400.11,352.89 401.67,352.04 403.24,351.18 404.80,350.33 406.36,349.48 407.93,348.63 409.49,347.78 411.05,346.93 412.62,346.08 414.18,345.23 415.74,344.38 417.30,343.53 418.87,342.69 420.43,341.84 421.99,341.00 423.56,340.16 425.12,339.31 426.68,338.47 428.25,337.63 429.81,336.79 431.37,335.95 432.94,335.11 434.50,334.28 436.06,333.44 437.63,332.60 439.19,331.77 440.75,330.93 442.31,330.10 443.88,329.27 445.44,328.44 447.00,327.60 448.57,326.77 450.13,325.94 451.69,325.12 453.26,324.29 454.82,323.46 456.38,322.63 457.95,321.81 459.51,320.98 461.07,320.16 462.64,319.34 464.20,318.52 465.76,317.69 467.32,316.87 468.89,316.05 470.45,315.24 472.01,314.42 473.58,313.60 475.14,312.78 476.70,311.97 478.27,311.15 479.83,310.34 481.39,309.53 482.96,308.71 484.52,307.90 486.08,307.09 487.65,306.28 489.21,305.47 490.77,304.66 492.33,303.86 493.90,303.05 495.46,302.24 497.02,301.44 498.59,300.63 500.15,299.83 501.71,299.03 503.28,298.23 504.84,297.43 506.40,296.63 507.97,295.83 509.53,295.03 511.09,294.23 512.66,293.43 514.22,292.64 515.78,291.84 517.34,291.05 518.91,290.25 520.47,289.46 522.03,288.67 523.60,287.88 525.16,287.09 526.72,286.30 528.29,285.51 529.85,284.72 531.41,283.93 532.98,283.15 534.54,282.36 536.10,281.58 537.67,280.79 539.23,280.01 540.79,279.23 542.35,278.45 543.92,277.67 545.48,276.89 547.04,276.11 548.61,275.33 550.17,274.55 551.73,273.77 553.30,273.00 554.86,272.22 556.42,271.45 557.99,270.68 559.55,269.90 561.11,269.13 562.68,268.36 564.24,267.59 565.80,266.82 567.36,266.05 568.93,265.29 570.49,264.52 572.05,263.75 573.62,262.99 575.18,262.22 576.74,261.46 578.31,260.70 579.87,259.93 581.43,259.17 583.00,258.41 584.56,257.65 586.12,256.90 587.69,256.14 589.25,255.38 590.81,254.62 592.37,253.87 593.94,253.11 595.50,252.36 597.06,251.61 598.63,250.86 600.19,250.10 601.75,249.35 603.32,248.60 604.88,247.85 606.44,247.11 608.01,246.36 609.57,245.61 611.13,244.87 612.70,244.12 614.26,243.38 615.82,242.64 617.38,241.89 618.95,241.15 620.51,240.41 622.07,239.67 623.64,238.93 625.20,238.19 626.76,237.46 628.33,236.72 629.89,235.98 631.45,235.25 633.02,234.51 634.58,233.78 636.14,233.05 637.71,232.32 639.27,231.59 640.83,230.86 642.39,230.13 643.96,229.40 645.52,228.67 647.08,227.94 648.65,227.22 650.21,226.49 651.77,225.77 653.34,225.04 654.90,224.32 656.46,223.60 658.03,222.88 659.59,222.16 661.15,221.44 662.72,220.72 664.28,220.00 665.84,219.28 667.40,218.57 668.97,217.85 670.53,217.14 672.09,216.42 673.66,215.71 675.22,215.00 676.78,214.29 678.35,213.58 679.91,212.87 681.47,212.16 683.04,211.45 684.60,210.74 686.16,210.03 687.73,209.33 689.29,208.62 690.85,207.92 692.41,207.22 693.98,206.51 695.54,205.81 697.10,205.11 698.67,204.41 700.23,203.71 701.79,203.01 703.36,202.32 704.92,201.62 706.48,200.92 708.05,200.23 709.61,199.53 711.17,198.84 712.74,198.15 714.30,197.46 715.86,196.76 717.42,196.07 718.99,195.38 720.55,194.70 722.11,194.01 723.68,193.32 725.24,192.63 726.80,191.95 728.37,191.26 729.93,190.58 731.49,189.90 733.06,189.22 734.62,188.53 736.18,187.85 737.75,187.17 739.31,186.50 740.87,185.82 742.43,185.14 744.00,184.46 745.56,183.79 747.12,183.11 748.69,182.44 750.25,181.77 751.81,181.09 753.38,180.42 754.94,179.75 756.50,179.08 758.07,178.41 759.63,177.74 761.19,177.08 762.76,176.41 764.32,175.74 765.88,175.08 767.44,174.41 769.01,173.75 770.57,173.09 772.13,172.43 773.70,171.77 775.26,171.11 776.82,170.45 778.39,169.79 779.95,169.13 781.51,168.47 783.08,167.82 784.64,167.16 786.20,166.51 787.77,165.85 789.33,165.20 790.89,164.55 792.45,163.90 794.02,163.25 795.58,162.60 797.14,161.95 798.71,161.30 800.27,160.65 801.83,160.01 803.40,159.36 804.96,158.72 806.52,158.07 808.09,157.43 809.65,156.79 811.21,156.15 812.78,155.51 814.34,154.87 815.90,154.23 817.46,153.59 819.03,152.95 820.59,152.31 822.15,151.68 823.72,151.04 825.28,150.41 826.84,149.78 828.41,149.14 829.97,148.51 831.53,147.88 833.10,147.25 834.66,146.62 836.22,145.99 837.79,145.37 839.35,144.74 840.91,144.11 842.47,143.49 844.04,142.86 845.60,142.24 847.16,141.62 848.73,141.00 850.29,140.37 851.85,139.75 853.42,139.13 854.98,138.52 856.54,137.90 858.11,137.28 859.67,136.66 861.23,136.05 862.80,135.43 864.36,134.82 865.92,134.21 867.48,133.60 869.05,132.98 870.61,132.37 872.17,131.76 873.74,131.16 875.30,130.55 876.86,129.94 878.43,129.33 879.99,128.73 881.55,128.12 883.12,127.52 884.68,126.92 886.24,126.31 887.81,125.71 889.37,125.11 890.93,124.51 892.49,123.91 894.06,123.31 895.62,122.72 897.18,122.12 898.75,121.52 900.31,120.93 901.87,120.33 903.44,119.74 905.00,119.15" fill="none" stroke="#0b7285" stroke-width="2.7"/>
  <polyline points="125.00,514.95 126.56,513.83 128.13,512.72 129.69,511.61 131.25,510.51 132.82,509.41 134.38,508.32 135.94,507.23 137.51,506.14 139.07,505.06 140.63,503.99 142.19,502.92 143.76,501.85 145.32,500.79 146.88,499.73 148.45,498.67 150.01,497.62 151.57,496.57 153.14,495.52 154.70,494.48 156.26,493.44 157.83,492.40 159.39,491.37 160.95,490.34 162.52,489.31 164.08,488.29 165.64,487.27 167.20,486.25 168.77,485.24 170.33,484.23 171.89,483.22 173.46,482.21 175.02,481.21 176.58,480.21 178.15,479.21 179.71,478.21 181.27,477.22 182.84,476.23 184.40,475.24 185.96,474.26 187.53,473.27 189.09,472.29 190.65,471.31 192.21,470.34 193.78,469.36 195.34,468.39 196.90,467.42 198.47,466.45 200.03,465.49 201.59,464.52 203.16,463.56 204.72,462.60 206.28,461.64 207.85,460.69 209.41,459.73 210.97,458.78 212.54,457.83 214.10,456.89 215.66,455.94 217.22,455.00 218.79,454.05 220.35,453.11 221.91,452.17 223.48,451.24 225.04,450.30 226.60,449.37 228.17,448.44 229.73,447.51 231.29,446.58 232.86,445.65 234.42,444.73 235.98,443.80 237.55,442.88 239.11,441.96 240.67,441.04 242.23,440.12 243.80,439.21 245.36,438.29 246.92,437.38 248.49,436.47 250.05,435.56 251.61,434.65 253.18,433.74 254.74,432.84 256.30,431.93 257.87,431.03 259.43,430.13 260.99,429.23 262.56,428.33 264.12,427.43 265.68,426.54 267.24,425.64 268.81,424.75 270.37,423.86 271.93,422.97 273.50,422.08 275.06,421.19 276.62,420.30 278.19,419.41 279.75,418.53 281.31,417.65 282.88,416.76 284.44,415.88 286.00,415.00 287.57,414.12 289.13,413.25 290.69,412.37 292.25,411.50 293.82,410.62 295.38,409.75 296.94,408.88 298.51,408.01 300.07,407.14 301.63,406.27 303.20,405.40 304.76,404.54 306.32,403.67 307.89,402.81 309.45,401.94 311.01,401.08 312.58,400.22 314.14,399.36 315.70,398.50 317.26,397.64 318.83,396.79 320.39,395.93 321.95,395.07 323.52,394.22 325.08,393.37 326.64,392.52 328.21,391.66 329.77,390.81 331.33,389.97 332.90,389.12 334.46,388.27 336.02,387.42 337.59,386.58 339.15,385.73 340.71,384.89 342.27,384.05 343.84,383.21 345.40,382.37 346.96,381.53 348.53,380.69 350.09,379.85 351.65,379.01 353.22,378.17 354.78,377.34 356.34,376.50 357.91,375.67 359.47,374.84 361.03,374.00 362.60,373.17 364.16,372.34 365.72,371.51 367.28,370.68 368.85,369.86 370.41,369.03 371.97,368.20 373.54,367.38 375.10,366.55 376.66,365.73 378.23,364.90 379.79,364.08 381.35,363.26 382.92,362.44 384.48,361.62 386.04,360.80 387.61,359.98 389.17,359.16 390.73,358.35 392.29,357.53 393.86,356.71 395.42,355.90 396.98,355.09 398.55,354.27 400.11,353.46 401.67,352.65 403.24,351.84 404.80,351.02 406.36,350.22 407.93,349.41 409.49,348.60 411.05,347.79 412.62,346.98 414.18,346.18 415.74,345.37 417.30,344.57 418.87,343.76 420.43,342.96 421.99,342.15 423.56,341.35 425.12,340.55 426.68,339.75 428.25,338.95 429.81,338.15 431.37,337.35 432.94,336.55 434.50,335.75 436.06,334.96 437.63,334.16 439.19,333.37 440.75,332.57 442.31,331.78 443.88,330.98 445.44,330.19 447.00,329.40 448.57,328.60 450.13,327.81 451.69,327.02 453.26,326.23 454.82,325.44 456.38,324.65 457.95,323.86 459.51,323.08 461.07,322.29 462.64,321.50 464.20,320.72 465.76,319.93 467.32,319.15 468.89,318.36 470.45,317.58 472.01,316.80 473.58,316.01 475.14,315.23 476.70,314.45 478.27,313.67 479.83,312.89 481.39,312.11 482.96,311.33 484.52,310.55 486.08,309.77 487.65,309.00 489.21,308.22 490.77,307.44 492.33,306.67 493.90,305.89 495.46,305.12 497.02,304.34 498.59,303.57 500.15,302.80 501.71,302.02 503.28,301.25 504.84,300.48 506.40,299.71 507.97,298.94 509.53,298.17 511.09,297.40 512.66,296.63 514.22,295.86 515.78,295.09 517.34,294.33 518.91,293.56 520.47,292.79 522.03,292.03 523.60,291.26 525.16,290.50 526.72,289.73 528.29,288.97 529.85,288.20 531.41,287.44 532.98,286.68 534.54,285.92 536.10,285.16 537.67,284.39 539.23,283.63 540.79,282.87 542.35,282.11 543.92,281.36 545.48,280.60 547.04,279.84 548.61,279.08 550.17,278.32 551.73,277.57 553.30,276.81 554.86,276.06 556.42,275.30 557.99,274.55 559.55,273.79 561.11,273.04 562.68,272.28 564.24,271.53 565.80,270.78 567.36,270.03 568.93,269.27 570.49,268.52 572.05,267.77 573.62,267.02 575.18,266.27 576.74,265.52 578.31,264.77 579.87,264.02 581.43,263.28 583.00,262.53 584.56,261.78 586.12,261.03 587.69,260.29 589.25,259.54 590.81,258.80 592.37,258.05 593.94,257.31 595.50,256.56 597.06,255.82 598.63,255.07 600.19,254.33 601.75,253.59 603.32,252.85 604.88,252.10 606.44,251.36 608.01,250.62 609.57,249.88 611.13,249.14 612.70,248.40 614.26,247.66 615.82,246.92 617.38,246.18 618.95,245.45 620.51,244.71 622.07,243.97 623.64,243.23 625.20,242.50 626.76,241.76 628.33,241.03 629.89,240.29 631.45,239.55 633.02,238.82 634.58,238.09 636.14,237.35 637.71,236.62 639.27,235.89 640.83,235.15 642.39,234.42 643.96,233.69 645.52,232.96 647.08,232.23 648.65,231.49 650.21,230.76 651.77,230.03 653.34,229.30 654.90,228.58 656.46,227.85 658.03,227.12 659.59,226.39 661.15,225.66 662.72,224.93 664.28,224.21 665.84,223.48 667.40,222.75 668.97,222.03 670.53,221.30 672.09,220.58 673.66,219.85 675.22,219.13 676.78,218.40 678.35,217.68 679.91,216.96 681.47,216.23 683.04,215.51 684.60,214.79 686.16,214.06 687.73,213.34 689.29,212.62 690.85,211.90 692.41,211.18 693.98,210.46 695.54,209.74 697.10,209.02 698.67,208.30 700.23,207.58 701.79,206.86 703.36,206.14 704.92,205.43 706.48,204.71 708.05,203.99 709.61,203.27 711.17,202.56 712.74,201.84 714.30,201.12 715.86,200.41 717.42,199.69 718.99,198.98 720.55,198.26 722.11,197.55 723.68,196.84 725.24,196.12 726.80,195.41 728.37,194.69 729.93,193.98 731.49,193.27 733.06,192.56 734.62,191.85 736.18,191.13 737.75,190.42 739.31,189.71 740.87,189.00 742.43,188.29 744.00,187.58 745.56,186.87 747.12,186.16 748.69,185.45 750.25,184.74 751.81,184.04 753.38,183.33 754.94,182.62 756.50,181.91 758.07,181.21 759.63,180.50 761.19,179.79 762.76,179.09 764.32,178.38 765.88,177.68 767.44,176.97 769.01,176.26 770.57,175.56 772.13,174.86 773.70,174.15 775.26,173.45 776.82,172.74 778.39,172.04 779.95,171.34 781.51,170.64 783.08,169.93 784.64,169.23 786.20,168.53 787.77,167.83 789.33,167.13 790.89,166.43 792.45,165.73 794.02,165.03 795.58,164.33 797.14,163.63 798.71,162.93 800.27,162.23 801.83,161.53 803.40,160.83 804.96,160.13 806.52,159.43 808.09,158.74 809.65,158.04 811.21,157.34 812.78,156.64 814.34,155.95 815.90,155.25 817.46,154.55 819.03,153.86 820.59,153.16 822.15,152.47 823.72,151.77 825.28,151.08 826.84,150.38 828.41,149.69 829.97,149.00 831.53,148.30 833.10,147.61 834.66,146.92 836.22,146.22 837.79,145.53 839.35,144.84 840.91,144.15 842.47,143.46 844.04,142.76 845.60,142.07 847.16,141.38 848.73,140.69 850.29,140.00 851.85,139.31 853.42,138.62 854.98,137.93 856.54,137.24 858.11,136.55 859.67,135.86 861.23,135.18 862.80,134.49 864.36,133.80 865.92,133.11 867.48,132.42 869.05,131.74 870.61,131.05 872.17,130.36 873.74,129.68 875.30,128.99 876.86,128.30 878.43,127.62 879.99,126.93 881.55,126.25 883.12,125.56 884.68,124.88 886.24,124.19 887.81,123.51 889.37,122.83 890.93,122.14 892.49,121.46 894.06,120.78 895.62,120.09 897.18,119.41 898.75,118.73 900.31,118.05 901.87,117.36 903.44,116.68 905.00,116.00" fill="none" stroke="#d9480f" stroke-width="2.7" stroke-dasharray="8,5"/>
  <circle cx="125.00" cy="512.28" r="4.5" fill="#111827"/>
  <text x="132.00" y="505.28" font-size="11" font-family="Arial" fill="#111827">P0</text>
  <circle cx="222.54" cy="460.89" r="4.5" fill="#111827"/>
  <text x="229.54" y="453.89" font-size="11" font-family="Arial" fill="#111827">P1</text>
  <circle cx="320.07" cy="398.52" r="4.5" fill="#111827"/>
  <text x="327.07" y="391.52" font-size="11" font-family="Arial" fill="#111827">P2</text>
  <circle cx="417.61" cy="341.82" r="4.5" fill="#111827"/>
  <text x="424.61" y="334.82" font-size="11" font-family="Arial" fill="#111827">P3</text>
  <circle cx="515.15" cy="291.94" r="4.5" fill="#111827"/>
  <text x="522.15" y="284.94" font-size="11" font-family="Arial" fill="#111827">P4</text>
  <circle cx="612.39" cy="242.18" r="4.5" fill="#111827"/>
  <text x="619.39" y="235.18" font-size="11" font-family="Arial" fill="#111827">P5</text>
  <circle cx="709.93" cy="197.26" r="4.5" fill="#111827"/>
  <text x="716.93" y="190.26" font-size="11" font-family="Arial" fill="#111827">P6</text>
  <circle cx="807.46" cy="162.72" r="4.5" fill="#111827"/>
  <text x="814.46" y="155.72" font-size="11" font-family="Arial" fill="#111827">P7</text>
  <circle cx="905.00" cy="117.45" r="4.5" fill="#111827"/>
  <text x="912.00" y="110.45" font-size="11" font-family="Arial" fill="#111827">P8</text>
  <line x1="96.00" y1="82.00" x2="124.00" y2="82.00" stroke="#0b7285" stroke-width="2.7"/>
  <text x="132.00" y="86.00" font-size="12" font-family="Arial" fill="#1f2933">закон 1</text>
  <line x1="96.00" y1="104.00" x2="124.00" y2="104.00" stroke="#d9480f" stroke-width="2.7" stroke-dasharray="8,5"/>
  <text x="132.00" y="108.00" font-size="12" font-family="Arial" fill="#1f2933">закон 3</text>
  <text x="954.00" y="391.80" font-size="16" font-family="Arial" fill="#1f2933">x</text>
  <text x="94.00" y="54.00" font-size="16" font-family="Arial" fill="#1f2933">y</text>
</svg>