<svg xmlns="http://www.w3.org/2000/svg" width="1002" height="1564" viewBox="0 0 1002 1564">
  <rect x="0" y="0" width="1002" height="1564" fill="white"/>
  <text x="501" y="38" text-anchor="middle" font-size="26" font-family="Arial" fill="#1f2933">Моделирование 10 аппроксимирующих законов</text>
  <rect x="64.00" y="82.00" width="420" height="250" rx="0" fill="#ffffff" stroke="#0b7285" stroke-width="2"/>
  <text x="78.00" y="104.00" font-size="14" font-family="Arial" fill="#0b7285">Закон 1: y = ax² + bx + c</text>
  <text x="410.00" y="104.00" font-size="12" font-family="Arial" fill="#0b7285">выбран</text>
  <line x1="220.15" y1="116.00" x2="220.15" y2="294.00" stroke="#eef2f5" stroke-width="1"/>
  <text x="220.15" y="312.00" text-anchor="middle" font-size="10" font-family="Arial" fill="#59636e">1,0</text>
  <line x1="344.30" y1="116.00" x2="344.30" y2="294.00" stroke="#eef2f5" stroke-width="1"/>
  <text x="344.30" y="312.00" text-anchor="middle" font-size="10" font-family="Arial" fill="#59636e">2,0</text>
  <line x1="110.00" y1="282.77" x2="466.00" y2="282.77" stroke="#eef2f5" stroke-width="1"/>
  <text x="102.00" y="285.77" text-anchor="end" font-size="10" font-family="Arial" fill="#59636e">−2,5</text>
  <line x1="110.00" y1="230.24" x2="466.00" y2="230.24" stroke="#eef2f5" stroke-width="1"/>
  <text x="102.00" y="233.24" text-anchor="end" font-size="10" font-family="Arial" fill="#59636e">0,0</text>
  <line x1="110.00" y1="177.71" x2="466.00" y2="177.71" stroke="#eef2f5" stroke-width="1"/>
  <text x="102.00" y="180.71" text-anchor="end" font-size="10" font-family="Arial" fill="#59636e">2,5</text>
  <line x1="110.00" y1="125.18" x2="466.00" y2="125.18" stroke="#eef2f5" stroke-width="1"/>
  <text x="102.00" y="128.18" text-anchor="end" font-size="10" font-family="Arial" fill="#59636e">5,0</text>
  <polyline points="123.19,276.77 124.69,275.96 126.20,275.14 127.70,274.32 129.21,273.51 130.71,272.70 132.22,271.89 133.72,271.08 135.23,270.27 136.73,269.46 138.24,268.66 139.74,267.85 141.25,267.05 142.75,266.25 144.26,265.45 145.76,264.66 147.27,263.86 148.77,263.07 150.28,262.27 151.78,261.48 153.29,260.69 154.79,259.90 156.30,259.12 157.80,258.33 159.31,257.55 160.81,256.77 162.32,255.99 163.82,255.21 165.33,254.43 166.83,253.65 168.34,252.88 169.85,252.11 171.35,251.33 172.86,250.56 174.36,249.80 175.87,249.03 177.37,248.26 178.88,247.50 180.38,246.74 181.89,245.98 183.39,245.22 184.90,244.46 186.40,243.70 187.91,242.95 189.41,242.20 190.92,241.44 192.42,240.69 193.93,239.95 195.43,239.20 196.94,238.45 198.44,237.71 199.95,236.97 201.45,236.23 202.96,235.49 204.46,234.75 205.97,234.01 207.47,233.28 208.98,232.54 210.48,231.81 211.99,231.08 213.49,230.35 215.00,229.63 216.50,228.90 218.01,228.18 219.52,227.45 221.02,226.73 222.53,226.01 224.03,225.29 225.54,224.58 227.04,223.86 228.55,223.15 230.05,222.44 231.56,221.73 233.06,221.02 234.57,220.31 236.07,219.60 237.58,218.90 239.08,218.20 240.59,217.50 242.09,216.80 243.60,216.10 245.10,215.40 246.61,214.70 248.11,214.01 249.62,213.32 251.12,212.63 252.63,211.94 254.13,211.25 255.64,210.56 257.14,209.88 258.65,209.20 260.15,208.52 261.66,207.84 263.16,207.16 264.67,206.48 266.18,205.80 267.68,205.13 269.19,204.46 270.69,203.79 272.20,203.12 273.70,202.45 275.21,201.78 276.71,201.12 278.22,200.46 279.72,199.79 281.23,199.13 282.73,198.47 284.24,197.82 285.74,197.16 287.25,196.51 288.75,195.85 290.26,195.20 291.76,194.55 293.27,193.91 294.77,193.26 296.28,192.61 297.78,191.97 299.29,191.33 300.79,190.69 302.30,190.05 303.80,189.41 305.31,188.78 306.81,188.14 308.32,187.51 309.82,186.88 311.33,186.25 312.84,185.62 314.34,184.99 315.85,184.37 317.35,183.74 318.86,183.12 320.36,182.50 321.87,181.88 323.37,181.26 324.88,180.65 326.38,180.03 327.89,179.42 329.39,178.81 330.90,178.20 332.40,177.59 333.91,176.98 335.41,176.38 336.92,175.77 338.42,175.17 339.93,174.57 341.43,173.97 342.94,173.37 344.44,172.78 345.95,172.18 347.45,171.59 348.96,171.00 350.46,170.41 351.97,169.82 353.47,169.23 354.98,168.64 356.48,168.06 357.99,167.48 359.50,166.90 361.00,166.32 362.51,165.74 364.01,165.16 365.52,164.59 367.02,164.01 368.53,163.44 370.03,162.87 371.54,162.30 373.04,161.73 374.55,161.17 376.05,160.60 377.56,160.04 379.06,159.48 380.57,158.92 382.07,158.36 383.58,157.80 385.08,157.25 386.59,156.70 388.09,156.14 389.60,155.59 391.10,155.04 392.61,154.50 394.11,153.95 395.62,153.40 397.12,152.86 398.63,152.32 400.13,151.78 401.64,151.24 403.14,150.70 404.65,150.17 406.15,149.64 407.66,149.10 409.17,148.57 410.67,148.04 412.18,147.51 413.68,146.99 415.19,146.46 416.69,145.94 418.20,145.42 419.70,144.90 421.21,144.38 422.71,143.86 424.22,143.35 425.72,142.83 427.23,142.32 428.73,141.81 430.24,141.30 431.74,140.79 433.25,140.28 434.75,139.78 436.26,139.28 437.76,138.77 439.27,138.27 440.77,137.77 442.28,137.28 443.78,136.78 445.29,136.29 446.79,135.79 448.30,135.30 449.80,134.81 451.31,134.32 452.81,133.84" fill="none" stroke="#0b7285" stroke-width="2.4"/>
  <circle cx="123.19" cy="275.44" r="3.1" fill="#111827"/>
  <circle cx="164.40" cy="256.92" r="3.1" fill="#111827"/>
  <circle cx="205.62" cy="234.46" r="3.1" fill="#111827"/>
  <circle cx="246.84" cy="214.04" r="3.1" fill="#111827"/>
  <circle cx="288.06" cy="196.07" r="3.1" fill="#111827"/>
  <circle cx="329.16" cy="178.15" r="3.1" fill="#111827"/>
  <circle cx="370.38" cy="161.97" r="3.1" fill="#111827"/>
  <circle cx="411.60" cy="149.53" r="3.1" fill="#111827"/>
  <circle cx="452.81" cy="133.23" r="3.1" fill="#111827"/>
  <rect x="518.00" y="82.00" width="420" height="250" rx="0" fill="#ffffff" stroke="#d7dde3" stroke-width="1"/>
  <text x="532.00" y="104.00" font-size="14" font-family="Arial" fill="#1f2933">Закон 2: y = a/x² + b/x + c</text>
  <line x1="674.15" y1="116.00" x2="674.15" y2="294.00" stroke="#eef2f5" stroke-width="1"/>
  <text x="674.15" y="312.00" text-anchor="middle" font-size="10" font-family="Arial" fill="#59636e">1,0</text>
  <line x1="798.30" y1="116.00" x2="798.30" y2="294.00" stroke="#eef2f5" stroke-width="1"/>
  <text x="798.30" y="312.00" text-anchor="middle" font-size="10" font-family="Arial" fill="#59636e">2,0</text>
  <line x1="564.00" y1="211.95" x2="920.00" y2="211.95" stroke="#eef2f5" stroke-width="1"/>
  <text x="556.00" y="214.95" text-anchor="end" font-size="10" font-family="Arial" fill="#59636e">0,0</text>
  <line x1="564.00" y1="126.70" x2="920.00" y2="126.70" stroke="#eef2f5" stroke-width="1"/>
  <text x="556.00" y="129.70" text-anchor="end" font-size="10" font-family="Arial" fill="#59636e">5,0</text>
  <polyline points="577.19,247.49 578.69,256.89 580.20,263.80 581.70,268.78 583.21,272.28 584.71,274.60 586.22,276.00 587.72,276.68 589.23,276.77 590.73,276.42 592.24,275.70 593.74,274.70 595.25,273.47 596.75,272.06 598.26,270.53 599.76,268.88 601.27,267.16 602.77,265.38 604.28,263.57 605.78,261.72 607.29,259.87 608.79,258.00 610.30,256.15 611.80,254.30 613.31,252.46 614.81,250.65 616.32,248.85 617.82,247.08 619.33,245.33 620.83,243.62 622.34,241.93 623.85,240.27 625.35,238.64 626.86,237.04 628.36,235.47 629.87,233.93 631.37,232.42 632.88,230.94 634.38,229.49 635.89,228.08 637.39,226.69 638.90,225.32 640.40,223.99 641.91,222.68 643.41,221.41 644.92,220.15 646.42,218.93 647.93,217.72 649.43,216.55 650.94,215.39 652.44,214.26 653.95,213.16 655.45,212.07 656.96,211.01 658.46,209.97 659.97,208.95 661.47,207.94 662.98,206.96 664.48,206.00 665.99,205.06 667.49,204.13 669.00,203.22 670.50,202.33 672.01,201.46 673.52,200.60 675.02,199.76 676.53,198.94 678.03,198.13 679.54,197.33 681.04,196.55 682.55,195.78 684.05,195.03 685.56,194.29 687.06,193.56 688.57,192.85 690.07,192.14 691.58,191.45 693.08,190.78 694.59,190.11 696.09,189.45 697.60,188.81 699.10,188.18 700.61,187.55 702.11,186.94 703.62,186.34 705.12,185.74 706.63,185.16 708.13,184.58 709.64,184.02 711.14,183.46 712.65,182.91 714.15,182.38 715.66,181.84 717.16,181.32 718.67,180.81 720.18,180.30 721.68,179.80 723.19,179.31 724.69,178.82 726.20,178.34 727.70,177.87 729.21,177.41 730.71,176.95 732.22,176.50 733.72,176.06 735.23,175.62 736.73,175.19 738.24,174.76 739.74,174.34 741.25,173.93 742.75,173.52 744.26,173.11 745.76,172.72 747.27,172.32 748.77,171.94 750.28,171.55 751.78,171.18 753.29,170.80 754.79,170.44 756.30,170.07 757.80,169.72 759.31,169.36 760.81,169.01 762.32,168.67 763.82,168.33 765.33,167.99 766.84,167.66 768.34,167.33 769.85,167.01 771.35,166.69 772.86,166.37 774.36,166.06 775.87,165.75 777.37,165.45 778.88,165.15 780.38,164.85 781.89,164.56 783.39,164.27 784.90,163.98 786.40,163.69 787.91,163.41 789.41,163.14 790.92,162.86 792.42,162.59 793.93,162.32 795.43,162.06 796.94,161.79 798.44,161.53 799.95,161.28 801.45,161.02 802.96,160.77 804.46,160.52 805.97,160.28 807.47,160.03 808.98,159.79 810.48,159.56 811.99,159.32 813.50,159.09 815.00,158.86 816.51,158.63 818.01,158.40 819.52,158.18 821.02,157.96 822.53,157.74 824.03,157.52 825.54,157.31 827.04,157.09 828.55,156.88 830.05,156.67 831.56,156.47 833.06,156.26 834.57,156.06 836.07,155.86 837.58,155.66 839.08,155.47 840.59,155.27 842.09,155.08 843.60,154.89 845.10,154.70 846.61,154.51 848.11,154.32 849.62,154.14 851.12,153.96 852.63,153.78 854.13,153.60 855.64,153.42 857.14,153.25 858.65,153.07 860.15,152.90 861.66,152.73 863.17,152.56 864.67,152.39 866.18,152.22 867.68,152.06 869.19,151.90 870.69,151.73 872.20,151.57 873.70,151.41 875.21,151.26 876.71,151.10 878.22,150.94 879.72,150.79 881.23,150.64 882.73,150.49 884.24,150.34 885.74,150.19 887.25,150.04 888.75,149.89 890.26,149.75 891.76,149.61 893.27,149.46 894.77,149.32 896.28,149.18 897.78,149.04 899.29,148.90 900.79,148.77 902.30,148.63 903.80,148.50 905.31,148.36 906.81,148.23" fill="none" stroke="#7b8794" stroke-width="1.8"/>
  <circle cx="577.19" cy="248.62" r="3.1" fill="#111827"/>
  <circle cx="618.40" cy="233.60" r="3.1" fill="#111827"/>
  <circle cx="659.62" cy="215.37" r="3.1" fill="#111827"/>
  <circle cx="700.84" cy="198.80" r="3.1" fill="#111827"/>
  <circle cx="742.06" cy="184.22" r="3.1" fill="#111827"/>
  <circle cx="783.16" cy="169.68" r="3.1" fill="#111827"/>
  <circle cx="824.38" cy="156.55" r="3.1" fill="#111827"/>
  <circle cx="865.60" cy="146.46" r="3.1" fill="#111827"/>
  <circle cx="906.81" cy="133.23" r="3.1" fill="#111827"/>
  <rect x="64.00" y="376.00" width="420" height="250" rx="0" fill="#ffffff" stroke="#0b7285" stroke-width="2"/>
  <text x="78.00" y="398.00" font-size="14" font-family="Arial" fill="#0b7285">Закон 3: y = b·xᵃ + c</text>
  <text x="410.00" y="398.00" font-size="12" font-family="Arial" fill="#0b7285">выбран</text>
  <line x1="220.15" y1="410.00" x2="220.15" y2="588.00" stroke="#eef2f5" stroke-width="1"/>
  <text x="220.15" y="606.00" text-anchor="middle" font-size="10" font-family="Arial" fill="#59636e">1,0</text>
  <line x1="344.30" y1="410.00" x2="344.30" y2="588.00" stroke="#eef2f5" stroke-width="1"/>
  <text x="344.30" y="606.00" text-anchor="middle" font-size="10" font-family="Arial" fill="#59636e">2,0</text>
  <line x1="110.00" y1="577.14" x2="466.00" y2="577.14" stroke="#eef2f5" stroke-width="1"/>
  <text x="102.00" y="580.14" text-anchor="end" font-size="10" font-family="Arial" fill="#59636e">−2,5</text>
  <line x1="110.00" y1="524.66" x2="466.00" y2="524.66" stroke="#eef2f5" stroke-width="1"/>
  <text x="102.00" y="527.66" text-anchor="end" font-size="10" font-family="Arial" fill="#59636e">0,0</text>
  <line x1="110.00" y1="472.19" x2="466.00" y2="472.19" stroke="#eef2f5" stroke-width="1"/>
  <text x="102.00" y="475.19" text-anchor="end" font-size="10" font-family="Arial" fill="#59636e">2,5</text>
  <line x1="110.00" y1="419.71" x2="466.00" y2="419.71" stroke="#eef2f5" stroke-width="1"/>
  <text x="102.00" y="422.71" text-anchor="end" font-size="10" font-family="Arial" fill="#59636e">5,0</text>
  <polyline points="123.19,570.77 124.69,569.86 126.20,568.96 127.70,568.06 129.21,567.17 130.71,566.29 132.22,565.42 133.72,564.56 135.23,563.70 136.73,562.85 138.24,562.00 139.74,561.16 141.25,560.32 142.75,559.50 144.26,558.67 145.76,557.85 147.27,557.04 148.77,556.23 150.28,555.42 151.78,554.62 153.29,553.82 154.79,553.03 156.30,552.24 157.80,551.45 159.31,550.67 160.81,549.90 162.32,549.12 163.82,548.35 165.33,547.58 166.83,546.82 168.34,546.05 169.85,545.30 171.35,544.54 172.86,543.79 174.36,543.04 175.87,542.29 177.37,541.55 178.88,540.80 180.38,540.07 181.89,539.33 183.39,538.60 184.90,537.86 186.40,537.13 187.91,536.41 189.41,535.68 190.92,534.96 192.42,534.24 193.93,533.52 195.43,532.81 196.94,532.09 198.44,531.38 199.95,530.67 201.45,529.96 202.96,529.26 204.46,528.55 205.97,527.85 207.47,527.15 208.98,526.45 210.48,525.76 211.99,525.06 213.49,524.37 215.00,523.68 216.50,522.99 218.01,522.30 219.52,521.61 221.02,520.93 222.53,520.25 224.03,519.56 225.54,518.88 227.04,518.21 228.55,517.53 230.05,516.85 231.56,516.18 233.06,515.51 234.57,514.83 236.07,514.16 237.58,513.50 239.08,512.83 240.59,512.16 242.09,511.50 243.60,510.84 245.10,510.17 246.61,509.51 248.11,508.85 249.62,508.20 251.12,507.54 252.63,506.88 254.13,506.23 255.64,505.58 257.14,504.93 258.65,504.28 260.15,503.63 261.66,502.98 263.16,502.33 264.67,501.68 266.18,501.04 267.68,500.40 269.19,499.75 270.69,499.11 272.20,498.47 273.70,497.83 275.21,497.19 276.71,496.55 278.22,495.92 279.72,495.28 281.23,494.65 282.73,494.01 284.24,493.38 285.74,492.75 287.25,492.12 288.75,491.49 290.26,490.86 291.76,490.23 293.27,489.61 294.77,488.98 296.28,488.36 297.78,487.73 299.29,487.11 300.79,486.49 302.30,485.87 303.80,485.25 305.31,484.63 306.81,484.01 308.32,483.39 309.82,482.77 311.33,482.16 312.84,481.54 314.34,480.93 315.85,480.31 317.35,479.70 318.86,479.09 320.36,478.48 321.87,477.86 323.37,477.26 324.88,476.65 326.38,476.04 327.89,475.43 329.39,474.82 330.90,474.22 332.40,473.61 333.91,473.01 335.41,472.40 336.92,471.80 338.42,471.20 339.93,470.60 341.43,470.00 342.94,469.40 344.44,468.80 345.95,468.20 347.45,467.60 348.96,467.00 350.46,466.41 351.97,465.81 353.47,465.22 354.98,464.62 356.48,464.03 357.99,463.43 359.50,462.84 361.00,462.25 362.51,461.66 364.01,461.07 365.52,460.48 367.02,459.89 368.53,459.30 370.03,458.71 371.54,458.12 373.04,457.54 374.55,456.95 376.05,456.36 377.56,455.78 379.06,455.20 380.57,454.61 382.07,454.03 383.58,453.45 385.08,452.86 386.59,452.28 388.09,451.70 389.60,451.12 391.10,450.54 392.61,449.96 394.11,449.38 395.62,448.80 397.12,448.23 398.63,447.65 400.13,447.07 401.64,446.50 403.14,445.92 404.65,445.35 406.15,444.77 407.66,444.20 409.17,443.63 410.67,443.05 412.18,442.48 413.68,441.91 415.19,441.34 416.69,440.77 418.20,440.20 419.70,439.63 421.21,439.06 422.71,438.49 424.22,437.92 425.72,437.36 427.23,436.79 428.73,436.22 430.24,435.66 431.74,435.09 433.25,434.53 434.75,433.96 436.26,433.40 437.76,432.84 439.27,432.27 440.77,431.71 442.28,431.15 443.78,430.59 445.29,430.02 446.79,429.46 448.30,428.90 449.80,428.34 451.31,427.78 452.81,427.23" fill="none" stroke="#0b7285" stroke-width="2.4"/>
  <circle cx="123.19" cy="569.82" r="3.1" fill="#111827"/>
  <circle cx="164.40" cy="551.32" r="3.1" fill="#111827"/>
  <circle cx="205.62" cy="528.88" r="3.1" fill="#111827"/>
  <circle cx="246.84" cy="508.48" r="3.1" fill="#111827"/>
  <circle cx="288.06" cy="490.53" r="3.1" fill="#111827"/>
  <circle cx="329.16" cy="472.63" r="3.1" fill="#111827"/>
  <circle cx="370.38" cy="456.46" r="3.1" fill="#111827"/>
  <circle cx="411.60" cy="444.04" r="3.1" fill="#111827"/>
  <circle cx="452.81" cy="427.75" r="3.1" fill="#111827"/>
  <rect x="518.00" y="376.00" width="420" height="250" rx="0" fill="#ffffff" stroke="#d7dde3" stroke-width="1"/>
  <text x="532.00" y="398.00" font-size="14" font-family="Arial" fill="#1f2933">Закон 4: y = b·eᵃˣ + c</text>
  <line x1="674.15" y1="410.00" x2="674.15" y2="588.00" stroke="#eef2f5" stroke-width="1"/>
  <text x="674.15" y="606.00" text-anchor="middle" font-size="10" font-family="Arial" fill="#59636e">1,0</text>
  <line x1="798.30" y1="410.00" x2="798.30" y2="588.00" stroke="#eef2f5" stroke-width="1"/>
  <text x="798.30" y="606.00" text-anchor="middle" font-size="10" font-family="Arial" fill="#59636e">2,0</text>
  <line x1="564.00" y1="577.76" x2="920.00" y2="577.76" stroke="#eef2f5" stroke-width="1"/>
  <text x="556.00" y="580.76" text-anchor="end" font-size="10" font-family="Arial" fill="#59636e">−2,5</text>
  <line x1="564.00" y1="527.73" x2="920.00" y2="527.73" stroke="#eef2f5" stroke-width="1"/>
  <text x="556.00" y="530.73" text-anchor="end" font-size="10" font-family="Arial" fill="#59636e">0,0</text>
  <line x1="564.00" y1="477.69" x2="920.00" y2="477.69" stroke="#eef2f5" stroke-width="1"/>
  <text x="556.00" y="480.69" text-anchor="end" font-size="10" font-family="Arial" fill="#59636e">2,5</text>
  <line x1="564.00" y1="427.66" x2="920.00" y2="427.66" stroke="#eef2f5" stroke-width="1"/>
  <text x="556.00" y="430.66" text-anchor="end" font-size="10" font-family="Arial" fill="#59636e">5,0</text>
  <polyline points="577.19,564.77 578.69,564.22 580.20,563.68 581.70,563.14 583.21,562.60 584.71,562.05 586.22,561.51 587.72,560.96 589.23,560.42 590.73,559.87 592.24,559.32 593.74,558.77 595.25,558.22 596.75,557.67 598.26,557.12 599.76,556.57 601.27,556.02 602.77,555.47 604.28,554.91 605.78,554.36 607.29,553.80 608.79,553.25 610.30,552.69 611.80,552.13 613.31,551.57 614.81,551.02 616.32,550.46 617.82,549.90 619.33,549.33 620.83,548.77 622.34,548.21 623.85,547.65 625.35,547.08 626.86,546.52 628.36,545.95 629.87,545.39 631.37,544.82 632.88,544.25 634.38,543.68 635.89,543.11 637.39,542.54 638.90,541.97 640.40,541.40 641.91,540.83 643.41,540.25 644.92,539.68 646.42,539.11 647.93,538.53 649.43,537.95 650.94,537.38 652.44,536.80 653.95,536.22 655.45,535.64 656.96,535.06 658.46,534.48 659.97,533.90 661.47,533.32 662.98,532.73 664.48,532.15 665.99,531.56 667.49,530.98 669.00,530.39 670.50,529.81 672.01,529.22 673.52,528.63 675.02,528.04 676.53,527.45 678.03,526.86 679.54,526.27 681.04,525.67 682.55,525.08 684.05,524.49 685.56,523.89 687.06,523.30 688.57,522.70 690.07,522.10 691.58,521.50 693.08,520.91 694.59,520.31 696.09,519.71 697.60,519.10 699.10,518.50 700.61,517.90 702.11,517.30 703.62,516.69 705.12,516.09 706.63,515.48 708.13,514.87 709.64,514.26 711.14,513.66 712.65,513.05 714.15,512.44 715.66,511.83 717.16,511.21 718.67,510.60 720.18,509.99 721.68,509.37 723.19,508.76 724.69,508.14 726.20,507.53 727.70,506.91 729.21,506.29 730.71,505.67 732.22,505.05 733.72,504.43 735.23,503.81 736.73,503.19 738.24,502.56 739.74,501.94 741.25,501.31 742.75,500.69 744.26,500.06 745.76,499.43 747.27,498.80 748.77,498.18 750.28,497.55 751.78,496.91 753.29,496.28 754.79,495.65 756.30,495.02 757.80,494.38 759.31,493.75 760.81,493.11 762.32,492.48 763.82,491.84 765.33,491.20 766.84,490.56 768.34,489.92 769.85,489.28 771.35,488.64 772.86,487.99 774.36,487.35 775.87,486.71 777.37,486.06 778.88,485.41 780.38,484.77 781.89,484.12 783.39,483.47 784.90,482.82 786.40,482.17 787.91,481.52 789.41,480.87 790.92,480.21 792.42,479.56 793.93,478.91 795.43,478.25 796.94,477.59 798.44,476.94 799.95,476.28 801.45,475.62 802.96,474.96 804.46,474.30 805.97,473.64 807.47,472.97 808.98,472.31 810.48,471.65 811.99,470.98 813.50,470.31 815.00,469.65 816.51,468.98 818.01,468.31 819.52,467.64 821.02,466.97 822.53,466.30 824.03,465.63 825.54,464.95 827.04,464.28 828.55,463.60 830.05,462.93 831.56,462.25 833.06,461.57 834.57,460.89 836.07,460.21 837.58,459.53 839.08,458.85 840.59,458.17 842.09,457.49 843.60,456.80 845.10,456.12 846.61,455.43 848.11,454.74 849.62,454.05 851.12,453.37 852.63,452.68 854.13,451.99 855.64,451.29 857.14,450.60 858.65,449.91 860.15,449.21 861.66,448.52 863.17,447.82 864.67,447.13 866.18,446.43 867.68,445.73 869.19,445.03 870.69,444.33 872.20,443.63 873.70,442.92 875.21,442.22 876.71,441.52 878.22,440.81 879.72,440.10 881.23,439.40 882.73,438.69 884.24,437.98 885.74,437.27 887.25,436.56 888.75,435.85 890.26,435.13 891.76,434.42 893.27,433.70 894.77,432.99 896.28,432.27 897.78,431.55 899.29,430.83 900.79,430.11 902.30,429.39 903.80,428.67 905.31,427.95 906.81,427.23" fill="none" stroke="#7b8794" stroke-width="1.8"/>
  <circle cx="577.19" cy="570.77" r="3.1" fill="#111827"/>
  <circle cx="618.40" cy="553.14" r="3.1" fill="#111827"/>
  <circle cx="659.62" cy="531.75" r="3.1" fill="#111827"/>
  <circle cx="700.84" cy="512.30" r="3.1" fill="#111827"/>
  <circle cx="742.06" cy="495.19" r="3.1" fill="#111827"/>
  <circle cx="783.16" cy="478.11" r="3.1" fill="#111827"/>
  <circle cx="824.38" cy="462.70" r="3.1" fill="#111827"/>
  <circle cx="865.60" cy="450.86" r="3.1" fill="#111827"/>
  <circle cx="906.81" cy="435.33" r="3.1" fill="#111827"/>
  <rect x="64.00" y="670.00" width="420" height="250" rx="0" fill="#ffffff" stroke="#d7dde3" stroke-width="1"/>
  <text x="78.00" y="692.00" font-size="14" font-family="Arial" fill="#1f2933">Закон 5: y = b/(x + a) + c</text>
  <line x1="220.15" y1="704.00" x2="220.15" y2="882.00" stroke="#eef2f5" stroke-width="1"/>
  <text x="220.15" y="900.00" text-anchor="middle" font-size="10" font-family="Arial" fill="#59636e">1,0</text>
  <line x1="344.30" y1="704.00" x2="344.30" y2="882.00" stroke="#eef2f5" stroke-width="1"/>
  <text x="344.30" y="900.00" text-anchor="middle" font-size="10" font-family="Arial" fill="#59636e">2,0</text>
  <line x1="110.00" y1="870.58" x2="466.00" y2="870.58" stroke="#eef2f5" stroke-width="1"/>
  <text x="102.00" y="873.58" text-anchor="end" font-size="10" font-family="Arial" fill="#59636e">−2,5</text>
  <line x1="110.00" y1="818.11" x2="466.00" y2="818.11" stroke="#eef2f5" stroke-width="1"/>
  <text x="102.00" y="821.11" text-anchor="end" font-size="10" font-family="Arial" fill="#59636e">0,0</text>
  <line x1="110.00" y1="765.65" x2="466.00" y2="765.65" stroke="#eef2f5" stroke-width="1"/>
  <text x="102.00" y="768.65" text-anchor="end" font-size="10" font-family="Arial" fill="#59636e">2,5</text>
  <line x1="110.00" y1="713.19" x2="466.00" y2="713.19" stroke="#eef2f5" stroke-width="1"/>
  <text x="102.00" y="716.19" text-anchor="end" font-size="10" font-family="Arial" fill="#59636e">5,0</text>
  <polyline points="123.19,864.77 124.69,863.94 126.20,863.10 127.70,862.26 129.21,861.43 130.71,860.60 132.22,859.77 133.72,858.95 135.23,858.12 136.73,857.30 138.24,856.48 139.74,855.66 141.25,854.85 142.75,854.03 144.26,853.22 145.76,852.41 147.27,851.61 148.77,850.80 150.28,850.00 151.78,849.20 153.29,848.40 154.79,847.60 156.30,846.80 157.80,846.01 159.31,845.22 160.81,844.43 162.32,843.64 163.82,842.86 165.33,842.08 166.83,841.29 168.34,840.51 169.85,839.74 171.35,838.96 172.86,838.19 174.36,837.42 175.87,836.65 177.37,835.88 178.88,835.11 180.38,834.35 181.89,833.59 183.39,832.83 184.90,832.07 186.40,831.31 187.91,830.56 189.41,829.80 190.92,829.05 192.42,828.30 193.93,827.56 195.43,826.81 196.94,826.07 198.44,825.32 199.95,824.58 201.45,823.85 202.96,823.11 204.46,822.37 205.97,821.64 207.47,820.91 208.98,820.18 210.48,819.45 211.99,818.73 213.49,818.00 215.00,817.28 216.50,816.56 218.01,815.84 219.52,815.12 221.02,814.41 222.53,813.69 224.03,812.98 225.54,812.27 227.04,811.56 228.55,810.86 230.05,810.15 231.56,809.45 233.06,808.74 234.57,808.04 236.07,807.35 237.58,806.65 239.08,805.95 240.59,805.26 242.09,804.57 243.60,803.88 245.10,803.19 246.61,802.50 248.11,801.81 249.62,801.13 251.12,800.45 252.63,799.77 254.13,799.09 255.64,798.41 257.14,797.73 258.65,797.06 260.15,796.38 261.66,795.71 263.16,795.04 264.67,794.37 266.18,793.71 267.68,793.04 269.19,792.38 270.69,791.72 272.20,791.05 273.70,790.40 275.21,789.74 276.71,789.08 278.22,788.43 279.72,787.77 281.23,787.12 282.73,786.47 284.24,785.82 285.74,785.17 287.25,784.53 288.75,783.88 290.26,783.24 291.76,782.60 293.27,781.96 294.77,781.32 296.28,780.68 297.78,780.05 299.29,779.41 300.79,778.78 302.30,778.15 303.80,777.52 305.31,776.89 306.81,776.26 308.32,775.64 309.82,775.01 311.33,774.39 312.84,773.77 314.34,773.15 315.85,772.53 317.35,771.91 318.86,771.29 320.36,770.68 321.87,770.07 323.37,769.45 324.88,768.84 326.38,768.23 327.89,767.63 329.39,767.02 330.90,766.41 332.40,765.81 333.91,765.21 335.41,764.61 336.92,764.01 338.42,763.41 339.93,762.81 341.43,762.21 342.94,761.62 344.44,761.02 345.95,760.43 347.45,759.84 348.96,759.25 350.46,758.66 351.97,758.08 353.47,757.49 354.98,756.90 356.48,756.32 357.99,755.74 359.50,755.16 361.00,754.58 362.51,754.00 364.01,753.42 365.52,752.85 367.02,752.27 368.53,751.70 370.03,751.13 371.54,750.56 373.04,749.99 374.55,749.42 376.05,748.85 377.56,748.28 379.06,747.72 380.57,747.15 382.07,746.59 383.58,746.03 385.08,745.47 386.59,744.91 388.09,744.35 389.60,743.80 391.10,743.24 392.61,742.69 394.11,742.13 395.62,741.58 397.12,741.03 398.63,740.48 400.13,739.93 401.64,739.38 403.14,738.84 404.65,738.29 406.15,737.75 407.66,737.21 409.17,736.66 410.67,736.12 412.18,735.58 413.68,735.05 415.19,734.51 416.69,733.97 418.20,733.44 419.70,732.90 421.21,732.37 422.71,731.84 424.22,731.31 425.72,730.78 427.23,730.25 428.73,729.72 430.24,729.20 431.74,728.67 433.25,728.15 434.75,727.62 436.26,727.10 437.76,726.58 439.27,726.06 440.77,725.54 442.28,725.02 443.78,724.51 445.29,723.99 446.79,723.48 448.30,722.96 449.80,722.45 451.31,721.94 452.81,721.43" fill="none" stroke="#7b8794" stroke-width="1.8"/>
  <circle cx="123.19" cy="863.25" r="3.1" fill="#111827"/>
  <circle cx="164.40" cy="844.77" r="3.1" fill="#111827"/>
  <circle cx="205.62" cy="822.33" r="3.1" fill="#111827"/>
  <circle cx="246.84" cy="801.94" r="3.1" fill="#111827"/>
  <circle cx="288.06" cy="783.99" r="3.1" fill="#111827"/>
  <circle cx="329.16" cy="766.09" r="3.1" fill="#111827"/>
  <circle cx="370.38" cy="749.93" r="3.1" fill="#111827"/>
  <circle cx="411.60" cy="737.51" r="3.1" fill="#111827"/>
  <circle cx="452.81" cy="721.23" r="3.1" fill="#111827"/>
  <rect x="518.00" y="670.00" width="420" height="250" rx="0" fill="#ffffff" stroke="#d7dde3" stroke-width="1"/>
  <text x="532.00" y="692.00" font-size="14" font-family="Arial" fill="#1f2933">Закон 6: y = ax + b·e⁻ˣ + c</text>
  <line x1="674.15" y1="704.00" x2="674.15" y2="882.00" stroke="#eef2f5" stroke-width="1"/>
  <text x="674.15" y="900.00" text-anchor="middle" font-size="10" font-family="Arial" fill="#59636e">1,0</text>
  <line x1="798.30" y1="704.00" x2="798.30" y2="882.00" stroke="#eef2f5" stroke-width="1"/>
  <text x="798.30" y="900.00" text-anchor="middle" font-size="10" font-family="Arial" fill="#59636e">2,0</text>
  <line x1="564.00" y1="870.09" x2="920.00" y2="870.09" stroke="#eef2f5" stroke-width="1"/>
  <text x="556.00" y="873.09" text-anchor="end" font-size="10" font-family="Arial" fill="#59636e">−2,5</text>
  <line x1="564.00" y1="818.02" x2="920.00" y2="818.02" stroke="#eef2f5" stroke-width="1"/>
  <text x="556.00" y="821.02" text-anchor="end" font-size="10" font-family="Arial" fill="#59636e">0,0</text>
  <line x1="564.00" y1="765.96" x2="920.00" y2="765.96" stroke="#eef2f5" stroke-width="1"/>
  <text x="556.00" y="768.96" text-anchor="end" font-size="10" font-family="Arial" fill="#59636e">2,5</text>
  <line x1="564.00" y1="713.89" x2="920.00" y2="713.89" stroke="#eef2f5" stroke-width="1"/>
  <text x="556.00" y="716.89" text-anchor="end" font-size="10" font-family="Arial" fill="#59636e">5,0</text>
  <polyline points="577.19,864.77 578.69,863.88 580.20,862.99 581.70,862.10 583.21,861.22 584.71,860.34 586.22,859.47 587.72,858.60 589.23,857.73 590.73,856.87 592.24,856.02 593.74,855.16 595.25,854.31 596.75,853.47 598.26,852.63 599.76,851.79 601.27,850.96 602.77,850.13 604.28,849.30 605.78,848.48 607.29,847.66 608.79,846.84 610.30,846.03 611.80,845.22 613.31,844.42 614.81,843.61 616.32,842.81 617.82,842.02 619.33,841.23 620.83,840.44 622.34,839.65 623.85,838.87 625.35,838.09 626.86,837.32 628.36,836.54 629.87,835.77 631.37,835.00 632.88,834.24 634.38,833.48 635.89,832.72 637.39,831.96 638.90,831.21 640.40,830.46 641.91,829.71 643.41,828.97 644.92,828.23 646.42,827.49 647.93,826.75 649.43,826.02 650.94,825.28 652.44,824.55 653.95,823.83 655.45,823.10 656.96,822.38 658.46,821.66 659.97,820.94 661.47,820.23 662.98,819.51 664.48,818.80 665.99,818.10 667.49,817.39 669.00,816.69 670.50,815.98 672.01,815.28 673.52,814.59 675.02,813.89 676.53,813.20 678.03,812.51 679.54,811.82 681.04,811.13 682.55,810.44 684.05,809.76 685.56,809.08 687.06,808.40 688.57,807.72 690.07,807.05 691.58,806.37 693.08,805.70 694.59,805.03 696.09,804.36 697.60,803.69 699.10,803.03 700.61,802.36 702.11,801.70 703.62,801.04 705.12,800.38 706.63,799.73 708.13,799.07 709.64,798.42 711.14,797.76 712.65,797.11 714.15,796.46 715.66,795.81 717.16,795.17 718.67,794.52 720.18,793.88 721.68,793.24 723.19,792.60 724.69,791.96 726.20,791.32 727.70,790.68 729.21,790.05 730.71,789.41 732.22,788.78 733.72,788.15 735.23,787.52 736.73,786.89 738.24,786.26 739.74,785.64 741.25,785.01 742.75,784.39 744.26,783.77 745.76,783.15 747.27,782.53 748.77,781.91 750.28,781.29 751.78,780.67 753.29,780.06 754.79,779.44 756.30,778.83 757.80,778.21 759.31,777.60 760.81,776.99 762.32,776.38 763.82,775.78 765.33,775.17 766.84,774.56 768.34,773.96 769.85,773.35 771.35,772.75 772.86,772.15 774.36,771.54 775.87,770.94 777.37,770.34 778.88,769.74 780.38,769.15 781.89,768.55 783.39,767.95 784.90,767.36 786.40,766.76 787.91,766.17 789.41,765.58 790.92,764.99 792.42,764.39 793.93,763.80 795.43,763.21 796.94,762.63 798.44,762.04 799.95,761.45 801.45,760.86 802.96,760.28 804.46,759.69 805.97,759.11 807.47,758.52 808.98,757.94 810.48,757.36 811.99,756.78 813.50,756.20 815.00,755.62 816.51,755.04 818.01,754.46 819.52,753.88 821.02,753.30 822.53,752.73 824.03,752.15 825.54,751.57 827.04,751.00 828.55,750.42 830.05,749.85 831.56,749.28 833.06,748.70 834.57,748.13 836.07,747.56 837.58,746.99 839.08,746.42 840.59,745.85 842.09,745.28 843.60,744.71 845.10,744.14 846.61,743.57 848.11,743.01 849.62,742.44 851.12,741.87 852.63,741.31 854.13,740.74 855.64,740.18 857.14,739.61 858.65,739.05 860.15,738.49 861.66,737.92 863.17,737.36 864.67,736.80 866.18,736.24 867.68,735.68 869.19,735.12 870.69,734.56 872.20,734.00 873.70,733.44 875.21,732.88 876.71,732.32 878.22,731.76 879.72,731.20 881.23,730.65 882.73,730.09 884.24,729.53 885.74,728.98 887.25,728.42 888.75,727.86 890.26,727.31 891.76,726.75 893.27,726.20 894.77,725.65 896.28,725.09 897.78,724.54 899.29,723.99 900.79,723.43 902.30,722.88 903.80,722.33 905.31,721.78 906.81,721.23" fill="none" stroke="#7b8794" stroke-width="1.8"/>
  <circle cx="577.19" cy="862.82" r="3.1" fill="#111827"/>
  <circle cx="618.40" cy="844.47" r="3.1" fill="#111827"/>
  <circle cx="659.62" cy="822.21" r="3.1" fill="#111827"/>
  <circle cx="700.84" cy="801.97" r="3.1" fill="#111827"/>
  <circle cx="742.06" cy="784.16" r="3.1" fill="#111827"/>
  <circle cx="783.16" cy="766.40" r="3.1" fill="#111827"/>
  <circle cx="824.38" cy="750.36" r="3.1" fill="#111827"/>
  <circle cx="865.60" cy="738.03" r="3.1" fill="#111827"/>
  <circle cx="906.81" cy="721.87" r="3.1" fill="#111827"/>
  <rect x="64.00" y="964.00" width="420" height="250" rx="0" fill="#ffffff" stroke="#d7dde3" stroke-width="1"/>
  <text x="78.00" y="986.00" font-size="14" font-family="Arial" fill="#1f2933">Закон 7: y = a/x + b·eˣ + c</text>
  <line x1="220.15" y1="998.00" x2="220.15" y2="1176.00" stroke="#eef2f5" stroke-width="1"/>
  <text x="220.15" y="1194.00" text-anchor="middle" font-size="10" font-family="Arial" fill="#59636e">1,0</text>
  <line x1="344.30" y1="998.00" x2="344.30" y2="1176.00" stroke="#eef2f5" stroke-width="1"/>
  <text x="344.30" y="1194.00" text-anchor="middle" font-size="10" font-family="Arial" fill="#59636e">2,0</text>
  <line x1="110.00" y1="1158.97" x2="466.00" y2="1158.97" stroke="#eef2f5" stroke-width="1"/>
  <text x="102.00" y="1161.97" text-anchor="end" font-size="10" font-family="Arial" fill="#59636e">−2,5</text>
  <line x1="110.00" y1="1112.11" x2="466.00" y2="1112.11" stroke="#eef2f5" stroke-width="1"/>
  <text x="102.00" y="1115.11" text-anchor="end" font-size="10" font-family="Arial" fill="#59636e">0,0</text>
  <line x1="110.00" y1="1065.25" x2="466.00" y2="1065.25" stroke="#eef2f5" stroke-width="1"/>
  <text x="102.00" y="1068.25" text-anchor="end" font-size="10" font-family="Arial" fill="#59636e">2,5</text>
  <line x1="110.00" y1="1018.38" x2="466.00" y2="1018.38" stroke="#eef2f5" stroke-width="1"/>
  <text x="102.00" y="1021.38" text-anchor="end" font-size="10" font-family="Arial" fill="#59636e">5,0</text>
  <polyline points="123.19,1158.77 124.69,1155.48 126.20,1152.51 127.70,1149.81 129.21,1147.34 130.71,1145.08 132.22,1143.00 133.72,1141.08 135.23,1139.30 136.73,1137.65 138.24,1136.10 139.74,1134.65 141.25,1133.29 142.75,1132.02 144.26,1130.81 145.76,1129.67 147.27,1128.59 148.77,1127.57 150.28,1126.60 151.78,1125.67 153.29,1124.78 154.79,1123.94 156.30,1123.13 157.80,1122.35 159.31,1121.60 160.81,1120.88 162.32,1120.19 163.82,1119.53 165.33,1118.88 166.83,1118.26 168.34,1117.66 169.85,1117.07 171.35,1116.50 172.86,1115.95 174.36,1115.42 175.87,1114.89 177.37,1114.39 178.88,1113.89 180.38,1113.41 181.89,1112.93 183.39,1112.47 184.90,1112.02 186.40,1111.57 187.91,1111.14 189.41,1110.71 190.92,1110.29 192.42,1109.88 193.93,1109.47 195.43,1109.08 196.94,1108.68 198.44,1108.29 199.95,1107.91 201.45,1107.53 202.96,1107.16 204.46,1106.79 205.97,1106.43 207.47,1106.07 208.98,1105.71 210.48,1105.36 211.99,1105.01 213.49,1104.66 215.00,1104.31 216.50,1103.97 218.01,1103.63 219.52,1103.29 221.02,1102.95 222.53,1102.62 224.03,1102.29 225.54,1101.95 227.04,1101.62 228.55,1101.29 230.05,1100.97 231.56,1100.64 233.06,1100.31 234.57,1099.99 236.07,1099.66 237.58,1099.33 239.08,1099.01 240.59,1098.68 242.09,1098.36 243.60,1098.03 245.10,1097.71 246.61,1097.38 248.11,1097.06 249.62,1096.73 251.12,1096.40 252.63,1096.07 254.13,1095.75 255.64,1095.42 257.14,1095.09 258.65,1094.75 260.15,1094.42 261.66,1094.09 263.16,1093.75 264.67,1093.42 266.18,1093.08 267.68,1092.74 269.19,1092.40 270.69,1092.05 272.20,1091.71 273.70,1091.36 275.21,1091.01 276.71,1090.66 278.22,1090.31 279.72,1089.96 281.23,1089.60 282.73,1089.24 284.24,1088.88 285.74,1088.52 287.25,1088.15 288.75,1087.78 290.26,1087.41 291.76,1087.04 293.27,1086.66 294.77,1086.28 296.28,1085.90 297.78,1085.51 299.29,1085.12 300.79,1084.73 302.30,1084.34 303.80,1083.94 305.31,1083.54 306.81,1083.14 308.32,1082.73 309.82,1082.32 311.33,1081.90 312.84,1081.48 314.34,1081.06 315.85,1080.63 317.35,1080.20 318.86,1079.77 320.36,1079.33 321.87,1078.89 323.37,1078.44 324.88,1077.99 326.38,1077.54 327.89,1077.08 329.39,1076.62 330.90,1076.15 332.40,1075.68 333.91,1075.20 335.41,1074.72 336.92,1074.23 338.42,1073.74 339.93,1073.24 341.43,1072.74 342.94,1072.23 344.44,1071.72 345.95,1071.21 347.45,1070.68 348.96,1070.16 350.46,1069.62 351.97,1069.08 353.47,1068.54 354.98,1067.99 356.48,1067.43 357.99,1066.87 359.50,1066.30 361.00,1065.73 362.51,1065.15 364.01,1064.56 365.52,1063.97 367.02,1063.37 368.53,1062.77 370.03,1062.15 371.54,1061.53 373.04,1060.91 374.55,1060.28 376.05,1059.64 377.56,1058.99 379.06,1058.34 380.57,1057.68 382.07,1057.01 383.58,1056.33 385.08,1055.65 386.59,1054.96 388.09,1054.26 389.60,1053.55 391.10,1052.84 392.61,1052.11 394.11,1051.38 395.62,1050.64 397.12,1049.90 398.63,1049.14 400.13,1048.38 401.64,1047.60 403.14,1046.82 404.65,1046.03 406.15,1045.23 407.66,1044.42 409.17,1043.60 410.67,1042.77 412.18,1041.94 413.68,1041.09 415.19,1040.23 416.69,1039.36 418.20,1038.49 419.70,1037.60 421.21,1036.70 422.71,1035.79 424.22,1034.88 425.72,1033.95 427.23,1033.01 428.73,1032.06 430.24,1031.09 431.74,1030.12 433.25,1029.13 434.75,1028.14 436.26,1027.13 437.76,1026.11 439.27,1025.08 440.77,1024.03 442.28,1022.98 443.78,1021.91 445.29,1020.83 446.79,1019.73 448.30,1018.63 449.80,1017.51 451.31,1016.37 452.81,1015.23" fill="none" stroke="#7b8794" stroke-width="1.8"/>
  <circle cx="123.19" cy="1152.43" r="3.1" fill="#111827"/>
  <circle cx="164.40" cy="1135.92" r="3.1" fill="#111827"/>
  <circle cx="205.62" cy="1115.88" r="3.1" fill="#111827"/>
  <circle cx="246.84" cy="1097.66" r="3.1" fill="#111827"/>
  <circle cx="288.06" cy="1081.63" r="3.1" fill="#111827"/>
  <circle cx="329.16" cy="1065.64" r="3.1" fill="#111827"/>
  <circle cx="370.38" cy="1051.21" r="3.1" fill="#111827"/>
  <circle cx="411.60" cy="1040.11" r="3.1" fill="#111827"/>
  <circle cx="452.81" cy="1025.56" r="3.1" fill="#111827"/>
  <rect x="518.00" y="964.00" width="420" height="250" rx="0" fill="#ffffff" stroke="#d7dde3" stroke-width="1"/>
  <text x="532.00" y="986.00" font-size="14" font-family="Arial" fill="#1f2933">Закон 8: y = ax·ln(x) + b·eˣ + c</text>
  <line x1="674.15" y1="998.00" x2="674.15" y2="1176.00" stroke="#eef2f5" stroke-width="1"/>
  <text x="674.15" y="1194.00" text-anchor="middle" font-size="10" font-family="Arial" fill="#59636e">1,0</text>
  <line x1="798.30" y1="998.00" x2="798.30" y2="1176.00" stroke="#eef2f5" stroke-width="1"/>
  <text x="798.30" y="1194.00" text-anchor="middle" font-size="10" font-family="Arial" fill="#59636e">2,0</text>
  <line x1="564.00" y1="1166.18" x2="920.00" y2="1166.18" stroke="#eef2f5" stroke-width="1"/>
  <text x="556.00" y="1169.18" text-anchor="end" font-size="10" font-family="Arial" fill="#59636e">−2,5</text>
  <line x1="564.00" y1="1113.15" x2="920.00" y2="1113.15" stroke="#eef2f5" stroke-width="1"/>
  <text x="556.00" y="1116.15" text-anchor="end" font-size="10" font-family="Arial" fill="#59636e">0,0</text>
  <line x1="564.00" y1="1060.13" x2="920.00" y2="1060.13" stroke="#eef2f5" stroke-width="1"/>
  <text x="556.00" y="1063.13" text-anchor="end" font-size="10" font-family="Arial" fill="#59636e">2,5</text>
  <line x1="564.00" y1="1007.10" x2="920.00" y2="1007.10" stroke="#eef2f5" stroke-width="1"/>
  <text x="556.00" y="1010.10" text-anchor="end" font-size="10" font-family="Arial" fill="#59636e">5,0</text>
  <polyline points="577.19,1135.36 578.69,1135.99 580.20,1136.57 581.70,1137.10 583.21,1137.59 584.71,1138.03 586.22,1138.43 587.72,1138.80 589.23,1139.12 590.73,1139.41 592.24,1139.67 593.74,1139.89 595.25,1140.08 596.75,1140.24 598.26,1140.37 599.76,1140.47 601.27,1140.55 602.77,1140.60 604.28,1140.62 605.78,1140.61 607.29,1140.58 608.79,1140.53 610.30,1140.45 611.80,1140.36 613.31,1140.24 614.81,1140.10 616.32,1139.93 617.82,1139.75 619.33,1139.55 620.83,1139.33 622.34,1139.09 623.85,1138.84 625.35,1138.56 626.86,1138.27 628.36,1137.96 629.87,1137.64 631.37,1137.30 632.88,1136.94 634.38,1136.57 635.89,1136.19 637.39,1135.79 638.90,1135.37 640.40,1134.94 641.91,1134.50 643.41,1134.05 644.92,1133.58 646.42,1133.10 647.93,1132.61 649.43,1132.10 650.94,1131.58 652.44,1131.05 653.95,1130.51 655.45,1129.96 656.96,1129.40 658.46,1128.83 659.97,1128.25 661.47,1127.65 662.98,1127.05 664.48,1126.44 665.99,1125.82 667.49,1125.19 669.00,1124.55 670.50,1123.90 672.01,1123.24 673.52,1122.57 675.02,1121.90 676.53,1121.22 678.03,1120.53 679.54,1119.83 681.04,1119.12 682.55,1118.41 684.05,1117.69 685.56,1116.96 687.06,1116.23 688.57,1115.49 690.07,1114.74 691.58,1113.99 693.08,1113.23 694.59,1112.47 696.09,1111.70 697.60,1110.92 699.10,1110.14 700.61,1109.35 702.11,1108.56 703.62,1107.76 705.12,1106.96 706.63,1106.15 708.13,1105.34 709.64,1104.52 711.14,1103.70 712.65,1102.88 714.15,1102.05 715.66,1101.22 717.16,1100.38 718.67,1099.54 720.18,1098.70 721.68,1097.85 723.19,1097.01 724.69,1096.15 726.20,1095.30 727.70,1094.44 729.21,1093.58 730.71,1092.72 732.22,1091.85 733.72,1090.99 735.23,1090.12 736.73,1089.25 738.24,1088.38 739.74,1087.50 741.25,1086.63 742.75,1085.75 744.26,1084.88 745.76,1084.00 747.27,1083.12 748.77,1082.24 750.28,1081.36 751.78,1080.48 753.29,1079.60 754.79,1078.72 756.30,1077.84 757.80,1076.95 759.31,1076.07 760.81,1075.19 762.32,1074.31 763.82,1073.44 765.33,1072.56 766.84,1071.68 768.34,1070.80 769.85,1069.93 771.35,1069.06 772.86,1068.19 774.36,1067.32 775.87,1066.45 777.37,1065.58 778.88,1064.72 780.38,1063.86 781.89,1063.00 783.39,1062.14 784.90,1061.29 786.40,1060.44 787.91,1059.59 789.41,1058.75 790.92,1057.91 792.42,1057.07 793.93,1056.24 795.43,1055.41 796.94,1054.58 798.44,1053.76 799.95,1052.94 801.45,1052.13 802.96,1051.32 804.46,1050.52 805.97,1049.72 807.47,1048.93 808.98,1048.14 810.48,1047.36 811.99,1046.59 813.50,1045.82 815.00,1045.05 816.51,1044.29 818.01,1043.54 819.52,1042.80 821.02,1042.06 822.53,1041.33 824.03,1040.60 825.54,1039.89 827.04,1039.18 828.55,1038.48 830.05,1037.78 831.56,1037.09 833.06,1036.42 834.57,1035.75 836.07,1035.09 837.58,1034.44 839.08,1033.79 840.59,1033.16 842.09,1032.53 843.60,1031.92 845.10,1031.31 846.61,1030.72 848.11,1030.13 849.62,1029.56 851.12,1029.00 852.63,1028.44 854.13,1027.90 855.64,1027.37 857.14,1026.85 858.65,1026.35 860.15,1025.85 861.66,1025.37 863.17,1024.90 864.67,1024.44 866.18,1023.99 867.68,1023.56 869.19,1023.14 870.69,1022.74 872.20,1022.35 873.70,1021.97 875.21,1021.61 876.71,1021.26 878.22,1020.93 879.72,1020.61 881.23,1020.31 882.73,1020.02 884.24,1019.75 885.74,1019.50 887.25,1019.26 888.75,1019.04 890.26,1018.83 891.76,1018.64 893.27,1018.47 894.77,1018.32 896.28,1018.19 897.78,1018.07 899.29,1017.98 900.79,1017.90 902.30,1017.84 903.80,1017.80 905.31,1017.78 906.81,1017.79" fill="none" stroke="#7b8794" stroke-width="1.8"/>
  <circle cx="577.19" cy="1158.77" r="3.1" fill="#111827"/>
  <circle cx="618.40" cy="1140.09" r="3.1" fill="#111827"/>
  <circle cx="659.62" cy="1117.41" r="3.1" fill="#111827"/>
  <circle cx="700.84" cy="1096.80" r="3.1" fill="#111827"/>
  <circle cx="742.06" cy="1078.66" r="3.1" fill="#111827"/>
  <circle cx="783.16" cy="1060.57" r="3.1" fill="#111827"/>
  <circle cx="824.38" cy="1044.24" r="3.1" fill="#111827"/>
  <circle cx="865.60" cy="1031.68" r="3.1" fill="#111827"/>
  <circle cx="906.81" cy="1015.23" r="3.1" fill="#111827"/>
  <rect x="64.00" y="1258.00" width="420" height="250" rx="0" fill="#ffffff" stroke="#d7dde3" stroke-width="1"/>
  <text x="78.00" y="1280.00" font-size="14" font-family="Arial" fill="#1f2933">Закон 9: y = b·exp(−a(x+c)²)+c</text>
  <line x1="220.15" y1="1292.00" x2="220.15" y2="1470.00" stroke="#eef2f5" stroke-width="1"/>
  <text x="220.15" y="1488.00" text-anchor="middle" font-size="10" font-family="Arial" fill="#59636e">1,0</text>
  <line x1="344.30" y1="1292.00" x2="344.30" y2="1470.00" stroke="#eef2f5" stroke-width="1"/>
  <text x="344.30" y="1488.00" text-anchor="middle" font-size="10" font-family="Arial" fill="#59636e">2,0</text>
  <line x1="110.00" y1="1455.27" x2="466.00" y2="1455.27" stroke="#eef2f5" stroke-width="1"/>
  <text x="102.00" y="1458.27" text-anchor="end" font-size="10" font-family="Arial" fill="#59636e">−2,5</text>
  <line x1="110.00" y1="1403.97" x2="466.00" y2="1403.97" stroke="#eef2f5" stroke-width="1"/>
  <text x="102.00" y="1406.97" text-anchor="end" font-size="10" font-family="Arial" fill="#59636e">0,0</text>
  <line x1="110.00" y1="1352.67" x2="466.00" y2="1352.67" stroke="#eef2f5" stroke-width="1"/>
  <text x="102.00" y="1355.67" text-anchor="end" font-size="10" font-family="Arial" fill="#59636e">2,5</text>
  <line x1="110.00" y1="1301.37" x2="466.00" y2="1301.37" stroke="#eef2f5" stroke-width="1"/>
  <text x="102.00" y="1304.37" text-anchor="end" font-size="10" font-family="Arial" fill="#59636e">5,0</text>
  <polyline points="123.19,1452.77 124.69,1451.84 126.20,1450.91 127.70,1449.98 129.21,1449.06 130.71,1448.13 132.22,1447.21 133.72,1446.30 135.23,1445.38 136.73,1444.47 138.24,1443.57 139.74,1442.66 141.25,1441.76 142.75,1440.86 144.26,1439.97 145.76,1439.07 147.27,1438.18 148.77,1437.30 150.28,1436.41 151.78,1435.53 153.29,1434.66 154.79,1433.78 156.30,1432.91 157.80,1432.04 159.31,1431.18 160.81,1430.31 162.32,1429.45 163.82,1428.60 165.33,1427.74 166.83,1426.89 168.34,1426.04 169.85,1425.20 171.35,1424.36 172.86,1423.52 174.36,1422.68 175.87,1421.85 177.37,1421.02 178.88,1420.19 180.38,1419.37 181.89,1418.55 183.39,1417.73 184.90,1416.91 186.40,1416.10 187.91,1415.29 189.41,1414.49 190.92,1413.68 192.42,1412.88 193.93,1412.08 195.43,1411.29 196.94,1410.50 198.44,1409.71 199.95,1408.92 201.45,1408.14 202.96,1407.36 204.46,1406.58 205.97,1405.81 207.47,1405.04 208.98,1404.27 210.48,1403.50 211.99,1402.74 213.49,1401.98 215.00,1401.23 216.50,1400.47 218.01,1399.72 219.52,1398.97 221.02,1398.23 222.53,1397.48 224.03,1396.75 225.54,1396.01 227.04,1395.28 228.55,1394.54 230.05,1393.82 231.56,1393.09 233.06,1392.37 234.57,1391.65 236.07,1390.93 237.58,1390.22 239.08,1389.51 240.59,1388.80 242.09,1388.10 243.60,1387.39 245.10,1386.69 246.61,1386.00 248.11,1385.30 249.62,1384.61 251.12,1383.93 252.63,1383.24 254.13,1382.56 255.64,1381.88 257.14,1381.20 258.65,1380.53 260.15,1379.86 261.66,1379.19 263.16,1378.52 264.67,1377.86 266.18,1377.20 267.68,1376.54 269.19,1375.89 270.69,1375.23 272.20,1374.58 273.70,1373.94 275.21,1373.29 276.71,1372.65 278.22,1372.01 279.72,1371.38 281.23,1370.75 282.73,1370.12 284.24,1369.49 285.74,1368.86 287.25,1368.24 288.75,1367.62 290.26,1367.01 291.76,1366.39 293.27,1365.78 294.77,1365.17 296.28,1364.56 297.78,1363.96 299.29,1363.36 300.79,1362.76 302.30,1362.17 303.80,1361.57 305.31,1360.98 306.81,1360.40 308.32,1359.81 309.82,1359.23 311.33,1358.65 312.84,1358.07 314.34,1357.50 315.85,1356.93 317.35,1356.36 318.86,1355.79 320.36,1355.23 321.87,1354.66 323.37,1354.10 324.88,1353.55 326.38,1352.99 327.89,1352.44 329.39,1351.89 330.90,1351.35 332.40,1350.80 333.91,1350.26 335.41,1349.72 336.92,1349.19 338.42,1348.65 339.93,1348.12 341.43,1347.59 342.94,1347.07 344.44,1346.54 345.95,1346.02 347.45,1345.50 348.96,1344.99 350.46,1344.47 351.97,1343.96 353.47,1343.45 354.98,1342.94 356.48,1342.44 357.99,1341.94 359.50,1341.44 361.00,1340.94 362.51,1340.45 364.01,1339.95 365.52,1339.46 367.02,1338.98 368.53,1338.49 370.03,1338.01 371.54,1337.53 373.04,1337.05 374.55,1336.57 376.05,1336.10 377.56,1335.63 379.06,1335.16 380.57,1334.69 382.07,1334.23 383.58,1333.77 385.08,1333.31 386.59,1332.85 388.09,1332.39 389.60,1331.94 391.10,1331.49 392.61,1331.04 394.11,1330.60 395.62,1330.15 397.12,1329.71 398.63,1329.27 400.13,1328.83 401.64,1328.40 403.14,1327.97 404.65,1327.54 406.15,1327.11 407.66,1326.68 409.17,1326.26 410.67,1325.84 412.18,1325.42 413.68,1325.00 415.19,1324.58 416.69,1324.17 418.20,1323.76 419.70,1323.35 421.21,1322.94 422.71,1322.54 424.22,1322.14 425.72,1321.74 427.23,1321.34 428.73,1320.94 430.24,1320.55 431.74,1320.16 433.25,1319.77 434.75,1319.38 436.26,1318.99 437.76,1318.61 439.27,1318.23 440.77,1317.85 442.28,1317.47 443.78,1317.09 445.29,1316.72 446.79,1316.35 448.30,1315.98 449.80,1315.61 451.31,1315.24 452.81,1314.88" fill="none" stroke="#7b8794" stroke-width="1.8"/>
  <circle cx="123.19" cy="1448.11" r="3.1" fill="#111827"/>
  <circle cx="164.40" cy="1430.03" r="3.1" fill="#111827"/>
  <circle cx="205.62" cy="1408.10" r="3.1" fill="#111827"/>
  <circle cx="246.84" cy="1388.15" r="3.1" fill="#111827"/>
  <circle cx="288.06" cy="1370.60" r="3.1" fill="#111827"/>
  <circle cx="329.16" cy="1353.10" r="3.1" fill="#111827"/>
  <circle cx="370.38" cy="1337.30" r="3.1" fill="#111827"/>
  <circle cx="411.60" cy="1325.15" r="3.1" fill="#111827"/>
  <circle cx="452.81" cy="1309.23" r="3.1" fill="#111827"/>
  <rect x="518.00" y="1258.00" width="420" height="250" rx="0" fill="#ffffff" stroke="#d7dde3" stroke-width="1"/>
  <text x="532.00" y="1280.00" font-size="14" font-family="Arial" fill="#1f2933">Закон 10: y = a√x + b·sin(x) + c</text>
  <line x1="674.15" y1="1292.00" x2="674.15" y2="1470.00" stroke="#eef2f5" stroke-width="1"/>
  <text x="674.15" y="1488.00" text-anchor="middle" font-size="10" font-family="Arial" fill="#59636e">1,0</text>
  <line x1="798.30" y1="1292.00" x2="798.30" y2="1470.00" stroke="#eef2f5" stroke-width="1"/>
  <text x="798.30" y="1488.00" text-anchor="middle" font-size="10" font-family="Arial" fill="#59636e">2,0</text>
  <line x1="564.00" y1="1454.83" x2="920.00" y2="1454.83" stroke="#eef2f5" stroke-width="1"/>
  <text x="556.00" y="1457.83" text-anchor="end" font-size="10" font-family="Arial" fill="#59636e">−2,5</text>
  <line x1="564.00" y1="1404.08" x2="920.00" y2="1404.08" stroke="#eef2f5" stroke-width="1"/>
  <text x="556.00" y="1407.08" text-anchor="end" font-size="10" font-family="Arial" fill="#59636e">0,0</text>
  <line x1="564.00" y1="1353.33" x2="920.00" y2="1353.33" stroke="#eef2f5" stroke-width="1"/>
  <text x="556.00" y="1356.33" text-anchor="end" font-size="10" font-family="Arial" fill="#59636e">2,5</text>
  <line x1="564.00" y1="1302.58" x2="920.00" y2="1302.58" stroke="#eef2f5" stroke-width="1"/>
  <text x="556.00" y="1305.58" text-anchor="end" font-size="10" font-family="Arial" fill="#59636e">5,0</text>
  <polyline points="577.19,1452.77 578.69,1451.43 580.20,1450.12 581.70,1448.85 583.21,1447.62 584.71,1446.41 586.22,1445.23 587.72,1444.08 589.23,1442.95 590.73,1441.85 592.24,1440.77 593.74,1439.71 595.25,1438.67 596.75,1437.65 598.26,1436.65 599.76,1435.67 601.27,1434.70 602.77,1433.74 604.28,1432.81 605.78,1431.88 607.29,1430.97 608.79,1430.07 610.30,1429.19 611.80,1428.31 613.31,1427.45 614.81,1426.60 616.32,1425.76 617.82,1424.93 619.33,1424.11 620.83,1423.29 622.34,1422.49 623.85,1421.70 625.35,1420.91 626.86,1420.13 628.36,1419.36 629.87,1418.60 631.37,1417.84 632.88,1417.10 634.38,1416.35 635.89,1415.62 637.39,1414.89 638.90,1414.17 640.40,1413.45 641.91,1412.74 643.41,1412.03 644.92,1411.33 646.42,1410.63 647.93,1409.94 649.43,1409.26 650.94,1408.57 652.44,1407.90 653.95,1407.23 655.45,1406.56 656.96,1405.89 658.46,1405.23 659.97,1404.57 661.47,1403.92 662.98,1403.27 664.48,1402.63 665.99,1401.98 667.49,1401.34 669.00,1400.71 670.50,1400.07 672.01,1399.44 673.52,1398.82 675.02,1398.19 676.53,1397.57 678.03,1396.95 679.54,1396.33 681.04,1395.72 682.55,1395.10 684.05,1394.49 685.56,1393.88 687.06,1393.28 688.57,1392.67 690.07,1392.07 691.58,1391.47 693.08,1390.87 694.59,1390.27 696.09,1389.68 697.60,1389.08 699.10,1388.49 700.61,1387.90 702.11,1387.31 703.62,1386.72 705.12,1386.14 706.63,1385.55 708.13,1384.97 709.64,1384.38 711.14,1383.80 712.65,1383.22 714.15,1382.64 715.66,1382.06 717.16,1381.48 718.67,1380.90 720.18,1380.33 721.68,1379.75 723.19,1379.18 724.69,1378.60 726.20,1378.03 727.70,1377.46 729.21,1376.88 730.71,1376.31 732.22,1375.74 733.72,1375.17 735.23,1374.60 736.73,1374.03 738.24,1373.46 739.74,1372.89 741.25,1372.32 742.75,1371.75 744.26,1371.18 745.76,1370.61 747.27,1370.05 748.77,1369.48 750.28,1368.91 751.78,1368.34 753.29,1367.78 754.79,1367.21 756.30,1366.64 757.80,1366.08 759.31,1365.51 760.81,1364.94 762.32,1364.38 763.82,1363.81 765.33,1363.24 766.84,1362.67 768.34,1362.11 769.85,1361.54 771.35,1360.97 772.86,1360.41 774.36,1359.84 775.87,1359.27 777.37,1358.70 778.88,1358.14 780.38,1357.57 781.89,1357.00 783.39,1356.43 784.90,1355.86 786.40,1355.30 787.91,1354.73 789.41,1354.16 790.92,1353.59 792.42,1353.02 793.93,1352.45 795.43,1351.88 796.94,1351.31 798.44,1350.74 799.95,1350.17 801.45,1349.60 802.96,1349.03 804.46,1348.46 805.97,1347.88 807.47,1347.31 808.98,1346.74 810.48,1346.17 811.99,1345.60 813.50,1345.02 815.00,1344.45 816.51,1343.88 818.01,1343.30 819.52,1342.73 821.02,1342.15 822.53,1341.58 824.03,1341.01 825.54,1340.43 827.04,1339.86 828.55,1339.28 830.05,1338.70 831.56,1338.13 833.06,1337.55 834.57,1336.98 836.07,1336.40 837.58,1335.82 839.08,1335.25 840.59,1334.67 842.09,1334.09 843.60,1333.51 845.10,1332.94 846.61,1332.36 848.11,1331.78 849.62,1331.20 851.12,1330.62 852.63,1330.04 854.13,1329.47 855.64,1328.89 857.14,1328.31 858.65,1327.73 860.15,1327.15 861.66,1326.57 863.17,1325.99 864.67,1325.41 866.18,1324.83 867.68,1324.25 869.19,1323.68 870.69,1323.10 872.20,1322.52 873.70,1321.94 875.21,1321.36 876.71,1320.78 878.22,1320.20 879.72,1319.62 881.23,1319.04 882.73,1318.46 884.24,1317.88 885.74,1317.30 887.25,1316.73 888.75,1316.15 890.26,1315.57 891.76,1314.99 893.27,1314.41 894.77,1313.84 896.28,1313.26 897.78,1312.68 899.29,1312.11 900.79,1311.53 902.30,1310.95 903.80,1310.38 905.31,1309.80 906.81,1309.23" fill="none" stroke="#7b8794" stroke-width="1.8"/>
  <circle cx="577.19" cy="1447.74" r="3.1" fill="#111827"/>
  <circle cx="618.40" cy="1429.86" r="3.1" fill="#111827"/>
  <circle cx="659.62" cy="1408.16" r="3.1" fill="#111827"/>
  <circle cx="700.84" cy="1388.43" r="3.1" fill="#111827"/>
  <circle cx="742.06" cy="1371.07" r="3.1" fill="#111827"/>
  <circle cx="783.16" cy="1353.76" r="3.1" fill="#111827"/>
  <circle cx="824.38" cy="1338.13" r="3.1" fill="#111827"/>
  <circle cx="865.60" cy="1326.11" r="3.1" fill="#111827"/>
  <circle cx="906.81" cy="1310.36" r="3.1" fill="#111827"/>
</svg>