<svg xmlns="http://www.w3.org/2000/svg" width="980" height="640" viewBox="0 0 980 640">
  <rect x="0" y="0" width="980" height="640" fill="white"/>
  <text x="490" y="34" text-anchor="middle" font-size="24" font-family="Arial" fill="#1f2933">Аппроксимация законом 3</text>
  <line x1="207.55" y1="68.00" x2="207.55" y2="564.00" stroke="#eceff3" stroke-width="1"/>
  <text x="207.55" y="586.00" text-anchor="middle" font-size="12" font-family="Arial" fill="#4b5563">0,5</text>
  <line x1="354.45" y1="68.00" x2="354.45" y2="564.00" stroke="#eceff3" stroke-width="1"/>
  <text x="354.45" y="586.00" text-anchor="middle" font-size="12" font-family="Arial" fill="#4b5563">1,0</text>
  <line x1="501.34" y1="68.00" x2="501.34" y2="564.00" stroke="#eceff3" stroke-width="1"/>
  <text x="501.34" y="586.00" text-anchor="middle" font-size="12" font-family="Arial" fill="#4b5563">1,5</text>
  <line x1="648.23" y1="68.00" x2="648.23" y2="564.00" stroke="#eceff3" stroke-width="1"/>
  <text x="648.23" y="586.00" text-anchor="middle" font-size="12" font-family="Arial" fill="#4b5563">2,0</text>
  <line x1="795.12" y1="68.00" x2="795.12" y2="564.00" stroke="#eceff3" stroke-width="1"/>
  <text x="795.12" y="586.00" text-anchor="middle" font-size="12" font-family="Arial" fill="#4b5563">2,5</text>
  <line x1="942.02" y1="68.00" x2="942.02" y2="564.00" stroke="#eceff3" stroke-width="1"/>
  <text x="942.02" y="586.00" text-anchor="middle" font-size="12" font-family="Arial" fill="#4b5563">3,0</text>
  <line x1="86.00" y1="504.50" x2="944.00" y2="504.50" stroke="#eceff3" stroke-width="1"/>
  <text x="74.00" y="508.50" text-anchor="end" font-size="12" font-family="Arial" fill="#4b5563">−2,0</text>
  <line x1="86.00" y1="387.51" x2="944.00" y2="387.51" stroke="#eceff3" stroke-width="1"/>
  <text x="74.00" y="391.51" text-anchor="end" font-size="12" font-family="Arial" fill="#4b5563">0,0</text>
  <line x1="86.00" y1="270.53" x2="944.00" y2="270.53" stroke="#eceff3" stroke-width="1"/>
  <text x="74.00" y="274.53" text-anchor="end" font-size="12" font-family="Arial" fill="#4b5563">2,0</text>
  <line x1="86.00" y1="153.54" x2="944.00" y2="153.54" stroke="#eceff3" stroke-width="1"/>
  <text x="74.00" y="157.54" text-anchor="end" font-size="12" font-family="Arial" fill="#4b5563">4,0</text>
  <line x1="86.00" y1="387.51" x2="944.00" y2="387.51" stroke="#5c6670" stroke-width="1.4"/>
  <line x1="86.00" y1="68.00" x2="86.00" y2="564.00" stroke="#5c6670" stroke-width="1.4"/>
  <polyline points="125.00,516.00 126.56,514.88 128.13,513.76 129.69,512.65 131.25,511.55 132.82,510.45 134.38,509.35 135.94,508.26 137.51,507.17 139.07,506.09 140.63,505.01 142.19,503.94 143.76,502.87 145.32,501.80 146.88,500.74 148.45,499.68 150.01,498.62 151.57,497.57 153.14,496.52 154.70,495.48 156.26,494.44 157.83,493.40 159.39,492.36 160.95,491.33 162.52,490.30 164.08,489.27 165.64,488.25 167.20,487.23 168.77,486.21 170.33,485.20 171.89,484.19 173.46,483.18 175.02,482.17 176.58,481.17 178.15,480.17 179.71,479.17 181.27,478.17 182.84,477.18 184.40,476.19 185.96,475.20 187.53,474.22 189.09,473.23 190.65,472.25 192.21,471.27 193.78,470.29 195.34,469.32 196.90,468.35 198.47,467.38 200.03,466.41 201.59,465.44 203.16,464.48 204.72,463.52 206.28,462.56 207.85,461.60 209.41,460.64 210.97,459.69 212.54,458.74 214.10,457.79 215.66,456.84 217.22,455.89 218.79,454.95 220.35,454.00 221.91,453.06 223.48,452.12 225.04,451.18 226.60,450.25 228.17,449.31 229.73,448.38 231.29,447.45 232.86,446.52 234.42,445.59 235.98,444.67 237.55,443.74 239.11,442.82 240.67,441.90 242.23,440.98 243.80,440.06 245.36,439.14 246.92,438.23 248.49,437.31 250.05,436.40 251.61,435.49 253.18,434.58 254.74,433.67 256.30,432.77 257.87,431.86 259.43,430.96 260.99,430.06 262.56,429.15 264.12,428.25 265.68,427.36 267.24,426.46 268.81,425.56 270.37,424.67 271.93,423.78 273.50,422.88 275.06,421.99 276.62,421.10 278.19,420.22 279.75,419.33 281.31,418.44 282.88,417.56 284.44,416.67 286.00,415.79 287.57,414.91 289.13,414.03 290.69,413.15 292.25,412.28 293.82,411.40 295.38,410.52 296.94,409.65 298.51,408.78 300.07,407.91 301.63,407.03 303.20,406.17 304.76,405.30 306.32,404.43 307.89,403.56 309.45,402.70 311.01,401.83 312.58,400.97 314.14,400.11 315.70,399.25 317.26,398.39 318.83,397.53 320.39,396.67 321.95,395.81 323.52,394.96 325.08,394.10 326.64,393.25 328.21,392.39 329.77,391.54 331.33,390.69 332.90,389.84 334.46,388.99 336.02,388.14 337.59,387.29 339.15,386.45 340.71,385.60 342.27,384.76 343.84,383.91 345.40,383.07 346.96,382.23 348.53,381.38 350.09,380.54 351.65,379.70 353.22,378.87 354.78,378.03 356.34,377.19 357.91,376.36 359.47,375.52 361.03,374.69 362.60,373.85 364.16,373.02 365.72,372.19 367.28,371.36 368.85,370.53 370.41,369.70 371.97,368.87 373.54,368.04 375.10,367.21 376.66,366.39 378.23,365.56 379.79,364.74 381.35,363.91 382.92,363.09 384.48,362.27 386.04,361.45 387.61,360.63 389.17,359.81 390.73,358.99 392.29,358.17 393.86,357.35 395.42,356.53 396.98,355.72 398.55,354.90 400.11,354.09 401.67,353.27 403.24,352.46 404.80,351.65 406.36,350.83 407.93,350.02 409.49,349.21 411.05,348.40 412.62,347.59 414.18,346.78 415.74,345.98 417.30,345.17 418.87,344.36 420.43,343.56 421.99,342.75 423.56,341.95 425.12,341.14 426.68,340.34 428.25,339.54 429.81,338.74 431.37,337.93 432.94,337.13 434.50,336.33 436.06,335.54 437.63,334.74 439.19,333.94 440.75,333.14 442.31,332.35 443.88,331.55 445.44,330.75 447.00,329.96 448.57,329.17 450.13,328.37 451.69,327.58 453.26,326.79 454.82,325.99 456.38,325.20 457.95,324.41 459.51,323.62 461.07,322.83 462.64,322.05 464.20,321.26 465.76,320.47 467.32,319.68 468.89,318.90 470.45,318.11 472.01,317.33 473.58,316.54 475.14,315.76 476.70,314.97 478.27,314.19 479.83,313.41 481.39,312.63 482.96,311.85 484.52,311.07 486.08,310.28 487.65,309.51 489.21,308.73 490.77,307.95 492.33,307.17 493.90,306.39 495.46,305.62 497.02,304.84 498.59,304.06 500.15,303.29 501.71,302.51 503.28,301.74 504.84,300.97 506.40,300.19 507.97,299.42 509.53,298.65 511.09,297.88 512.66,297.11 514.22,296.34 515.78,295.57 517.34,294.80 518.91,294.03 520.47,293.26 522.03,292.49 523.60,291.72 525.16,290.96 526.72,290.19 528.29,289.42 529.85,288.66 531.41,287.89 532.98,287.13 534.54,286.37 536.10,285.60 537.67,284.84 539.23,284.08 540.79,283.31 542.35,282.55 543.92,281.79 545.48,281.03 547.04,280.27 548.61,279.51 550.17,278.75 551.73,277.99 553.30,277.24 554.86,276.48 556.42,275.72 557.99,274.96 559.55,274.21 561.11,273.45 562.68,272.70 564.24,271.94 565.80,271.19 567.36,270.43 568.93,269.68 570.49,268.93 572.05,268.17 573.62,267.42 575.18,266.67 576.74,265.92 578.31,265.17 579.87,264.41 581.43,263.66 583.00,262.92 584.56,262.17 586.12,261.42 587.69,260.67 589.25,259.92 590.81,259.17 592.37,258.43 593.94,257.68 595.50,256.93 597.06,256.19 598.63,255.44 600.19,254.70 601.75,253.95 603.32,253.21 604.88,252.46 606.44,251.72 608.01,250.98 609.57,250.23 611.13,249.49 612.70,248.75 614.26,248.01 615.82,247.27 617.38,246.53 618.95,245.79 620.51,245.05 622.07,244.31 623.64,243.57 625.20,242.83 626.76,242.09 628.33,241.36 629.89,240.62 631.45,239.88 633.02,239.14 634.58,238.41 636.14,237.67 637.71,236.94 639.27,236.20 640.83,235.47 642.39,234.73 643.96,234.00 645.52,233.27 647.08,232.53 648.65,231.80 650.21,231.07 651.77,230.34 653.34,229.60 654.90,228.87 656.46,228.14 658.03,227.41 659.59,226.68 661.15,225.95 662.72,225.22 664.28,224.49 665.84,223.76 667.40,223.04 668.97,222.31 670.53,221.58 672.09,220.85 673.66,220.13 675.22,219.40 676.78,218.67 678.35,217.95 679.91,217.22 681.47,216.50 683.04,215.77 684.60,215.05 686.16,214.32 687.73,213.60 689.29,212.88 690.85,212.15 692.41,211.43 693.98,210.71 695.54,209.99 697.10,209.26 698.67,208.54 700.23,207.82 701.79,207.10 703.36,206.38 704.92,205.66 706.48,204.94 708.05,204.22 709.61,203.50 711.17,202.79 712.74,202.07 714.30,201.35 715.86,200.63 717.42,199.91 718.99,199.20 720.55,198.48 722.11,197.76 723.68,197.05 725.24,196.33 726.80,195.62 728.37,194.90 729.93,194.19 731.49,193.47 733.06,192.76 734.62,192.05 736.18,191.33 737.75,190.62 739.31,189.91 740.87,189.19 742.43,188.48 744.00,187.77 745.56,187.06 747.12,186.35 748.69,185.64 750.25,184.93 751.81,184.22 753.38,183.51 754.94,182.80 756.50,182.09 758.07,181.38 759.63,180.67 761.19,179.96 762.76,179.25 764.32,178.55 765.88,177.84 767.44,177.13 769.01,176.42 770.57,175.72 772.13,175.01 773.70,174.31 775.26,173.60 776.82,172.89 778.39,172.19 779.95,171.48 781.51,170.78 783.08,170.08 784.64,169.37 786.20,168.67 787.77,167.96 789.33,167.26 790.89,166.56 792.45,165.86 794.02,165.15 795.58,164.45 797.14,163.75 798.71,163.05 800.27,162.35 801.83,161.65 803.40,160.95 804.96,160.25 806.52,159.55 808.09,158.85 809.65,158.15 811.21,157.45 812.78,156.75 814.34,156.05 815.90,155.35 817.46,154.66 819.03,153.96 820.59,153.26 822.15,152.56 823.72,151.87 825.28,151.17 826.84,150.48 828.41,149.78 829.97,149.08 831.53,148.39 833.10,147.69 834.66,147.00 836.22,146.30 837.79,145.61 839.35,144.92 840.91,144.22 842.47,143.53 844.04,142.83 845.60,142.14 847.16,141.45 848.73,140.76 850.29,140.06 851.85,139.37 853.42,138.68 854.98,137.99 856.54,137.30 858.11,136.61 859.67,135.92 861.23,135.23 862.80,134.54 864.36,133.85 865.92,133.16 867.48,132.47 869.05,131.78 870.61,131.09 872.17,130.40 873.74,129.71 875.30,129.02 876.86,128.34 878.43,127.65 879.99,126.96 881.55,126.28 883.12,125.59 884.68,124.90 886.24,124.22 887.81,123.53 889.37,122.84 890.93,122.16 892.49,121.47 894.06,120.79 895.62,120.10 897.18,119.42 898.75,118.73 900.31,118.05 901.87,117.37 903.44,116.68 905.00,116.00" fill="none" stroke="#d9480f" stroke-width="2.7" stroke-dasharray="8,5"/>
  <circle cx="125.00" cy="513.33" r="4.5" fill="#111827"/>
  <text x="132.00" y="506.33" font-size="11" font-family="Arial" fill="#111827">P0</text>
  <circle cx="222.54" cy="461.80" r="4.5" fill="#111827"/>
  <text x="229.54" y="454.80" font-size="11" font-family="Arial" fill="#111827">P1</text>
  <circle cx="320.07" cy="399.27" r="4.5" fill="#111827"/>
  <text x="327.07" y="392.27" font-size="11" font-family="Arial" fill="#111827">P2</text>
  <circle cx="417.61" cy="342.42" r="4.5" fill="#111827"/>
  <text x="424.61" y="335.42" font-size="11" font-family="Arial" fill="#111827">P3</text>
  <circle cx="515.15" cy="292.40" r="4.5" fill="#111827"/>
  <text x="522.15" y="285.40" font-size="11" font-family="Arial" fill="#111827">P4</text>
  <circle cx="612.39" cy="242.51" r="4.5" fill="#111827"/>
  <text x="619.39" y="235.51" font-size="11" font-family="Arial" fill="#111827">P5</text>
  <circle cx="709.93" cy="197.47" r="4.5" fill="#111827"/>
  <text x="716.93" y="190.47" font-size="11" font-family="Arial" fill="#111827">P6</text>
  <circle cx="807.46" cy="162.84" r="4.5" fill="#111827"/>
  <text x="814.46" y="155.84" font-size="11" font-family="Arial" fill="#111827">P7</text>
  <circle cx="905.00" cy="117.45" r="4.5" fill="#111827"/>
  <text x="912.00" y="110.45" font-size="11" font-family="Arial" fill="#111827">P8</text>
  <line x1="96.00" y1="82.00" x2="124.00" y2="82.00" stroke="#d9480f" stroke-width="2.7" stroke-dasharray="8,5"/>
  <text x="132.00" y="86.00" font-size="12" font-family="Arial" fill="#1f2933">закон 3</text>
  <text x="954.00" y="392.51" font-size="16" font-family="Arial" fill="#1f2933">x</text>
  <text x="94.00" y="54.00" font-size="16" font-family="Arial" fill="#1f2933">y</text>
</svg>