<svg xmlns="http://www.w3.org/2000/svg" width="980" height="640" viewBox="0 0 980 640">
  <rect x="0" y="0" width="980" height="640" fill="white"/>
  <text x="490" y="34" text-anchor="middle" font-size="24" font-family="Arial" fill="#1f2933">Аппроксимация законом 1</text>
  <line x1="207.55" y1="68.00" x2="207.55" y2="564.00" stroke="#eceff3" stroke-width="1"/>
  <text x="207.55" y="586.00" text-anchor="middle" font-size="12" font-family="Arial" fill="#4b5563">0,5</text>
  <line x1="354.45" y1="68.00" x2="354.45" y2="564.00" stroke="#eceff3" stroke-width="1"/>
  <text x="354.45" y="586.00" text-anchor="middle" font-size="12" font-family="Arial" fill="#4b5563">1,0</text>
  <line x1="501.34" y1="68.00" x2="501.34" y2="564.00" stroke="#eceff3" stroke-width="1"/>
  <text x="501.34" y="586.00" text-anchor="middle" font-size="12" font-family="Arial" fill="#4b5563">1,5</text>
  <line x1="648.23" y1="68.00" x2="648.23" y2="564.00" stroke="#eceff3" stroke-width="1"/>
  <text x="648.23" y="586.00" text-anchor="middle" font-size="12" font-family="Arial" fill="#4b5563">2,0</text>
  <line x1="795.12" y1="68.00" x2="795.12" y2="564.00" stroke="#eceff3" stroke-width="1"/>
  <text x="795.12" y="586.00" text-anchor="middle" font-size="12" font-family="Arial" fill="#4b5563">2,5</text>
  <line x1="942.02" y1="68.00" x2="942.02" y2="564.00" stroke="#eceff3" stroke-width="1"/>
  <text x="942.02" y="586.00" text-anchor="middle" font-size="12" font-family="Arial" fill="#4b5563">3,0</text>
  <line x1="86.00" y1="503.43" x2="944.00" y2="503.43" stroke="#eceff3" stroke-width="1"/>
  <text x="74.00" y="507.43" text-anchor="end" font-size="12" font-family="Arial" fill="#4b5563">−2,0</text>
  <line x1="86.00" y1="386.33" x2="944.00" y2="386.33" stroke="#eceff3" stroke-width="1"/>
  <text x="74.00" y="390.33" text-anchor="end" font-size="12" font-family="Arial" fill="#4b5563">0,0</text>
  <line x1="86.00" y1="269.23" x2="944.00" y2="269.23" stroke="#eceff3" stroke-width="1"/>
  <text x="74.00" y="273.23" text-anchor="end" font-size="12" font-family="Arial" fill="#4b5563">2,0</text>
  <line x1="86.00" y1="152.13" x2="944.00" y2="152.13" stroke="#eceff3" stroke-width="1"/>
  <text x="74.00" y="156.13" text-anchor="end" font-size="12" font-family="Arial" fill="#4b5563">4,0</text>
  <line x1="86.00" y1="386.33" x2="944.00" y2="386.33" stroke="#5c6670" stroke-width="1.4"/>
  <line x1="86.00" y1="68.00" x2="86.00" y2="564.00" stroke="#5c6670" stroke-width="1.4"/>
  <polyline points="125.00,516.00 126.56,515.00 128.13,514.00 129.69,513.00 131.25,512.00 132.82,511.00 134.38,510.00 135.94,509.01 137.51,508.01 139.07,507.01 140.63,506.02 142.19,505.03 143.76,504.03 145.32,503.04 146.88,502.05 148.45,501.06 150.01,500.07 151.57,499.08 153.14,498.10 154.70,497.11 156.26,496.12 157.83,495.14 159.39,494.15 160.95,493.17 162.52,492.19 164.08,491.20 165.64,490.22 167.20,489.24 168.77,488.26 170.33,487.29 171.89,486.31 173.46,485.33 175.02,484.35 176.58,483.38 178.15,482.40 179.71,481.43 181.27,480.46 182.84,479.48 184.40,478.51 185.96,477.54 187.53,476.57 189.09,475.60 190.65,474.64 192.21,473.67 193.78,472.70 195.34,471.74 196.90,470.77 198.47,469.81 200.03,468.84 201.59,467.88 203.16,466.92 204.72,465.96 206.28,465.00 207.85,464.04 209.41,463.08 210.97,462.12 212.54,461.17 214.10,460.21 215.66,459.26 217.22,458.30 218.79,457.35 220.35,456.40 221.91,455.45 223.48,454.49 225.04,453.54 226.60,452.59 228.17,451.65 229.73,450.70 231.29,449.75 232.86,448.81 234.42,447.86 235.98,446.92 237.55,445.97 239.11,445.03 240.67,444.09 242.23,443.15 243.80,442.21 245.36,441.27 246.92,440.33 248.49,439.39 250.05,438.45 251.61,437.52 253.18,436.58 254.74,435.65 256.30,434.71 257.87,433.78 259.43,432.85 260.99,431.92 262.56,430.99 264.12,430.06 265.68,429.13 267.24,428.20 268.81,427.27 270.37,426.35 271.93,425.42 273.50,424.49 275.06,423.57 276.62,422.65 278.19,421.73 279.75,420.80 281.31,419.88 282.88,418.96 284.44,418.04 286.00,417.13 287.57,416.21 289.13,415.29 290.69,414.38 292.25,413.46 293.82,412.55 295.38,411.63 296.94,410.72 298.51,409.81 300.07,408.90 301.63,407.99 303.20,407.08 304.76,406.17 306.32,405.26 307.89,404.36 309.45,403.45 311.01,402.54 312.58,401.64 314.14,400.74 315.70,399.83 317.26,398.93 318.83,398.03 320.39,397.13 321.95,396.23 323.52,395.33 325.08,394.43 326.64,393.54 328.21,392.64 329.77,391.75 331.33,390.85 332.90,389.96 334.46,389.06 336.02,388.17 337.59,387.28 339.15,386.39 340.71,385.50 342.27,384.61 343.84,383.72 345.40,382.84 346.96,381.95 348.53,381.06 350.09,380.18 351.65,379.30 353.22,378.41 354.78,377.53 356.34,376.65 357.91,375.77 359.47,374.89 361.03,374.01 362.60,373.13 364.16,372.25 365.72,371.38 367.28,370.50 368.85,369.63 370.41,368.75 371.97,367.88 373.54,367.01 375.10,366.13 376.66,365.26 378.23,364.39 379.79,363.52 381.35,362.66 382.92,361.79 384.48,360.92 386.04,360.06 387.61,359.19 389.17,358.33 390.73,357.46 392.29,356.60 393.86,355.74 395.42,354.88 396.98,354.02 398.55,353.16 400.11,352.30 401.67,351.44 403.24,350.58 404.80,349.73 406.36,348.87 407.93,348.02 409.49,347.16 411.05,346.31 412.62,345.46 414.18,344.61 415.74,343.76 417.30,342.91 418.87,342.06 420.43,341.21 421.99,340.36 423.56,339.52 425.12,338.67 426.68,337.83 428.25,336.98 429.81,336.14 431.37,335.30 432.94,334.46 434.50,333.61 436.06,332.77 437.63,331.94 439.19,331.10 440.75,330.26 442.31,329.42 443.88,328.59 445.44,327.75 447.00,326.92 448.57,326.09 450.13,325.25 451.69,324.42 453.26,323.59 454.82,322.76 456.38,321.93 457.95,321.10 459.51,320.28 461.07,319.45 462.64,318.62 464.20,317.80 465.76,316.97 467.32,316.15 468.89,315.33 470.45,314.50 472.01,313.68 473.58,312.86 475.14,312.04 476.70,311.23 478.27,310.41 479.83,309.59 481.39,308.77 482.96,307.96 484.52,307.14 486.08,306.33 487.65,305.52 489.21,304.71 490.77,303.89 492.33,303.08 493.90,302.27 495.46,301.47 497.02,300.66 498.59,299.85 500.15,299.04 501.71,298.24 503.28,297.43 504.84,296.63 506.40,295.83 507.97,295.02 509.53,294.22 511.09,293.42 512.66,292.62 514.22,291.82 515.78,291.03 517.34,290.23 518.91,289.43 520.47,288.64 522.03,287.84 523.60,287.05 525.16,286.25 526.72,285.46 528.29,284.67 529.85,283.88 531.41,283.09 532.98,282.30 534.54,281.51 536.10,280.72 537.67,279.94 539.23,279.15 540.79,278.37 542.35,277.58 543.92,276.80 545.48,276.02 547.04,275.23 548.61,274.45 550.17,273.67 551.73,272.89 553.30,272.11 554.86,271.34 556.42,270.56 557.99,269.78 559.55,269.01 561.11,268.23 562.68,267.46 564.24,266.69 565.80,265.92 567.36,265.14 568.93,264.37 570.49,263.60 572.05,262.84 573.62,262.07 575.18,261.30 576.74,260.53 578.31,259.77 579.87,259.00 581.43,258.24 583.00,257.48 584.56,256.71 586.12,255.95 587.69,255.19 589.25,254.43 590.81,253.67 592.37,252.92 593.94,252.16 595.50,251.40 597.06,250.65 598.63,249.89 600.19,249.14 601.75,248.38 603.32,247.63 604.88,246.88 606.44,246.13 608.01,245.38 609.57,244.63 611.13,243.88 612.70,243.13 614.26,242.39 615.82,241.64 617.38,240.90 618.95,240.15 620.51,239.41 622.07,238.67 623.64,237.92 625.20,237.18 626.76,236.44 628.33,235.70 629.89,234.96 631.45,234.23 633.02,233.49 634.58,232.75 636.14,232.02 637.71,231.28 639.27,230.55 640.83,229.82 642.39,229.09 643.96,228.35 645.52,227.62 647.08,226.89 648.65,226.17 650.21,225.44 651.77,224.71 653.34,223.98 654.90,223.26 656.46,222.53 658.03,221.81 659.59,221.09 661.15,220.37 662.72,219.64 664.28,218.92 665.84,218.20 667.40,217.48 668.97,216.77 670.53,216.05 672.09,215.33 673.66,214.62 675.22,213.90 676.78,213.19 678.35,212.47 679.91,211.76 681.47,211.05 683.04,210.34 684.60,209.63 686.16,208.92 687.73,208.21 689.29,207.51 690.85,206.80 692.41,206.09 693.98,205.39 695.54,204.68 697.10,203.98 698.67,203.28 700.23,202.58 701.79,201.87 703.36,201.17 704.92,200.48 706.48,199.78 708.05,199.08 709.61,198.38 711.17,197.69 712.74,196.99 714.30,196.30 715.86,195.60 717.42,194.91 718.99,194.22 720.55,193.53 722.11,192.84 723.68,192.15 725.24,191.46 726.80,190.77 728.37,190.08 729.93,189.40 731.49,188.71 733.06,188.03 734.62,187.34 736.18,186.66 737.75,185.98 739.31,185.30 740.87,184.62 742.43,183.94 744.00,183.26 745.56,182.58 747.12,181.90 748.69,181.23 750.25,180.55 751.81,179.87 753.38,179.20 754.94,178.53 756.50,177.86 758.07,177.18 759.63,176.51 761.19,175.84 762.76,175.17 764.32,174.51 765.88,173.84 767.44,173.17 769.01,172.51 770.57,171.84 772.13,171.18 773.70,170.51 775.26,169.85 776.82,169.19 778.39,168.53 779.95,167.87 781.51,167.21 783.08,166.55 784.64,165.89 786.20,165.24 787.77,164.58 789.33,163.92 790.89,163.27 792.45,162.62 794.02,161.96 795.58,161.31 797.14,160.66 798.71,160.01 800.27,159.36 801.83,158.71 803.40,158.06 804.96,157.42 806.52,156.77 808.09,156.13 809.65,155.48 811.21,154.84 812.78,154.19 814.34,153.55 815.90,152.91 817.46,152.27 819.03,151.63 820.59,150.99 822.15,150.35 823.72,149.72 825.28,149.08 826.84,148.44 828.41,147.81 829.97,147.18 831.53,146.54 833.10,145.91 834.66,145.28 836.22,144.65 837.79,144.02 839.35,143.39 840.91,142.76 842.47,142.13 844.04,141.51 845.60,140.88 847.16,140.26 848.73,139.63 850.29,139.01 851.85,138.39 853.42,137.76 854.98,137.14 856.54,136.52 858.11,135.90 859.67,135.28 861.23,134.67 862.80,134.05 864.36,133.43 865.92,132.82 867.48,132.20 869.05,131.59 870.61,130.98 872.17,130.37 873.74,129.76 875.30,129.15 876.86,128.54 878.43,127.93 879.99,127.32 881.55,126.71 883.12,126.11 884.68,125.50 886.24,124.90 887.81,124.29 889.37,123.69 890.93,123.09 892.49,122.49 894.06,121.89 895.62,121.29 897.18,120.69 898.75,120.09 900.31,119.49 901.87,118.90 903.44,118.30 905.00,117.71" fill="none" stroke="#0b7285" stroke-width="2.7"/>
  <circle cx="125.00" cy="512.27" r="4.5" fill="#111827"/>
  <text x="132.00" y="505.27" font-size="11" font-family="Arial" fill="#111827">P0</text>
  <circle cx="222.54" cy="460.69" r="4.5" fill="#111827"/>
  <text x="229.54" y="453.69" font-size="11" font-family="Arial" fill="#111827">P1</text>
  <circle cx="320.07" cy="398.10" r="4.5" fill="#111827"/>
  <text x="327.07" y="391.10" font-size="11" font-family="Arial" fill="#111827">P2</text>
  <circle cx="417.61" cy="341.19" r="4.5" fill="#111827"/>
  <text x="424.61" y="334.19" font-size="11" font-family="Arial" fill="#111827">P3</text>
  <circle cx="515.15" cy="291.12" r="4.5" fill="#111827"/>
  <text x="522.15" y="284.12" font-size="11" font-family="Arial" fill="#111827">P4</text>
  <circle cx="612.39" cy="241.18" r="4.5" fill="#111827"/>
  <text x="619.39" y="234.18" font-size="11" font-family="Arial" fill="#111827">P5</text>
  <circle cx="709.93" cy="196.10" r="4.5" fill="#111827"/>
  <text x="716.93" y="189.10" font-size="11" font-family="Arial" fill="#111827">P6</text>
  <circle cx="807.46" cy="161.44" r="4.5" fill="#111827"/>
  <text x="814.46" y="154.44" font-size="11" font-family="Arial" fill="#111827">P7</text>
  <circle cx="905.00" cy="116.00" r="4.5" fill="#111827"/>
  <text x="912.00" y="109.00" font-size="11" font-family="Arial" fill="#111827">P8</text>
  <line x1="96.00" y1="82.00" x2="124.00" y2="82.00" stroke="#0b7285" stroke-width="2.7"/>
  <text x="132.00" y="86.00" font-size="12" font-family="Arial" fill="#1f2933">закон 1</text>
  <text x="954.00" y="391.33" font-size="16" font-family="Arial" fill="#1f2933">x</text>
  <text x="94.00" y="54.00" font-size="16" font-family="Arial" fill="#1f2933">y</text>
</svg>